<svg width="1656" height="603" viewBox="0 0 1656 603" fill="none" xmlns="http://www.w3.org/2000/svg">
<g clip-path="url(#clip0_1489_2823)">
<rect x="410" y="117" width="877" height="106" fill="#E4BC0A"/>
<rect x="410" y="321" width="124" height="107" fill="#E4BC0A"/>
<line x1="410.5" y1="68" x2="410.5" y2="480" stroke="white"/>
<line x1="410" y1="480.5" x2="1422" y2="480.5" stroke="white"/>
<path d="M264.417 182L260.461 169.258H259.817H253.883V182H250.433V150.352H260.093C262.27 150.352 263.896 150.751 264.969 151.548C266.042 152.345 266.732 153.403 267.039 154.722C267.376 156.041 267.545 157.743 267.545 159.828C267.545 162.128 267.3 164.029 266.809 165.532C266.349 167.004 265.337 168.047 263.773 168.66L268.051 182H264.417ZM259.219 166.268C260.66 166.268 261.734 166.038 262.439 165.578C263.144 165.118 263.589 164.459 263.773 163.6C263.988 162.711 264.095 161.453 264.095 159.828C264.095 158.172 263.988 156.915 263.773 156.056C263.589 155.197 263.16 154.538 262.485 154.078C261.81 153.618 260.737 153.388 259.265 153.388H253.883V166.268H259.219ZM287.378 171.328H275.326C275.326 173.812 275.434 175.606 275.648 176.71C275.894 177.783 276.384 178.535 277.12 178.964C277.887 179.363 279.16 179.562 280.938 179.562C282.962 179.562 284.894 179.393 286.734 179.056V181.724C286.029 181.908 285.063 182.061 283.836 182.184C282.61 182.307 281.429 182.368 280.294 182.368C277.81 182.368 276.001 182.015 274.866 181.31C273.732 180.574 272.98 179.393 272.612 177.768C272.244 176.143 272.06 173.659 272.06 170.316C272.06 166.973 272.214 164.505 272.52 162.91C272.827 161.285 273.532 160.089 274.636 159.322C275.771 158.555 277.58 158.172 280.064 158.172C282.395 158.172 284.066 158.54 285.078 159.276C286.09 160.012 286.719 161.162 286.964 162.726C287.24 164.29 287.378 166.805 287.378 170.27V171.328ZM280.018 160.932C278.577 160.932 277.534 161.116 276.89 161.484C276.246 161.852 275.817 162.573 275.602 163.646C275.418 164.689 275.326 166.437 275.326 168.89H284.25V168.338C284.25 166.099 284.128 164.474 283.882 163.462C283.637 162.419 283.223 161.745 282.64 161.438C282.088 161.101 281.214 160.932 280.018 160.932ZM297.21 182.368C295.064 182.368 293.515 181.877 292.564 180.896C291.614 179.915 291.138 178.136 291.138 175.56C291.138 173.781 291.307 172.401 291.644 171.42C292.012 170.408 292.61 169.687 293.438 169.258C294.297 168.829 295.493 168.614 297.026 168.614C297.916 168.614 299.94 168.691 303.098 168.844V167.188C303.098 165.256 302.96 163.876 302.684 163.048C302.439 162.189 301.964 161.637 301.258 161.392C300.584 161.116 299.449 160.978 297.854 160.978C297.149 160.978 296.229 161.039 295.094 161.162C293.99 161.254 293.055 161.361 292.288 161.484V158.816C294.282 158.387 296.444 158.172 298.774 158.172C300.921 158.172 302.516 158.433 303.558 158.954C304.632 159.475 305.368 160.365 305.766 161.622C306.165 162.879 306.364 164.719 306.364 167.142V182H303.466L303.282 178.78H303.052C302.592 180.221 301.841 181.187 300.798 181.678C299.786 182.138 298.59 182.368 297.21 182.368ZM298.268 179.562C299.342 179.562 300.216 179.439 300.89 179.194C301.565 178.918 302.071 178.351 302.408 177.492C302.868 176.265 303.098 174.625 303.098 172.57V171.052H297.854C296.873 171.052 296.137 171.159 295.646 171.374C295.186 171.558 294.849 171.957 294.634 172.57C294.45 173.153 294.358 174.073 294.358 175.33C294.358 176.526 294.45 177.415 294.634 177.998C294.849 178.581 295.232 178.995 295.784 179.24C296.336 179.455 297.164 179.562 298.268 179.562ZM312.013 182V147.822H315.279V182H312.013ZM320.767 170.362V167.372H329.737V170.362H320.767ZM335.238 182V147.822H338.504V182H335.238ZM344.175 151.64V147.822H347.625V151.64H344.175ZM344.267 182V158.54H347.533V182H344.267ZM354.722 161.346H351.318V158.54H354.722V154.584C354.722 152.529 354.952 151.027 355.412 150.076C355.903 149.125 356.654 148.512 357.666 148.236C358.709 147.96 360.273 147.822 362.358 147.822V150.398C361.101 150.398 360.166 150.49 359.552 150.674C358.97 150.827 358.556 151.165 358.31 151.686C358.096 152.177 357.988 152.943 357.988 153.986V158.54H362.358V161.346H357.988V182H354.722V161.346ZM380.591 171.328H368.539C368.539 173.812 368.647 175.606 368.861 176.71C369.107 177.783 369.597 178.535 370.333 178.964C371.1 179.363 372.373 179.562 374.151 179.562C376.175 179.562 378.107 179.393 379.947 179.056V181.724C379.242 181.908 378.276 182.061 377.049 182.184C375.823 182.307 374.642 182.368 373.507 182.368C371.023 182.368 369.214 182.015 368.079 181.31C366.945 180.574 366.193 179.393 365.825 177.768C365.457 176.143 365.273 173.659 365.273 170.316C365.273 166.973 365.427 164.505 365.733 162.91C366.04 161.285 366.745 160.089 367.849 159.322C368.984 158.555 370.793 158.172 373.277 158.172C375.608 158.172 377.279 158.54 378.291 159.276C379.303 160.012 379.932 161.162 380.177 162.726C380.453 164.29 380.591 166.805 380.591 170.27V171.328ZM373.231 160.932C371.79 160.932 370.747 161.116 370.103 161.484C369.459 161.852 369.03 162.573 368.815 163.646C368.631 164.689 368.539 166.437 368.539 168.89H377.463V168.338C377.463 166.099 377.341 164.474 377.095 163.462C376.85 162.419 376.436 161.745 375.853 161.438C375.301 161.101 374.427 160.932 373.231 160.932Z" fill="white"/>
<path d="M290.299 392.368C287.293 392.368 285.147 391.954 283.859 391.126C282.571 390.298 281.743 388.841 281.375 386.756C281.007 384.64 280.823 381.113 280.823 376.176C280.823 371.239 281.007 367.727 281.375 365.642C281.743 363.526 282.571 362.054 283.859 361.226C285.147 360.398 287.293 359.984 290.299 359.984C293.304 359.984 295.451 360.398 296.739 361.226C298.027 362.054 298.855 363.526 299.223 365.642C299.591 367.727 299.775 371.239 299.775 376.176C299.775 381.113 299.591 384.64 299.223 386.756C298.855 388.841 298.027 390.298 296.739 391.126C295.451 391.954 293.304 392.368 290.299 392.368ZM290.299 389.332C292.261 389.332 293.626 389.102 294.393 388.642C295.159 388.182 295.665 387.093 295.911 385.376C296.156 383.659 296.279 380.592 296.279 376.176C296.279 371.76 296.156 368.693 295.911 366.976C295.665 365.259 295.159 364.17 294.393 363.71C293.626 363.25 292.261 363.02 290.299 363.02C288.336 363.02 286.971 363.25 286.205 363.71C285.438 364.17 284.932 365.259 284.687 366.976C284.441 368.693 284.319 371.76 284.319 376.176C284.319 380.592 284.441 383.659 284.687 385.376C284.932 387.093 285.438 388.182 286.205 388.642C286.971 389.102 288.336 389.332 290.299 389.332ZM317.005 378.292C317.005 376.084 316.898 374.505 316.683 373.554C316.499 372.573 316.131 371.929 315.579 371.622C315.027 371.285 314.123 371.116 312.865 371.116C311.455 371.116 310.427 371.453 309.783 372.128C309.139 372.803 308.741 373.707 308.587 374.842C308.434 375.977 308.357 377.633 308.357 379.81V392H305.091V368.54H307.943L308.127 371.806H308.403C308.771 370.641 309.4 369.751 310.289 369.138C311.209 368.494 312.513 368.172 314.199 368.172C315.917 368.172 317.205 368.479 318.063 369.092C318.953 369.705 319.535 370.641 319.811 371.898C320.118 373.125 320.271 374.888 320.271 377.188V392H317.005V378.292ZM325.935 392V357.822H329.201V392H325.935ZM334.872 361.64V357.822H338.322V361.64H334.872ZM334.964 392V368.54H338.23V392H334.964ZM355.908 378.292C355.908 376.084 355.8 374.505 355.586 373.554C355.402 372.573 355.034 371.929 354.482 371.622C353.93 371.285 353.025 371.116 351.768 371.116C350.357 371.116 349.33 371.453 348.686 372.128C348.042 372.803 347.643 373.707 347.49 374.842C347.336 375.977 347.26 377.633 347.26 379.81V392H343.994V368.54H346.846L347.03 371.806H347.306C347.674 370.641 348.302 369.751 349.192 369.138C350.112 368.494 351.415 368.172 353.102 368.172C354.819 368.172 356.107 368.479 356.966 369.092C357.855 369.705 358.438 370.641 358.714 371.898C359.02 373.125 359.174 374.888 359.174 377.188V392H355.908V378.292ZM379.419 381.328H367.367C367.367 383.812 367.475 385.606 367.689 386.71C367.935 387.783 368.425 388.535 369.161 388.964C369.928 389.363 371.201 389.562 372.979 389.562C375.003 389.562 376.935 389.393 378.775 389.056V391.724C378.07 391.908 377.104 392.061 375.877 392.184C374.651 392.307 373.47 392.368 372.335 392.368C369.851 392.368 368.042 392.015 366.907 391.31C365.773 390.574 365.021 389.393 364.653 387.768C364.285 386.143 364.101 383.659 364.101 380.316C364.101 376.973 364.255 374.505 364.561 372.91C364.868 371.285 365.573 370.089 366.677 369.322C367.812 368.555 369.621 368.172 372.105 368.172C374.436 368.172 376.107 368.54 377.119 369.276C378.131 370.012 378.76 371.162 379.005 372.726C379.281 374.29 379.419 376.805 379.419 380.27V381.328ZM372.059 370.932C370.618 370.932 369.575 371.116 368.931 371.484C368.287 371.852 367.858 372.573 367.643 373.646C367.459 374.689 367.367 376.437 367.367 378.89H376.291V378.338C376.291 376.099 376.169 374.474 375.923 373.462C375.678 372.419 375.264 371.745 374.681 371.438C374.129 371.101 373.255 370.932 372.059 370.932Z" fill="white"/>
<path d="M400.369 534.368C397.579 534.368 395.601 533.969 394.435 533.172C393.27 532.344 392.519 530.887 392.181 528.802C391.844 526.686 391.675 523.144 391.675 518.176C391.675 513.208 391.844 509.681 392.181 507.596C392.519 505.48 393.27 504.023 394.435 503.226C395.601 502.398 397.579 501.984 400.369 501.984C403.221 501.984 405.23 502.398 406.395 503.226C407.561 504.023 408.297 505.449 408.603 507.504C408.91 509.528 409.063 513.085 409.063 518.176C409.063 523.144 408.895 526.686 408.557 528.802C408.22 530.887 407.469 532.344 406.303 533.172C405.138 533.969 403.16 534.368 400.369 534.368ZM400.369 531.332C402.117 531.332 403.313 531.102 403.957 530.642C404.632 530.182 405.077 529.109 405.291 527.422C405.506 525.705 405.613 522.623 405.613 518.176C405.613 513.729 405.506 510.663 405.291 508.976C405.077 507.259 404.632 506.17 403.957 505.71C403.313 505.25 402.117 505.02 400.369 505.02C398.591 505.02 397.364 505.25 396.689 505.71C396.045 506.17 395.616 507.243 395.401 508.93C395.217 510.617 395.125 513.699 395.125 518.176C395.125 522.653 395.217 525.735 395.401 527.422C395.616 529.109 396.045 530.182 396.689 530.642C397.364 531.102 398.591 531.332 400.369 531.332ZM418.787 519.694C417.284 519.694 416.195 519.464 415.521 519.004C414.846 518.544 414.386 517.716 414.141 516.52C413.926 515.324 413.819 513.438 413.819 510.862C413.819 508.286 413.926 506.4 414.141 505.204C414.386 504.008 414.846 503.18 415.521 502.72C416.195 502.229 417.284 501.984 418.787 501.984C420.289 501.984 421.378 502.229 422.053 502.72C422.727 503.18 423.172 504.008 423.387 505.204C423.601 506.4 423.709 508.286 423.709 510.862C423.709 513.469 423.601 515.37 423.387 516.566C423.172 517.731 422.727 518.544 422.053 519.004C421.378 519.464 420.289 519.694 418.787 519.694ZM417.269 534L432.633 502.352H435.025L419.661 534H417.269ZM418.787 517.624C419.615 517.624 420.182 517.501 420.489 517.256C420.826 517.011 421.041 516.443 421.133 515.554C421.255 514.665 421.317 513.101 421.317 510.862C421.317 508.623 421.255 507.059 421.133 506.17C421.041 505.281 420.826 504.713 420.489 504.468C420.182 504.223 419.615 504.1 418.787 504.1C417.959 504.1 417.376 504.223 417.039 504.468C416.701 504.713 416.471 505.281 416.349 506.17C416.257 507.059 416.211 508.623 416.211 510.862C416.211 513.101 416.257 514.665 416.349 515.554C416.471 516.443 416.701 517.011 417.039 517.256C417.376 517.501 417.959 517.624 418.787 517.624ZM433.553 534.368C432.05 534.368 430.961 534.138 430.287 533.678C429.612 533.218 429.167 532.405 428.953 531.24C428.738 530.044 428.631 528.143 428.631 525.536C428.631 522.96 428.738 521.074 428.953 519.878C429.167 518.682 429.612 517.854 430.287 517.394C430.961 516.903 432.05 516.658 433.553 516.658C435.055 516.658 436.144 516.903 436.819 517.394C437.493 517.854 437.938 518.682 438.153 519.878C438.398 521.074 438.521 522.96 438.521 525.536C438.521 528.112 438.398 529.998 438.153 531.194C437.938 532.39 437.493 533.218 436.819 533.678C436.144 534.138 435.055 534.368 433.553 534.368ZM433.553 532.298C434.381 532.298 434.963 532.175 435.301 531.93C435.638 531.685 435.853 531.117 435.945 530.228C436.067 529.339 436.129 527.775 436.129 525.536C436.129 523.297 436.067 521.733 435.945 520.844C435.853 519.955 435.638 519.387 435.301 519.142C434.963 518.897 434.381 518.774 433.553 518.774C432.725 518.774 432.142 518.897 431.805 519.142C431.498 519.387 431.283 519.955 431.161 520.844C431.069 521.733 431.023 523.297 431.023 525.536C431.023 527.775 431.069 529.339 431.161 530.228C431.283 531.117 431.498 531.685 431.805 531.93C432.142 532.175 432.725 532.298 433.553 532.298Z" fill="white"/>
<path d="M699.838 534.368C698.826 534.368 697.676 534.291 696.388 534.138C695.1 534.015 693.934 533.847 692.892 533.632V530.826C695.652 531.163 697.86 531.332 699.516 531.332C700.896 531.332 701.984 531.194 702.782 530.918C703.579 530.642 704.177 530.09 704.576 529.262C705.005 528.434 705.22 527.192 705.22 525.536C705.22 523.297 704.898 521.733 704.254 520.844C703.61 519.924 702.506 519.464 700.942 519.464H696.802V516.474H700.942C702.199 516.474 703.18 516.075 703.886 515.278C704.591 514.45 704.944 512.947 704.944 510.77C704.944 509.114 704.76 507.887 704.392 507.09C704.024 506.262 703.441 505.71 702.644 505.434C701.846 505.158 700.696 505.02 699.194 505.02C698.304 505.02 697.277 505.081 696.112 505.204C694.977 505.296 693.95 505.419 693.03 505.572V502.72C694.011 502.505 695.146 502.337 696.434 502.214C697.722 502.061 698.872 501.984 699.884 501.984C702.03 501.984 703.717 502.275 704.944 502.858C706.201 503.41 707.09 504.299 707.612 505.526C708.164 506.722 708.44 508.317 708.44 510.31C708.44 512.549 708.087 514.251 707.382 515.416C706.707 516.581 705.695 517.348 704.346 517.716V517.9C705.787 518.237 706.86 518.989 707.566 520.154C708.302 521.289 708.67 523.083 708.67 525.536C708.67 527.56 708.424 529.201 707.934 530.458C707.474 531.715 706.6 532.681 705.312 533.356C704.024 534.031 702.199 534.368 699.838 534.368ZM722.095 534.368C719.304 534.368 717.326 533.969 716.161 533.172C714.996 532.344 714.244 530.887 713.907 528.802C713.57 526.686 713.401 523.144 713.401 518.176C713.401 513.208 713.57 509.681 713.907 507.596C714.244 505.48 714.996 504.023 716.161 503.226C717.326 502.398 719.304 501.984 722.095 501.984C724.947 501.984 726.956 502.398 728.121 503.226C729.286 504.023 730.022 505.449 730.329 507.504C730.636 509.528 730.789 513.085 730.789 518.176C730.789 523.144 730.62 526.686 730.283 528.802C729.946 530.887 729.194 532.344 728.029 533.172C726.864 533.969 724.886 534.368 722.095 534.368ZM722.095 531.332C723.843 531.332 725.039 531.102 725.683 530.642C726.358 530.182 726.802 529.109 727.017 527.422C727.232 525.705 727.339 522.623 727.339 518.176C727.339 513.729 727.232 510.663 727.017 508.976C726.802 507.259 726.358 506.17 725.683 505.71C725.039 505.25 723.843 505.02 722.095 505.02C720.316 505.02 719.09 505.25 718.415 505.71C717.771 506.17 717.342 507.243 717.127 508.93C716.943 510.617 716.851 513.699 716.851 518.176C716.851 522.653 716.943 525.735 717.127 527.422C717.342 529.109 717.771 530.182 718.415 530.642C719.09 531.102 720.316 531.332 722.095 531.332ZM740.512 519.694C739.009 519.694 737.921 519.464 737.246 519.004C736.571 518.544 736.111 517.716 735.866 516.52C735.651 515.324 735.544 513.438 735.544 510.862C735.544 508.286 735.651 506.4 735.866 505.204C736.111 504.008 736.571 503.18 737.246 502.72C737.921 502.229 739.009 501.984 740.512 501.984C742.015 501.984 743.103 502.229 743.778 502.72C744.453 503.18 744.897 504.008 745.112 505.204C745.327 506.4 745.434 508.286 745.434 510.862C745.434 513.469 745.327 515.37 745.112 516.566C744.897 517.731 744.453 518.544 743.778 519.004C743.103 519.464 742.015 519.694 740.512 519.694ZM738.994 534L754.358 502.352H756.75L741.386 534H738.994ZM740.512 517.624C741.34 517.624 741.907 517.501 742.214 517.256C742.551 517.011 742.766 516.443 742.858 515.554C742.981 514.665 743.042 513.101 743.042 510.862C743.042 508.623 742.981 507.059 742.858 506.17C742.766 505.281 742.551 504.713 742.214 504.468C741.907 504.223 741.34 504.1 740.512 504.1C739.684 504.1 739.101 504.223 738.764 504.468C738.427 504.713 738.197 505.281 738.074 506.17C737.982 507.059 737.936 508.623 737.936 510.862C737.936 513.101 737.982 514.665 738.074 515.554C738.197 516.443 738.427 517.011 738.764 517.256C739.101 517.501 739.684 517.624 740.512 517.624ZM755.278 534.368C753.775 534.368 752.687 534.138 752.012 533.678C751.337 533.218 750.893 532.405 750.678 531.24C750.463 530.044 750.356 528.143 750.356 525.536C750.356 522.96 750.463 521.074 750.678 519.878C750.893 518.682 751.337 517.854 752.012 517.394C752.687 516.903 753.775 516.658 755.278 516.658C756.781 516.658 757.869 516.903 758.544 517.394C759.219 517.854 759.663 518.682 759.878 519.878C760.123 521.074 760.246 522.96 760.246 525.536C760.246 528.112 760.123 529.998 759.878 531.194C759.663 532.39 759.219 533.218 758.544 533.678C757.869 534.138 756.781 534.368 755.278 534.368ZM755.278 532.298C756.106 532.298 756.689 532.175 757.026 531.93C757.363 531.685 757.578 531.117 757.67 530.228C757.793 529.339 757.854 527.775 757.854 525.536C757.854 523.297 757.793 521.733 757.67 520.844C757.578 519.955 757.363 519.387 757.026 519.142C756.689 518.897 756.106 518.774 755.278 518.774C754.45 518.774 753.867 518.897 753.53 519.142C753.223 519.387 753.009 519.955 752.886 520.844C752.794 521.733 752.748 523.297 752.748 525.536C752.748 527.775 752.794 529.339 752.886 530.228C753.009 531.117 753.223 531.685 753.53 531.93C753.867 532.175 754.45 532.298 755.278 532.298Z" fill="white"/>
<path d="M994.799 534.368C993.081 534.368 991.686 534.23 990.613 533.954C989.539 533.678 988.665 533.172 987.991 532.436C987.316 531.669 986.779 530.565 986.381 529.124C986.135 528.296 985.967 527.054 985.875 525.398C985.783 523.742 985.737 521.442 985.737 518.498C985.737 515.799 985.783 513.591 985.875 511.874C985.997 510.157 986.212 508.777 986.519 507.734C987.101 505.618 988.052 504.131 989.371 503.272C990.72 502.413 992.729 501.984 995.397 501.984C996.317 501.984 997.39 502.061 998.617 502.214C999.843 502.367 1000.95 502.551 1001.93 502.766V505.572C999.782 505.204 997.804 505.02 995.995 505.02C993.909 505.02 992.391 505.342 991.441 505.986C990.521 506.599 989.907 507.734 989.601 509.39C989.325 511.046 989.187 513.745 989.187 517.486H989.417C989.815 516.811 990.459 516.259 991.349 515.83C992.238 515.401 993.603 515.186 995.443 515.186C997.436 515.186 998.969 515.401 1000.04 515.83C1001.12 516.229 1001.9 517.057 1002.39 518.314C1002.91 519.571 1003.17 521.473 1003.17 524.018C1003.17 526.778 1002.96 528.879 1002.53 530.32C1002.1 531.761 1001.28 532.804 1000.09 533.448C998.923 534.061 997.16 534.368 994.799 534.368ZM994.523 531.332C996.056 531.332 997.175 531.194 997.881 530.918C998.586 530.611 999.077 530.029 999.353 529.17C999.659 528.281 999.813 526.855 999.813 524.892C999.813 522.745 999.675 521.227 999.399 520.338C999.153 519.418 998.678 518.835 997.973 518.59C997.298 518.314 996.148 518.176 994.523 518.176C992.928 518.176 991.763 518.345 991.027 518.682C990.321 519.019 989.846 519.556 989.601 520.292C989.386 520.997 989.279 522.101 989.279 523.604C989.279 525.873 989.432 527.56 989.739 528.664C990.045 529.737 990.551 530.458 991.257 530.826C991.993 531.163 993.081 531.332 994.523 531.332ZM1016.31 534.368C1013.52 534.368 1011.54 533.969 1010.37 533.172C1009.21 532.344 1008.46 530.887 1008.12 528.802C1007.78 526.686 1007.61 523.144 1007.61 518.176C1007.61 513.208 1007.78 509.681 1008.12 507.596C1008.46 505.48 1009.21 504.023 1010.37 503.226C1011.54 502.398 1013.52 501.984 1016.31 501.984C1019.16 501.984 1021.17 502.398 1022.33 503.226C1023.5 504.023 1024.24 505.449 1024.54 507.504C1024.85 509.528 1025 513.085 1025 518.176C1025 523.144 1024.83 526.686 1024.5 528.802C1024.16 530.887 1023.41 532.344 1022.24 533.172C1021.08 533.969 1019.1 534.368 1016.31 534.368ZM1016.31 531.332C1018.06 531.332 1019.25 531.102 1019.9 530.642C1020.57 530.182 1021.02 529.109 1021.23 527.422C1021.44 525.705 1021.55 522.623 1021.55 518.176C1021.55 513.729 1021.44 510.663 1021.23 508.976C1021.02 507.259 1020.57 506.17 1019.9 505.71C1019.25 505.25 1018.06 505.02 1016.31 505.02C1014.53 505.02 1013.3 505.25 1012.63 505.71C1011.98 506.17 1011.55 507.243 1011.34 508.93C1011.16 510.617 1011.06 513.699 1011.06 518.176C1011.06 522.653 1011.16 525.735 1011.34 527.422C1011.55 529.109 1011.98 530.182 1012.63 530.642C1013.3 531.102 1014.53 531.332 1016.31 531.332ZM1034.73 519.694C1033.22 519.694 1032.13 519.464 1031.46 519.004C1030.78 518.544 1030.32 517.716 1030.08 516.52C1029.86 515.324 1029.76 513.438 1029.76 510.862C1029.76 508.286 1029.86 506.4 1030.08 505.204C1030.32 504.008 1030.78 503.18 1031.46 502.72C1032.13 502.229 1033.22 501.984 1034.73 501.984C1036.23 501.984 1037.32 502.229 1037.99 502.72C1038.67 503.18 1039.11 504.008 1039.33 505.204C1039.54 506.4 1039.65 508.286 1039.65 510.862C1039.65 513.469 1039.54 515.37 1039.33 516.566C1039.11 517.731 1038.67 518.544 1037.99 519.004C1037.32 519.464 1036.23 519.694 1034.73 519.694ZM1033.21 534L1048.57 502.352H1050.96L1035.6 534H1033.21ZM1034.73 517.624C1035.55 517.624 1036.12 517.501 1036.43 517.256C1036.76 517.011 1036.98 516.443 1037.07 515.554C1037.19 514.665 1037.26 513.101 1037.26 510.862C1037.26 508.623 1037.19 507.059 1037.07 506.17C1036.98 505.281 1036.76 504.713 1036.43 504.468C1036.12 504.223 1035.55 504.1 1034.73 504.1C1033.9 504.1 1033.31 504.223 1032.98 504.468C1032.64 504.713 1032.41 505.281 1032.29 506.17C1032.2 507.059 1032.15 508.623 1032.15 510.862C1032.15 513.101 1032.2 514.665 1032.29 515.554C1032.41 516.443 1032.64 517.011 1032.98 517.256C1033.31 517.501 1033.9 517.624 1034.73 517.624ZM1049.49 534.368C1047.99 534.368 1046.9 534.138 1046.23 533.678C1045.55 533.218 1045.11 532.405 1044.89 531.24C1044.68 530.044 1044.57 528.143 1044.57 525.536C1044.57 522.96 1044.68 521.074 1044.89 519.878C1045.11 518.682 1045.55 517.854 1046.23 517.394C1046.9 516.903 1047.99 516.658 1049.49 516.658C1050.99 516.658 1052.08 516.903 1052.76 517.394C1053.43 517.854 1053.88 518.682 1054.09 519.878C1054.34 521.074 1054.46 522.96 1054.46 525.536C1054.46 528.112 1054.34 529.998 1054.09 531.194C1053.88 532.39 1053.43 533.218 1052.76 533.678C1052.08 534.138 1050.99 534.368 1049.49 534.368ZM1049.49 532.298C1050.32 532.298 1050.9 532.175 1051.24 531.93C1051.58 531.685 1051.79 531.117 1051.88 530.228C1052.01 529.339 1052.07 527.775 1052.07 525.536C1052.07 523.297 1052.01 521.733 1051.88 520.844C1051.79 519.955 1051.58 519.387 1051.24 519.142C1050.9 518.897 1050.32 518.774 1049.49 518.774C1048.66 518.774 1048.08 518.897 1047.74 519.142C1047.44 519.387 1047.22 519.955 1047.1 520.844C1047.01 521.733 1046.96 523.297 1046.96 525.536C1046.96 527.775 1047.01 529.339 1047.1 530.228C1047.22 531.117 1047.44 531.685 1047.74 531.93C1048.08 532.175 1048.66 532.298 1049.49 532.298Z" fill="white"/>
<path d="M1285.1 534.368C1284.18 534.368 1283.09 534.291 1281.83 534.138C1280.6 533.985 1279.52 533.801 1278.56 533.586V530.78C1280.71 531.148 1282.69 531.332 1284.5 531.332C1286.58 531.332 1288.09 531.025 1289.01 530.412C1289.96 529.768 1290.57 528.618 1290.85 526.962C1291.15 525.306 1291.31 522.607 1291.31 518.866H1291.08C1290.68 519.541 1290.03 520.093 1289.14 520.522C1288.26 520.951 1286.89 521.166 1285.05 521.166C1283.06 521.166 1281.52 520.967 1280.45 520.568C1279.38 520.139 1278.58 519.295 1278.06 518.038C1277.57 516.781 1277.32 514.879 1277.32 512.334C1277.32 509.574 1277.54 507.473 1277.97 506.032C1278.4 504.591 1279.21 503.563 1280.4 502.95C1281.6 502.306 1283.36 501.984 1285.69 501.984C1287.44 501.984 1288.85 502.122 1289.93 502.398C1291.03 502.674 1291.9 503.165 1292.55 503.87C1293.22 504.575 1293.74 505.603 1294.11 506.952C1294.36 507.964 1294.53 509.313 1294.62 511C1294.71 512.687 1294.76 514.971 1294.76 517.854C1294.76 520.89 1294.7 523.328 1294.57 525.168C1294.45 526.977 1294.19 528.403 1293.79 529.446C1293.12 531.255 1292.1 532.528 1290.75 533.264C1289.44 534 1287.55 534.368 1285.1 534.368ZM1285.97 518.176C1287.57 518.176 1288.72 518.007 1289.42 517.67C1290.16 517.333 1290.63 516.811 1290.85 516.106C1291.09 515.37 1291.21 514.251 1291.21 512.748C1291.21 510.479 1291.06 508.807 1290.75 507.734C1290.45 506.63 1289.93 505.909 1289.19 505.572C1288.49 505.204 1287.41 505.02 1285.97 505.02C1284.44 505.02 1283.32 505.173 1282.61 505.48C1281.91 505.756 1281.42 506.339 1281.14 507.228C1280.86 508.087 1280.73 509.497 1280.73 511.46C1280.73 513.607 1280.85 515.14 1281.09 516.06C1281.37 516.949 1281.85 517.532 1282.52 517.808C1283.2 518.053 1284.35 518.176 1285.97 518.176ZM1308.31 534.368C1305.52 534.368 1303.54 533.969 1302.37 533.172C1301.21 532.344 1300.46 530.887 1300.12 528.802C1299.78 526.686 1299.61 523.144 1299.61 518.176C1299.61 513.208 1299.78 509.681 1300.12 507.596C1300.46 505.48 1301.21 504.023 1302.37 503.226C1303.54 502.398 1305.52 501.984 1308.31 501.984C1311.16 501.984 1313.17 502.398 1314.33 503.226C1315.5 504.023 1316.24 505.449 1316.54 507.504C1316.85 509.528 1317 513.085 1317 518.176C1317 523.144 1316.83 526.686 1316.5 528.802C1316.16 530.887 1315.41 532.344 1314.24 533.172C1313.08 533.969 1311.1 534.368 1308.31 534.368ZM1308.31 531.332C1310.06 531.332 1311.25 531.102 1311.9 530.642C1312.57 530.182 1313.02 529.109 1313.23 527.422C1313.44 525.705 1313.55 522.623 1313.55 518.176C1313.55 513.729 1313.44 510.663 1313.23 508.976C1313.02 507.259 1312.57 506.17 1311.9 505.71C1311.25 505.25 1310.06 505.02 1308.31 505.02C1306.53 505.02 1305.3 505.25 1304.63 505.71C1303.98 506.17 1303.55 507.243 1303.34 508.93C1303.16 510.617 1303.06 513.699 1303.06 518.176C1303.06 522.653 1303.16 525.735 1303.34 527.422C1303.55 529.109 1303.98 530.182 1304.63 530.642C1305.3 531.102 1306.53 531.332 1308.31 531.332ZM1326.73 519.694C1325.22 519.694 1324.13 519.464 1323.46 519.004C1322.78 518.544 1322.32 517.716 1322.08 516.52C1321.86 515.324 1321.76 513.438 1321.76 510.862C1321.76 508.286 1321.86 506.4 1322.08 505.204C1322.32 504.008 1322.78 503.18 1323.46 502.72C1324.13 502.229 1325.22 501.984 1326.73 501.984C1328.23 501.984 1329.32 502.229 1329.99 502.72C1330.67 503.18 1331.11 504.008 1331.33 505.204C1331.54 506.4 1331.65 508.286 1331.65 510.862C1331.65 513.469 1331.54 515.37 1331.33 516.566C1331.11 517.731 1330.67 518.544 1329.99 519.004C1329.32 519.464 1328.23 519.694 1326.73 519.694ZM1325.21 534L1340.57 502.352H1342.96L1327.6 534H1325.21ZM1326.73 517.624C1327.55 517.624 1328.12 517.501 1328.43 517.256C1328.76 517.011 1328.98 516.443 1329.07 515.554C1329.19 514.665 1329.26 513.101 1329.26 510.862C1329.26 508.623 1329.19 507.059 1329.07 506.17C1328.98 505.281 1328.76 504.713 1328.43 504.468C1328.12 504.223 1327.55 504.1 1326.73 504.1C1325.9 504.1 1325.31 504.223 1324.98 504.468C1324.64 504.713 1324.41 505.281 1324.29 506.17C1324.2 507.059 1324.15 508.623 1324.15 510.862C1324.15 513.101 1324.2 514.665 1324.29 515.554C1324.41 516.443 1324.64 517.011 1324.98 517.256C1325.31 517.501 1325.9 517.624 1326.73 517.624ZM1341.49 534.368C1339.99 534.368 1338.9 534.138 1338.23 533.678C1337.55 533.218 1337.11 532.405 1336.89 531.24C1336.68 530.044 1336.57 528.143 1336.57 525.536C1336.57 522.96 1336.68 521.074 1336.89 519.878C1337.11 518.682 1337.55 517.854 1338.23 517.394C1338.9 516.903 1339.99 516.658 1341.49 516.658C1342.99 516.658 1344.08 516.903 1344.76 517.394C1345.43 517.854 1345.88 518.682 1346.09 519.878C1346.34 521.074 1346.46 522.96 1346.46 525.536C1346.46 528.112 1346.34 529.998 1346.09 531.194C1345.88 532.39 1345.43 533.218 1344.76 533.678C1344.08 534.138 1342.99 534.368 1341.49 534.368ZM1341.49 532.298C1342.32 532.298 1342.9 532.175 1343.24 531.93C1343.58 531.685 1343.79 531.117 1343.88 530.228C1344.01 529.339 1344.07 527.775 1344.07 525.536C1344.07 523.297 1344.01 521.733 1343.88 520.844C1343.79 519.955 1343.58 519.387 1343.24 519.142C1342.9 518.897 1342.32 518.774 1341.49 518.774C1340.66 518.774 1340.08 518.897 1339.74 519.142C1339.44 519.387 1339.22 519.955 1339.1 520.844C1339.01 521.733 1338.96 523.297 1338.96 525.536C1338.96 527.775 1339.01 529.339 1339.1 530.228C1339.22 531.117 1339.44 531.685 1339.74 531.93C1340.08 532.175 1340.66 532.298 1341.49 532.298Z" fill="white"/>
<path d="M489.63 534V506.538L485.214 508.746V505.526L490.596 502.352H493.08V534H489.63ZM507.681 534.368C504.89 534.368 502.912 533.969 501.747 533.172C500.581 532.344 499.83 530.887 499.493 528.802C499.155 526.686 498.987 523.144 498.987 518.176C498.987 513.208 499.155 509.681 499.493 507.596C499.83 505.48 500.581 504.023 501.747 503.226C502.912 502.398 504.89 501.984 507.681 501.984C510.533 501.984 512.541 502.398 513.707 503.226C514.872 504.023 515.608 505.449 515.915 507.504C516.221 509.528 516.375 513.085 516.375 518.176C516.375 523.144 516.206 526.686 515.869 528.802C515.531 530.887 514.78 532.344 513.615 533.172C512.449 533.969 510.471 534.368 507.681 534.368ZM507.681 531.332C509.429 531.332 510.625 531.102 511.269 530.642C511.943 530.182 512.388 529.109 512.603 527.422C512.817 525.705 512.925 522.623 512.925 518.176C512.925 513.729 512.817 510.663 512.603 508.976C512.388 507.259 511.943 506.17 511.269 505.71C510.625 505.25 509.429 505.02 507.681 505.02C505.902 505.02 504.675 505.25 504.001 505.71C503.357 506.17 502.927 507.243 502.713 508.93C502.529 510.617 502.437 513.699 502.437 518.176C502.437 522.653 502.529 525.735 502.713 527.422C502.927 529.109 503.357 530.182 504.001 530.642C504.675 531.102 505.902 531.332 507.681 531.332ZM526.098 519.694C524.595 519.694 523.507 519.464 522.832 519.004C522.157 518.544 521.697 517.716 521.452 516.52C521.237 515.324 521.13 513.438 521.13 510.862C521.13 508.286 521.237 506.4 521.452 505.204C521.697 504.008 522.157 503.18 522.832 502.72C523.507 502.229 524.595 501.984 526.098 501.984C527.601 501.984 528.689 502.229 529.364 502.72C530.039 503.18 530.483 504.008 530.698 505.204C530.913 506.4 531.02 508.286 531.02 510.862C531.02 513.469 530.913 515.37 530.698 516.566C530.483 517.731 530.039 518.544 529.364 519.004C528.689 519.464 527.601 519.694 526.098 519.694ZM524.58 534L539.944 502.352H542.336L526.972 534H524.58ZM526.098 517.624C526.926 517.624 527.493 517.501 527.8 517.256C528.137 517.011 528.352 516.443 528.444 515.554C528.567 514.665 528.628 513.101 528.628 510.862C528.628 508.623 528.567 507.059 528.444 506.17C528.352 505.281 528.137 504.713 527.8 504.468C527.493 504.223 526.926 504.1 526.098 504.1C525.27 504.1 524.687 504.223 524.35 504.468C524.013 504.713 523.783 505.281 523.66 506.17C523.568 507.059 523.522 508.623 523.522 510.862C523.522 513.101 523.568 514.665 523.66 515.554C523.783 516.443 524.013 517.011 524.35 517.256C524.687 517.501 525.27 517.624 526.098 517.624ZM540.864 534.368C539.361 534.368 538.273 534.138 537.598 533.678C536.923 533.218 536.479 532.405 536.264 531.24C536.049 530.044 535.942 528.143 535.942 525.536C535.942 522.96 536.049 521.074 536.264 519.878C536.479 518.682 536.923 517.854 537.598 517.394C538.273 516.903 539.361 516.658 540.864 516.658C542.367 516.658 543.455 516.903 544.13 517.394C544.805 517.854 545.249 518.682 545.464 519.878C545.709 521.074 545.832 522.96 545.832 525.536C545.832 528.112 545.709 529.998 545.464 531.194C545.249 532.39 544.805 533.218 544.13 533.678C543.455 534.138 542.367 534.368 540.864 534.368ZM540.864 532.298C541.692 532.298 542.275 532.175 542.612 531.93C542.949 531.685 543.164 531.117 543.256 530.228C543.379 529.339 543.44 527.775 543.44 525.536C543.44 523.297 543.379 521.733 543.256 520.844C543.164 519.955 542.949 519.387 542.612 519.142C542.275 518.897 541.692 518.774 540.864 518.774C540.036 518.774 539.453 518.897 539.116 519.142C538.809 519.387 538.595 519.955 538.472 520.844C538.38 521.733 538.334 523.297 538.334 525.536C538.334 527.775 538.38 529.339 538.472 530.228C538.595 531.117 538.809 531.685 539.116 531.93C539.453 532.175 540.036 532.298 540.864 532.298Z" fill="white"/>
<path d="M804.681 534V526.502H792.951V523.788L801.323 502.352H804.957L796.585 523.466H804.727L805.371 511.736H808.131V523.466H811.443V526.502H808.131V534H804.681ZM824.128 534.368C821.337 534.368 819.359 533.969 818.194 533.172C817.029 532.344 816.277 530.887 815.94 528.802C815.603 526.686 815.434 523.144 815.434 518.176C815.434 513.208 815.603 509.681 815.94 507.596C816.277 505.48 817.029 504.023 818.194 503.226C819.359 502.398 821.337 501.984 824.128 501.984C826.98 501.984 828.989 502.398 830.154 503.226C831.319 504.023 832.055 505.449 832.362 507.504C832.669 509.528 832.822 513.085 832.822 518.176C832.822 523.144 832.653 526.686 832.316 528.802C831.979 530.887 831.227 532.344 830.062 533.172C828.897 533.969 826.919 534.368 824.128 534.368ZM824.128 531.332C825.876 531.332 827.072 531.102 827.716 530.642C828.391 530.182 828.835 529.109 829.05 527.422C829.265 525.705 829.372 522.623 829.372 518.176C829.372 513.729 829.265 510.663 829.05 508.976C828.835 507.259 828.391 506.17 827.716 505.71C827.072 505.25 825.876 505.02 824.128 505.02C822.349 505.02 821.123 505.25 820.448 505.71C819.804 506.17 819.375 507.243 819.16 508.93C818.976 510.617 818.884 513.699 818.884 518.176C818.884 522.653 818.976 525.735 819.16 527.422C819.375 529.109 819.804 530.182 820.448 530.642C821.123 531.102 822.349 531.332 824.128 531.332ZM842.545 519.694C841.043 519.694 839.954 519.464 839.279 519.004C838.605 518.544 838.145 517.716 837.899 516.52C837.685 515.324 837.577 513.438 837.577 510.862C837.577 508.286 837.685 506.4 837.899 505.204C838.145 504.008 838.605 503.18 839.279 502.72C839.954 502.229 841.043 501.984 842.545 501.984C844.048 501.984 845.137 502.229 845.811 502.72C846.486 503.18 846.931 504.008 847.145 505.204C847.36 506.4 847.467 508.286 847.467 510.862C847.467 513.469 847.36 515.37 847.145 516.566C846.931 517.731 846.486 518.544 845.811 519.004C845.137 519.464 844.048 519.694 842.545 519.694ZM841.027 534L856.391 502.352H858.783L843.419 534H841.027ZM842.545 517.624C843.373 517.624 843.941 517.501 844.247 517.256C844.585 517.011 844.799 516.443 844.891 515.554C845.014 514.665 845.075 513.101 845.075 510.862C845.075 508.623 845.014 507.059 844.891 506.17C844.799 505.281 844.585 504.713 844.247 504.468C843.941 504.223 843.373 504.1 842.545 504.1C841.717 504.1 841.135 504.223 840.797 504.468C840.46 504.713 840.23 505.281 840.107 506.17C840.015 507.059 839.969 508.623 839.969 510.862C839.969 513.101 840.015 514.665 840.107 515.554C840.23 516.443 840.46 517.011 840.797 517.256C841.135 517.501 841.717 517.624 842.545 517.624ZM857.311 534.368C855.809 534.368 854.72 534.138 854.045 533.678C853.371 533.218 852.926 532.405 852.711 531.24C852.497 530.044 852.389 528.143 852.389 525.536C852.389 522.96 852.497 521.074 852.711 519.878C852.926 518.682 853.371 517.854 854.045 517.394C854.72 516.903 855.809 516.658 857.311 516.658C858.814 516.658 859.903 516.903 860.577 517.394C861.252 517.854 861.697 518.682 861.911 519.878C862.157 521.074 862.279 522.96 862.279 525.536C862.279 528.112 862.157 529.998 861.911 531.194C861.697 532.39 861.252 533.218 860.577 533.678C859.903 534.138 858.814 534.368 857.311 534.368ZM857.311 532.298C858.139 532.298 858.722 532.175 859.059 531.93C859.397 531.685 859.611 531.117 859.703 530.228C859.826 529.339 859.887 527.775 859.887 525.536C859.887 523.297 859.826 521.733 859.703 520.844C859.611 519.955 859.397 519.387 859.059 519.142C858.722 518.897 858.139 518.774 857.311 518.774C856.483 518.774 855.901 518.897 855.563 519.142C855.257 519.387 855.042 519.955 854.919 520.844C854.827 521.733 854.781 523.297 854.781 525.536C854.781 527.775 854.827 529.339 854.919 530.228C855.042 531.117 855.257 531.685 855.563 531.93C855.901 532.175 856.483 532.298 857.311 532.298Z" fill="white"/>
<path d="M1082.01 534L1091.48 505.388H1079.11V502.352H1095.12V505.066L1085.69 534H1082.01ZM1107.65 534.368C1104.86 534.368 1102.88 533.969 1101.71 533.172C1100.55 532.344 1099.8 530.887 1099.46 528.802C1099.12 526.686 1098.95 523.144 1098.95 518.176C1098.95 513.208 1099.12 509.681 1099.46 507.596C1099.8 505.48 1100.55 504.023 1101.71 503.226C1102.88 502.398 1104.86 501.984 1107.65 501.984C1110.5 501.984 1112.51 502.398 1113.67 503.226C1114.84 504.023 1115.57 505.449 1115.88 507.504C1116.19 509.528 1116.34 513.085 1116.34 518.176C1116.34 523.144 1116.17 526.686 1115.83 528.802C1115.5 530.887 1114.75 532.344 1113.58 533.172C1112.41 533.969 1110.44 534.368 1107.65 534.368ZM1107.65 531.332C1109.39 531.332 1110.59 531.102 1111.23 530.642C1111.91 530.182 1112.35 529.109 1112.57 527.422C1112.78 525.705 1112.89 522.623 1112.89 518.176C1112.89 513.729 1112.78 510.663 1112.57 508.976C1112.35 507.259 1111.91 506.17 1111.23 505.71C1110.59 505.25 1109.39 505.02 1107.65 505.02C1105.87 505.02 1104.64 505.25 1103.97 505.71C1103.32 506.17 1102.89 507.243 1102.68 508.93C1102.49 510.617 1102.4 513.699 1102.4 518.176C1102.4 522.653 1102.49 525.735 1102.68 527.422C1102.89 529.109 1103.32 530.182 1103.97 530.642C1104.64 531.102 1105.87 531.332 1107.65 531.332ZM1126.06 519.694C1124.56 519.694 1123.47 519.464 1122.8 519.004C1122.12 518.544 1121.66 517.716 1121.42 516.52C1121.2 515.324 1121.09 513.438 1121.09 510.862C1121.09 508.286 1121.2 506.4 1121.42 505.204C1121.66 504.008 1122.12 503.18 1122.8 502.72C1123.47 502.229 1124.56 501.984 1126.06 501.984C1127.57 501.984 1128.65 502.229 1129.33 502.72C1130 503.18 1130.45 504.008 1130.66 505.204C1130.88 506.4 1130.98 508.286 1130.98 510.862C1130.98 513.469 1130.88 515.37 1130.66 516.566C1130.45 517.731 1130 518.544 1129.33 519.004C1128.65 519.464 1127.57 519.694 1126.06 519.694ZM1124.54 534L1139.91 502.352H1142.3L1126.94 534H1124.54ZM1126.06 517.624C1126.89 517.624 1127.46 517.501 1127.76 517.256C1128.1 517.011 1128.32 516.443 1128.41 515.554C1128.53 514.665 1128.59 513.101 1128.59 510.862C1128.59 508.623 1128.53 507.059 1128.41 506.17C1128.32 505.281 1128.1 504.713 1127.76 504.468C1127.46 504.223 1126.89 504.1 1126.06 504.1C1125.23 504.1 1124.65 504.223 1124.31 504.468C1123.98 504.713 1123.75 505.281 1123.62 506.17C1123.53 507.059 1123.49 508.623 1123.49 510.862C1123.49 513.101 1123.53 514.665 1123.62 515.554C1123.75 516.443 1123.98 517.011 1124.31 517.256C1124.65 517.501 1125.23 517.624 1126.06 517.624ZM1140.83 534.368C1139.33 534.368 1138.24 534.138 1137.56 533.678C1136.89 533.218 1136.44 532.405 1136.23 531.24C1136.01 530.044 1135.91 528.143 1135.91 525.536C1135.91 522.96 1136.01 521.074 1136.23 519.878C1136.44 518.682 1136.89 517.854 1137.56 517.394C1138.24 516.903 1139.33 516.658 1140.83 516.658C1142.33 516.658 1143.42 516.903 1144.09 517.394C1144.77 517.854 1145.21 518.682 1145.43 519.878C1145.67 521.074 1145.8 522.96 1145.8 525.536C1145.8 528.112 1145.67 529.998 1145.43 531.194C1145.21 532.39 1144.77 533.218 1144.09 533.678C1143.42 534.138 1142.33 534.368 1140.83 534.368ZM1140.83 532.298C1141.66 532.298 1142.24 532.175 1142.58 531.93C1142.91 531.685 1143.13 531.117 1143.22 530.228C1143.34 529.339 1143.4 527.775 1143.4 525.536C1143.4 523.297 1143.34 521.733 1143.22 520.844C1143.13 519.955 1142.91 519.387 1142.58 519.142C1142.24 518.897 1141.66 518.774 1140.83 518.774C1140 518.774 1139.42 518.897 1139.08 519.142C1138.77 519.387 1138.56 519.955 1138.44 520.844C1138.34 521.733 1138.3 523.297 1138.3 525.536C1138.3 527.775 1138.34 529.339 1138.44 530.228C1138.56 531.117 1138.77 531.685 1139.08 531.93C1139.42 532.175 1140 532.298 1140.83 532.298Z" fill="white"/>
<path d="M1375.49 534V506.538L1371.07 508.746V505.526L1376.46 502.352H1378.94V534H1375.49ZM1393.54 534.368C1390.75 534.368 1388.77 533.969 1387.61 533.172C1386.44 532.344 1385.69 530.887 1385.35 528.802C1385.01 526.686 1384.85 523.144 1384.85 518.176C1384.85 513.208 1385.01 509.681 1385.35 507.596C1385.69 505.48 1386.44 504.023 1387.61 503.226C1388.77 502.398 1390.75 501.984 1393.54 501.984C1396.39 501.984 1398.4 502.398 1399.57 503.226C1400.73 504.023 1401.47 505.449 1401.77 507.504C1402.08 509.528 1402.23 513.085 1402.23 518.176C1402.23 523.144 1402.07 526.686 1401.73 528.802C1401.39 530.887 1400.64 532.344 1399.47 533.172C1398.31 533.969 1396.33 534.368 1393.54 534.368ZM1393.54 531.332C1395.29 531.332 1396.48 531.102 1397.13 530.642C1397.8 530.182 1398.25 529.109 1398.46 527.422C1398.68 525.705 1398.78 522.623 1398.78 518.176C1398.78 513.729 1398.68 510.663 1398.46 508.976C1398.25 507.259 1397.8 506.17 1397.13 505.71C1396.48 505.25 1395.29 505.02 1393.54 505.02C1391.76 505.02 1390.53 505.25 1389.86 505.71C1389.22 506.17 1388.79 507.243 1388.57 508.93C1388.39 510.617 1388.3 513.699 1388.3 518.176C1388.3 522.653 1388.39 525.735 1388.57 527.422C1388.79 529.109 1389.22 530.182 1389.86 530.642C1390.53 531.102 1391.76 531.332 1393.54 531.332ZM1415.82 534.368C1413.03 534.368 1411.05 533.969 1409.89 533.172C1408.72 532.344 1407.97 530.887 1407.63 528.802C1407.3 526.686 1407.13 523.144 1407.13 518.176C1407.13 513.208 1407.3 509.681 1407.63 507.596C1407.97 505.48 1408.72 504.023 1409.89 503.226C1411.05 502.398 1413.03 501.984 1415.82 501.984C1418.67 501.984 1420.68 502.398 1421.85 503.226C1423.01 504.023 1423.75 505.449 1424.06 507.504C1424.36 509.528 1424.52 513.085 1424.52 518.176C1424.52 523.144 1424.35 526.686 1424.01 528.802C1423.67 530.887 1422.92 532.344 1421.76 533.172C1420.59 533.969 1418.61 534.368 1415.82 534.368ZM1415.82 531.332C1417.57 531.332 1418.77 531.102 1419.41 530.642C1420.08 530.182 1420.53 529.109 1420.74 527.422C1420.96 525.705 1421.07 522.623 1421.07 518.176C1421.07 513.729 1420.96 510.663 1420.74 508.976C1420.53 507.259 1420.08 506.17 1419.41 505.71C1418.77 505.25 1417.57 505.02 1415.82 505.02C1414.04 505.02 1412.82 505.25 1412.14 505.71C1411.5 506.17 1411.07 507.243 1410.85 508.93C1410.67 510.617 1410.58 513.699 1410.58 518.176C1410.58 522.653 1410.67 525.735 1410.85 527.422C1411.07 529.109 1411.5 530.182 1412.14 530.642C1412.82 531.102 1414.04 531.332 1415.82 531.332ZM1434.24 519.694C1432.74 519.694 1431.65 519.464 1430.97 519.004C1430.3 518.544 1429.84 517.716 1429.59 516.52C1429.38 515.324 1429.27 513.438 1429.27 510.862C1429.27 508.286 1429.38 506.4 1429.59 505.204C1429.84 504.008 1430.3 503.18 1430.97 502.72C1431.65 502.229 1432.74 501.984 1434.24 501.984C1435.74 501.984 1436.83 502.229 1437.5 502.72C1438.18 503.18 1438.62 504.008 1438.84 505.204C1439.05 506.4 1439.16 508.286 1439.16 510.862C1439.16 513.469 1439.05 515.37 1438.84 516.566C1438.62 517.731 1438.18 518.544 1437.5 519.004C1436.83 519.464 1435.74 519.694 1434.24 519.694ZM1432.72 534L1448.08 502.352H1450.48L1435.11 534H1432.72ZM1434.24 517.624C1435.07 517.624 1435.63 517.501 1435.94 517.256C1436.28 517.011 1436.49 516.443 1436.58 515.554C1436.71 514.665 1436.77 513.101 1436.77 510.862C1436.77 508.623 1436.71 507.059 1436.58 506.17C1436.49 505.281 1436.28 504.713 1435.94 504.468C1435.63 504.223 1435.07 504.1 1434.24 504.1C1433.41 504.1 1432.83 504.223 1432.49 504.468C1432.15 504.713 1431.92 505.281 1431.8 506.17C1431.71 507.059 1431.66 508.623 1431.66 510.862C1431.66 513.101 1431.71 514.665 1431.8 515.554C1431.92 516.443 1432.15 517.011 1432.49 517.256C1432.83 517.501 1433.41 517.624 1434.24 517.624ZM1449 534.368C1447.5 534.368 1446.41 534.138 1445.74 533.678C1445.06 533.218 1444.62 532.405 1444.4 531.24C1444.19 530.044 1444.08 528.143 1444.08 525.536C1444.08 522.96 1444.19 521.074 1444.4 519.878C1444.62 518.682 1445.06 517.854 1445.74 517.394C1446.41 516.903 1447.5 516.658 1449 516.658C1450.51 516.658 1451.6 516.903 1452.27 517.394C1452.95 517.854 1453.39 518.682 1453.6 519.878C1453.85 521.074 1453.97 522.96 1453.97 525.536C1453.97 528.112 1453.85 529.998 1453.6 531.194C1453.39 532.39 1452.95 533.218 1452.27 533.678C1451.6 534.138 1450.51 534.368 1449 534.368ZM1449 532.298C1449.83 532.298 1450.42 532.175 1450.75 531.93C1451.09 531.685 1451.3 531.117 1451.4 530.228C1451.52 529.339 1451.58 527.775 1451.58 525.536C1451.58 523.297 1451.52 521.733 1451.4 520.844C1451.3 519.955 1451.09 519.387 1450.75 519.142C1450.42 518.897 1449.83 518.774 1449 518.774C1448.18 518.774 1447.59 518.897 1447.26 519.142C1446.95 519.387 1446.74 519.955 1446.61 520.844C1446.52 521.733 1446.47 523.297 1446.47 525.536C1446.47 527.775 1446.52 529.339 1446.61 530.228C1446.74 531.117 1446.95 531.685 1447.26 531.93C1447.59 532.175 1448.18 532.298 1449 532.298Z" fill="white"/>
<path d="M585.694 530.964H598.16V534H582.336V530.366C582.336 527.698 582.397 525.797 582.52 524.662C582.642 523.497 582.964 522.546 583.486 521.81C584.007 521.043 584.896 520.307 586.154 519.602C587.227 518.927 589.22 517.731 592.134 516.014C593.207 515.401 593.897 514.711 594.204 513.944C594.541 513.177 594.71 511.997 594.71 510.402C594.71 508.869 594.556 507.734 594.25 506.998C593.974 506.231 593.468 505.71 592.732 505.434C592.026 505.158 590.953 505.02 589.512 505.02C587.794 505.02 585.556 505.189 582.796 505.526V502.72C583.716 502.505 584.881 502.337 586.292 502.214C587.733 502.061 589.098 501.984 590.386 501.984C592.103 501.984 593.498 502.168 594.572 502.536C595.676 502.873 596.55 503.625 597.194 504.79C597.838 505.955 598.16 507.688 598.16 509.988C598.16 511.736 598.022 513.147 597.746 514.22C597.5 515.263 597.086 516.121 596.504 516.796C595.952 517.44 595.17 518.053 594.158 518.636L587.58 522.454C586.844 522.883 586.353 523.374 586.108 523.926C585.924 524.325 585.801 524.877 585.74 525.582C585.709 526.257 585.694 527.284 585.694 528.664V530.964ZM611.387 534.368C608.596 534.368 606.618 533.969 605.453 533.172C604.288 532.344 603.536 530.887 603.199 528.802C602.862 526.686 602.693 523.144 602.693 518.176C602.693 513.208 602.862 509.681 603.199 507.596C603.536 505.48 604.288 504.023 605.453 503.226C606.618 502.398 608.596 501.984 611.387 501.984C614.239 501.984 616.248 502.398 617.413 503.226C618.578 504.023 619.314 505.449 619.621 507.504C619.928 509.528 620.081 513.085 620.081 518.176C620.081 523.144 619.912 526.686 619.575 528.802C619.238 530.887 618.486 532.344 617.321 533.172C616.156 533.969 614.178 534.368 611.387 534.368ZM611.387 531.332C613.135 531.332 614.331 531.102 614.975 530.642C615.65 530.182 616.094 529.109 616.309 527.422C616.524 525.705 616.631 522.623 616.631 518.176C616.631 513.729 616.524 510.663 616.309 508.976C616.094 507.259 615.65 506.17 614.975 505.71C614.331 505.25 613.135 505.02 611.387 505.02C609.608 505.02 608.382 505.25 607.707 505.71C607.063 506.17 606.634 507.243 606.419 508.93C606.235 510.617 606.143 513.699 606.143 518.176C606.143 522.653 606.235 525.735 606.419 527.422C606.634 529.109 607.063 530.182 607.707 530.642C608.382 531.102 609.608 531.332 611.387 531.332ZM629.804 519.694C628.301 519.694 627.213 519.464 626.538 519.004C625.863 518.544 625.403 517.716 625.158 516.52C624.943 515.324 624.836 513.438 624.836 510.862C624.836 508.286 624.943 506.4 625.158 505.204C625.403 504.008 625.863 503.18 626.538 502.72C627.213 502.229 628.301 501.984 629.804 501.984C631.307 501.984 632.395 502.229 633.07 502.72C633.745 503.18 634.189 504.008 634.404 505.204C634.619 506.4 634.726 508.286 634.726 510.862C634.726 513.469 634.619 515.37 634.404 516.566C634.189 517.731 633.745 518.544 633.07 519.004C632.395 519.464 631.307 519.694 629.804 519.694ZM628.286 534L643.65 502.352H646.042L630.678 534H628.286ZM629.804 517.624C630.632 517.624 631.199 517.501 631.506 517.256C631.843 517.011 632.058 516.443 632.15 515.554C632.273 514.665 632.334 513.101 632.334 510.862C632.334 508.623 632.273 507.059 632.15 506.17C632.058 505.281 631.843 504.713 631.506 504.468C631.199 504.223 630.632 504.1 629.804 504.1C628.976 504.1 628.393 504.223 628.056 504.468C627.719 504.713 627.489 505.281 627.366 506.17C627.274 507.059 627.228 508.623 627.228 510.862C627.228 513.101 627.274 514.665 627.366 515.554C627.489 516.443 627.719 517.011 628.056 517.256C628.393 517.501 628.976 517.624 629.804 517.624ZM644.57 534.368C643.067 534.368 641.979 534.138 641.304 533.678C640.629 533.218 640.185 532.405 639.97 531.24C639.755 530.044 639.648 528.143 639.648 525.536C639.648 522.96 639.755 521.074 639.97 519.878C640.185 518.682 640.629 517.854 641.304 517.394C641.979 516.903 643.067 516.658 644.57 516.658C646.073 516.658 647.161 516.903 647.836 517.394C648.511 517.854 648.955 518.682 649.17 519.878C649.415 521.074 649.538 522.96 649.538 525.536C649.538 528.112 649.415 529.998 649.17 531.194C648.955 532.39 648.511 533.218 647.836 533.678C647.161 534.138 646.073 534.368 644.57 534.368ZM644.57 532.298C645.398 532.298 645.981 532.175 646.318 531.93C646.655 531.685 646.87 531.117 646.962 530.228C647.085 529.339 647.146 527.775 647.146 525.536C647.146 523.297 647.085 521.733 646.962 520.844C646.87 519.955 646.655 519.387 646.318 519.142C645.981 518.897 645.398 518.774 644.57 518.774C643.742 518.774 643.159 518.897 642.822 519.142C642.515 519.387 642.301 519.955 642.178 520.844C642.086 521.733 642.04 523.297 642.04 525.536C642.04 527.775 642.086 529.339 642.178 530.228C642.301 531.117 642.515 531.685 642.822 531.93C643.159 532.175 643.742 532.298 644.57 532.298Z" fill="white"/>
<path d="M894.614 530.826C897.374 531.163 899.551 531.332 901.146 531.332C902.741 531.332 903.952 531.133 904.78 530.734C905.608 530.335 906.175 529.676 906.482 528.756C906.789 527.836 906.942 526.487 906.942 524.708C906.942 522.807 906.773 521.411 906.436 520.522C906.099 519.633 905.501 519.035 904.642 518.728C903.814 518.421 902.511 518.268 900.732 518.268C899.045 518.268 897.083 518.483 894.844 518.912V502.352H908.736V505.388H898.11V515.692C899.429 515.416 900.962 515.278 902.71 515.278C904.857 515.278 906.482 515.615 907.586 516.29C908.69 516.934 909.426 517.9 909.794 519.188C910.193 520.445 910.392 522.147 910.392 524.294C910.392 526.839 910.147 528.833 909.656 530.274C909.196 531.685 908.322 532.727 907.034 533.402C905.777 534.046 903.952 534.368 901.56 534.368C900.548 534.368 899.383 534.291 898.064 534.138C896.776 534.015 895.626 533.847 894.614 533.632V530.826ZM923.477 534.368C920.686 534.368 918.708 533.969 917.543 533.172C916.377 532.344 915.626 530.887 915.289 528.802C914.951 526.686 914.783 523.144 914.783 518.176C914.783 513.208 914.951 509.681 915.289 507.596C915.626 505.48 916.377 504.023 917.543 503.226C918.708 502.398 920.686 501.984 923.477 501.984C926.329 501.984 928.337 502.398 929.503 503.226C930.668 504.023 931.404 505.449 931.711 507.504C932.017 509.528 932.171 513.085 932.171 518.176C932.171 523.144 932.002 526.686 931.665 528.802C931.327 530.887 930.576 532.344 929.411 533.172C928.245 533.969 926.267 534.368 923.477 534.368ZM923.477 531.332C925.225 531.332 926.421 531.102 927.065 530.642C927.739 530.182 928.184 529.109 928.399 527.422C928.613 525.705 928.721 522.623 928.721 518.176C928.721 513.729 928.613 510.663 928.399 508.976C928.184 507.259 927.739 506.17 927.065 505.71C926.421 505.25 925.225 505.02 923.477 505.02C921.698 505.02 920.471 505.25 919.797 505.71C919.153 506.17 918.723 507.243 918.509 508.93C918.325 510.617 918.233 513.699 918.233 518.176C918.233 522.653 918.325 525.735 918.509 527.422C918.723 529.109 919.153 530.182 919.797 530.642C920.471 531.102 921.698 531.332 923.477 531.332ZM941.894 519.694C940.391 519.694 939.303 519.464 938.628 519.004C937.953 518.544 937.493 517.716 937.248 516.52C937.033 515.324 936.926 513.438 936.926 510.862C936.926 508.286 937.033 506.4 937.248 505.204C937.493 504.008 937.953 503.18 938.628 502.72C939.303 502.229 940.391 501.984 941.894 501.984C943.397 501.984 944.485 502.229 945.16 502.72C945.835 503.18 946.279 504.008 946.494 505.204C946.709 506.4 946.816 508.286 946.816 510.862C946.816 513.469 946.709 515.37 946.494 516.566C946.279 517.731 945.835 518.544 945.16 519.004C944.485 519.464 943.397 519.694 941.894 519.694ZM940.376 534L955.74 502.352H958.132L942.768 534H940.376ZM941.894 517.624C942.722 517.624 943.289 517.501 943.596 517.256C943.933 517.011 944.148 516.443 944.24 515.554C944.363 514.665 944.424 513.101 944.424 510.862C944.424 508.623 944.363 507.059 944.24 506.17C944.148 505.281 943.933 504.713 943.596 504.468C943.289 504.223 942.722 504.1 941.894 504.1C941.066 504.1 940.483 504.223 940.146 504.468C939.809 504.713 939.579 505.281 939.456 506.17C939.364 507.059 939.318 508.623 939.318 510.862C939.318 513.101 939.364 514.665 939.456 515.554C939.579 516.443 939.809 517.011 940.146 517.256C940.483 517.501 941.066 517.624 941.894 517.624ZM956.66 534.368C955.157 534.368 954.069 534.138 953.394 533.678C952.719 533.218 952.275 532.405 952.06 531.24C951.845 530.044 951.738 528.143 951.738 525.536C951.738 522.96 951.845 521.074 952.06 519.878C952.275 518.682 952.719 517.854 953.394 517.394C954.069 516.903 955.157 516.658 956.66 516.658C958.163 516.658 959.251 516.903 959.926 517.394C960.601 517.854 961.045 518.682 961.26 519.878C961.505 521.074 961.628 522.96 961.628 525.536C961.628 528.112 961.505 529.998 961.26 531.194C961.045 532.39 960.601 533.218 959.926 533.678C959.251 534.138 958.163 534.368 956.66 534.368ZM956.66 532.298C957.488 532.298 958.071 532.175 958.408 531.93C958.745 531.685 958.96 531.117 959.052 530.228C959.175 529.339 959.236 527.775 959.236 525.536C959.236 523.297 959.175 521.733 959.052 520.844C958.96 519.955 958.745 519.387 958.408 519.142C958.071 518.897 957.488 518.774 956.66 518.774C955.832 518.774 955.249 518.897 954.912 519.142C954.605 519.387 954.391 519.955 954.268 520.844C954.176 521.733 954.13 523.297 954.13 525.536C954.13 527.775 954.176 529.339 954.268 530.228C954.391 531.117 954.605 531.685 954.912 531.93C955.249 532.175 955.832 532.298 956.66 532.298Z" fill="white"/>
<path d="M1187.23 534.368C1184.81 534.368 1182.94 534.061 1181.62 533.448C1180.33 532.804 1179.44 531.853 1178.95 530.596C1178.49 529.339 1178.26 527.652 1178.26 525.536C1178.26 523.788 1178.42 522.408 1178.72 521.396C1179.03 520.384 1179.47 519.633 1180.06 519.142C1180.67 518.651 1181.48 518.253 1182.49 517.946V517.762C1181.08 517.425 1180.06 516.673 1179.41 515.508C1178.77 514.312 1178.45 512.579 1178.45 510.31C1178.45 508.286 1178.71 506.676 1179.23 505.48C1179.75 504.284 1180.64 503.41 1181.9 502.858C1183.18 502.275 1184.96 501.984 1187.23 501.984C1189.5 501.984 1191.26 502.275 1192.52 502.858C1193.78 503.41 1194.67 504.284 1195.19 505.48C1195.71 506.676 1195.97 508.286 1195.97 510.31C1195.97 512.579 1195.65 514.312 1195.01 515.508C1194.36 516.673 1193.35 517.425 1191.97 517.762V517.946C1192.98 518.253 1193.78 518.651 1194.36 519.142C1194.98 519.633 1195.44 520.384 1195.74 521.396C1196.05 522.408 1196.2 523.788 1196.2 525.536C1196.2 527.652 1195.96 529.339 1195.47 530.596C1195.01 531.853 1194.12 532.804 1192.8 533.448C1191.51 534.061 1189.65 534.368 1187.23 534.368ZM1187.23 516.52C1188.7 516.52 1189.81 516.367 1190.54 516.06C1191.28 515.723 1191.79 515.155 1192.06 514.358C1192.37 513.561 1192.52 512.365 1192.52 510.77C1192.52 509.145 1192.38 507.933 1192.11 507.136C1191.83 506.339 1191.33 505.787 1190.59 505.48C1189.85 505.143 1188.73 504.974 1187.23 504.974C1185.73 504.974 1184.61 505.143 1183.87 505.48C1183.14 505.787 1182.63 506.339 1182.36 507.136C1182.08 507.933 1181.94 509.145 1181.94 510.77C1181.94 512.365 1182.08 513.561 1182.36 514.358C1182.66 515.155 1183.18 515.723 1183.92 516.06C1184.66 516.367 1185.76 516.52 1187.23 516.52ZM1187.23 531.378C1188.73 531.378 1189.85 531.24 1190.59 530.964C1191.36 530.657 1191.91 530.09 1192.25 529.262C1192.58 528.434 1192.75 527.177 1192.75 525.49C1192.75 523.711 1192.6 522.408 1192.29 521.58C1191.99 520.752 1191.45 520.2 1190.68 519.924C1189.95 519.617 1188.8 519.464 1187.23 519.464C1185.67 519.464 1184.5 519.617 1183.74 519.924C1183 520.2 1182.48 520.752 1182.17 521.58C1181.87 522.408 1181.71 523.711 1181.71 525.49C1181.71 527.177 1181.88 528.434 1182.22 529.262C1182.56 530.09 1183.09 530.657 1183.83 530.964C1184.59 531.24 1185.73 531.378 1187.23 531.378ZM1209.64 534.368C1206.85 534.368 1204.88 533.969 1203.71 533.172C1202.55 532.344 1201.79 530.887 1201.46 528.802C1201.12 526.686 1200.95 523.144 1200.95 518.176C1200.95 513.208 1201.12 509.681 1201.46 507.596C1201.79 505.48 1202.55 504.023 1203.71 503.226C1204.88 502.398 1206.85 501.984 1209.64 501.984C1212.5 501.984 1214.51 502.398 1215.67 503.226C1216.84 504.023 1217.57 505.449 1217.88 507.504C1218.19 509.528 1218.34 513.085 1218.34 518.176C1218.34 523.144 1218.17 526.686 1217.83 528.802C1217.5 530.887 1216.74 532.344 1215.58 533.172C1214.41 533.969 1212.44 534.368 1209.64 534.368ZM1209.64 531.332C1211.39 531.332 1212.59 531.102 1213.23 530.642C1213.91 530.182 1214.35 529.109 1214.57 527.422C1214.78 525.705 1214.89 522.623 1214.89 518.176C1214.89 513.729 1214.78 510.663 1214.57 508.976C1214.35 507.259 1213.91 506.17 1213.23 505.71C1212.59 505.25 1211.39 505.02 1209.64 505.02C1207.87 505.02 1206.64 505.25 1205.96 505.71C1205.32 506.17 1204.89 507.243 1204.68 508.93C1204.49 510.617 1204.4 513.699 1204.4 518.176C1204.4 522.653 1204.49 525.735 1204.68 527.422C1204.89 529.109 1205.32 530.182 1205.96 530.642C1206.64 531.102 1207.87 531.332 1209.64 531.332ZM1228.06 519.694C1226.56 519.694 1225.47 519.464 1224.8 519.004C1224.12 518.544 1223.66 517.716 1223.42 516.52C1223.2 515.324 1223.09 513.438 1223.09 510.862C1223.09 508.286 1223.2 506.4 1223.42 505.204C1223.66 504.008 1224.12 503.18 1224.8 502.72C1225.47 502.229 1226.56 501.984 1228.06 501.984C1229.56 501.984 1230.65 502.229 1231.33 502.72C1232 503.18 1232.45 504.008 1232.66 505.204C1232.88 506.4 1232.98 508.286 1232.98 510.862C1232.98 513.469 1232.88 515.37 1232.66 516.566C1232.45 517.731 1232 518.544 1231.33 519.004C1230.65 519.464 1229.56 519.694 1228.06 519.694ZM1226.54 534L1241.91 502.352H1244.3L1228.94 534H1226.54ZM1228.06 517.624C1228.89 517.624 1229.46 517.501 1229.76 517.256C1230.1 517.011 1230.32 516.443 1230.41 515.554C1230.53 514.665 1230.59 513.101 1230.59 510.862C1230.59 508.623 1230.53 507.059 1230.41 506.17C1230.32 505.281 1230.1 504.713 1229.76 504.468C1229.46 504.223 1228.89 504.1 1228.06 504.1C1227.23 504.1 1226.65 504.223 1226.31 504.468C1225.98 504.713 1225.75 505.281 1225.62 506.17C1225.53 507.059 1225.49 508.623 1225.49 510.862C1225.49 513.101 1225.53 514.665 1225.62 515.554C1225.75 516.443 1225.98 517.011 1226.31 517.256C1226.65 517.501 1227.23 517.624 1228.06 517.624ZM1242.83 534.368C1241.33 534.368 1240.24 534.138 1239.56 533.678C1238.89 533.218 1238.44 532.405 1238.23 531.24C1238.01 530.044 1237.91 528.143 1237.91 525.536C1237.91 522.96 1238.01 521.074 1238.23 519.878C1238.44 518.682 1238.89 517.854 1239.56 517.394C1240.24 516.903 1241.33 516.658 1242.83 516.658C1244.33 516.658 1245.42 516.903 1246.09 517.394C1246.77 517.854 1247.21 518.682 1247.43 519.878C1247.67 521.074 1247.8 522.96 1247.8 525.536C1247.8 528.112 1247.67 529.998 1247.43 531.194C1247.21 532.39 1246.77 533.218 1246.09 533.678C1245.42 534.138 1244.33 534.368 1242.83 534.368ZM1242.83 532.298C1243.66 532.298 1244.24 532.175 1244.58 531.93C1244.91 531.685 1245.13 531.117 1245.22 530.228C1245.34 529.339 1245.4 527.775 1245.4 525.536C1245.4 523.297 1245.34 521.733 1245.22 520.844C1245.13 519.955 1244.91 519.387 1244.58 519.142C1244.24 518.897 1243.66 518.774 1242.83 518.774C1242 518.774 1241.42 518.897 1241.08 519.142C1240.77 519.387 1240.56 519.955 1240.44 520.844C1240.34 521.733 1240.3 523.297 1240.3 525.536C1240.3 527.775 1240.34 529.339 1240.44 530.228C1240.56 531.117 1240.77 531.685 1241.08 531.93C1241.42 532.175 1242 532.298 1242.83 532.298Z" fill="white"/>
</g>
<defs>
<clipPath id="clip0_1489_2823">
<rect width="1656" height="603" fill="white"/>
</clipPath>
</defs>
</svg>
