<svg width="1656" height="1016" viewBox="0 0 1656 1016" fill="none" xmlns="http://www.w3.org/2000/svg">
<g clip-path="url(#clip0_1495_2843)">
<rect x="410" y="497" width="74" height="106" fill="#E4BC0A"/>
<rect x="410" y="320" width="317" height="106" fill="#E4BC0A"/>
<rect x="410" y="141" width="602" height="106" fill="#E4BC0A"/>
<rect x="410" y="701" width="74" height="107" fill="#E4BC0A"/>
<line x1="410.5" y1="88" x2="410.5" y2="860" stroke="white"/>
<line x1="410" y1="860.5" x2="1422" y2="860.5" stroke="white"/>
<path d="M304.902 562.368C301.897 562.368 299.75 561.954 298.462 561.126C297.174 560.298 296.346 558.841 295.978 556.756C295.61 554.64 295.426 551.113 295.426 546.176C295.426 541.239 295.61 537.727 295.978 535.642C296.346 533.526 297.174 532.054 298.462 531.226C299.75 530.398 301.897 529.984 304.902 529.984C307.908 529.984 310.054 530.398 311.342 531.226C312.63 532.054 313.458 533.526 313.826 535.642C314.194 537.727 314.378 541.239 314.378 546.176C314.378 551.113 314.194 554.64 313.826 556.756C313.458 558.841 312.63 560.298 311.342 561.126C310.054 561.954 307.908 562.368 304.902 562.368ZM304.902 559.332C306.865 559.332 308.23 559.102 308.996 558.642C309.763 558.182 310.269 557.093 310.514 555.376C310.76 553.659 310.882 550.592 310.882 546.176C310.882 541.76 310.76 538.693 310.514 536.976C310.269 535.259 309.763 534.17 308.996 533.71C308.23 533.25 306.865 533.02 304.902 533.02C302.94 533.02 301.575 533.25 300.808 533.71C300.042 534.17 299.536 535.259 299.29 536.976C299.045 538.693 298.922 541.76 298.922 546.176C298.922 550.592 299.045 553.659 299.29 555.376C299.536 557.093 300.042 558.182 300.808 558.642C301.575 559.102 302.94 559.332 304.902 559.332ZM321.121 562V541.346H317.717V538.54H321.121V531.732H324.387V538.54H328.435V541.346H324.387V562H321.121ZM344.187 548.292C344.187 546.084 344.08 544.505 343.865 543.554C343.681 542.573 343.313 541.929 342.761 541.622C342.209 541.285 341.304 541.116 340.047 541.116C338.636 541.116 337.609 541.453 336.965 542.128C336.321 542.803 335.922 543.707 335.769 544.842C335.616 545.977 335.539 547.633 335.539 549.81V562H332.273V527.822H335.539V541.346H335.769C336.597 539.23 338.468 538.172 341.381 538.172C343.098 538.172 344.386 538.479 345.245 539.092C346.134 539.675 346.717 540.595 346.993 541.852C347.3 543.109 347.453 544.873 347.453 547.142V562H344.187V548.292ZM367.699 551.328H355.647C355.647 553.812 355.754 555.606 355.969 556.71C356.214 557.783 356.705 558.535 357.441 558.964C358.207 559.363 359.48 559.562 361.259 559.562C363.283 559.562 365.215 559.393 367.055 559.056V561.724C366.349 561.908 365.383 562.061 364.157 562.184C362.93 562.307 361.749 562.368 360.615 562.368C358.131 562.368 356.321 562.015 355.187 561.31C354.052 560.574 353.301 559.393 352.933 557.768C352.565 556.143 352.381 553.659 352.381 550.316C352.381 546.973 352.534 544.505 352.841 542.91C353.147 541.285 353.853 540.089 354.957 539.322C356.091 538.555 357.901 538.172 360.385 538.172C362.715 538.172 364.387 538.54 365.399 539.276C366.411 540.012 367.039 541.162 367.285 542.726C367.561 544.29 367.699 546.805 367.699 550.27V551.328ZM360.339 540.932C358.897 540.932 357.855 541.116 357.211 541.484C356.567 541.852 356.137 542.573 355.923 543.646C355.739 544.689 355.647 546.437 355.647 548.89H364.571V548.338C364.571 546.099 364.448 544.474 364.203 543.462C363.957 542.419 363.543 541.745 362.961 541.438C362.409 541.101 361.535 540.932 360.339 540.932ZM372.793 538.54H375.645L375.829 542.91H376.105C376.503 541.101 377.193 539.859 378.175 539.184C379.187 538.509 380.521 538.172 382.177 538.172V541.484C380.582 541.484 379.34 541.821 378.451 542.496C377.561 543.171 376.933 544.183 376.565 545.532C376.227 546.851 376.059 548.629 376.059 550.868V562H372.793V538.54Z" fill="white"/>
<path d="M267.35 373V341.352H281.61V344.388H270.8V356.21H280.414V359.2H270.8V373H267.35ZM299.713 362.328H287.661C287.661 364.812 287.769 366.606 287.983 367.71C288.229 368.783 288.719 369.535 289.455 369.964C290.222 370.363 291.495 370.562 293.273 370.562C295.297 370.562 297.229 370.393 299.069 370.056V372.724C298.364 372.908 297.398 373.061 296.171 373.184C294.945 373.307 293.764 373.368 292.629 373.368C290.145 373.368 288.336 373.015 287.201 372.31C286.067 371.574 285.315 370.393 284.947 368.768C284.579 367.143 284.395 364.659 284.395 361.316C284.395 357.973 284.549 355.505 284.855 353.91C285.162 352.285 285.867 351.089 286.971 350.322C288.106 349.555 289.915 349.172 292.399 349.172C294.73 349.172 296.401 349.54 297.413 350.276C298.425 351.012 299.054 352.162 299.299 353.726C299.575 355.29 299.713 357.805 299.713 361.27V362.328ZM292.353 351.932C290.912 351.932 289.869 352.116 289.225 352.484C288.581 352.852 288.152 353.573 287.937 354.646C287.753 355.689 287.661 357.437 287.661 359.89H296.585V359.338C296.585 357.099 296.463 355.474 296.217 354.462C295.972 353.419 295.558 352.745 294.975 352.438C294.423 352.101 293.549 351.932 292.353 351.932ZM327.577 359.292C327.577 357.084 327.485 355.505 327.301 354.554C327.117 353.573 326.78 352.929 326.289 352.622C325.799 352.285 324.971 352.116 323.805 352.116C322.456 352.116 321.459 352.438 320.815 353.082C320.202 353.695 319.819 354.569 319.665 355.704C319.512 356.839 319.435 358.541 319.435 360.81V373H316.169V359.292C316.169 357.053 316.077 355.459 315.893 354.508C315.74 353.557 315.418 352.929 314.927 352.622C314.437 352.285 313.609 352.116 312.443 352.116C311.094 352.116 310.097 352.453 309.453 353.128C308.84 353.772 308.457 354.677 308.303 355.842C308.15 356.977 308.073 358.633 308.073 360.81V373H304.807V349.54H307.659L307.843 352.806H308.119C308.487 351.671 309.085 350.782 309.913 350.138C310.772 349.494 312.014 349.172 313.639 349.172C315.326 349.172 316.568 349.448 317.365 350C318.193 350.552 318.761 351.487 319.067 352.806H319.343C319.711 351.641 320.34 350.751 321.229 350.138C322.119 349.494 323.376 349.172 325.001 349.172C326.657 349.172 327.899 349.479 328.727 350.092C329.555 350.675 330.107 351.595 330.383 352.852C330.69 354.109 330.843 355.873 330.843 358.142V373H327.577V359.292ZM341.26 373.368C339.113 373.368 337.565 372.877 336.614 371.896C335.663 370.915 335.188 369.136 335.188 366.56C335.188 364.781 335.357 363.401 335.694 362.42C336.062 361.408 336.66 360.687 337.488 360.258C338.347 359.829 339.543 359.614 341.076 359.614C341.965 359.614 343.989 359.691 347.148 359.844V358.188C347.148 356.256 347.01 354.876 346.734 354.048C346.489 353.189 346.013 352.637 345.308 352.392C344.633 352.116 343.499 351.978 341.904 351.978C341.199 351.978 340.279 352.039 339.144 352.162C338.04 352.254 337.105 352.361 336.338 352.484V349.816C338.331 349.387 340.493 349.172 342.824 349.172C344.971 349.172 346.565 349.433 347.608 349.954C348.681 350.475 349.417 351.365 349.816 352.622C350.215 353.879 350.414 355.719 350.414 358.142V373H347.516L347.332 369.78H347.102C346.642 371.221 345.891 372.187 344.848 372.678C343.836 373.138 342.64 373.368 341.26 373.368ZM342.318 370.562C343.391 370.562 344.265 370.439 344.94 370.194C345.615 369.918 346.121 369.351 346.458 368.492C346.918 367.265 347.148 365.625 347.148 363.57V362.052H341.904C340.923 362.052 340.187 362.159 339.696 362.374C339.236 362.558 338.899 362.957 338.684 363.57C338.5 364.153 338.408 365.073 338.408 366.33C338.408 367.526 338.5 368.415 338.684 368.998C338.899 369.581 339.282 369.995 339.834 370.24C340.386 370.455 341.214 370.562 342.318 370.562ZM356.063 373V338.822H359.329V373H356.063ZM379.674 362.328H367.622C367.622 364.812 367.73 366.606 367.944 367.71C368.19 368.783 368.68 369.535 369.416 369.964C370.183 370.363 371.456 370.562 373.234 370.562C375.258 370.562 377.19 370.393 379.03 370.056V372.724C378.325 372.908 377.359 373.061 376.132 373.184C374.906 373.307 373.725 373.368 372.59 373.368C370.106 373.368 368.297 373.015 367.162 372.31C366.028 371.574 365.276 370.393 364.908 368.768C364.54 367.143 364.356 364.659 364.356 361.316C364.356 357.973 364.51 355.505 364.816 353.91C365.123 352.285 365.828 351.089 366.932 350.322C368.067 349.555 369.876 349.172 372.36 349.172C374.691 349.172 376.362 349.54 377.374 350.276C378.386 351.012 379.015 352.162 379.26 353.726C379.536 355.29 379.674 357.805 379.674 361.27V362.328ZM372.314 351.932C370.873 351.932 369.83 352.116 369.186 352.484C368.542 352.852 368.113 353.573 367.898 354.646C367.714 355.689 367.622 357.437 367.622 359.89H376.546V359.338C376.546 357.099 376.424 355.474 376.178 354.462C375.933 353.419 375.519 352.745 374.936 352.438C374.384 352.101 373.51 351.932 372.314 351.932Z" fill="white"/>
<path d="M336.593 203V177.378H336.409L329.371 203H326.243L319.251 177.378H319.067V203H315.801V171.352H320.769L327.761 197.066H328.037L335.075 171.352H339.951V203H336.593ZM350.809 203.368C348.662 203.368 347.114 202.877 346.163 201.896C345.212 200.915 344.737 199.136 344.737 196.56C344.737 194.781 344.906 193.401 345.243 192.42C345.611 191.408 346.209 190.687 347.037 190.258C347.896 189.829 349.092 189.614 350.625 189.614C351.514 189.614 353.538 189.691 356.697 189.844V188.188C356.697 186.256 356.559 184.876 356.283 184.048C356.038 183.189 355.562 182.637 354.857 182.392C354.182 182.116 353.048 181.978 351.453 181.978C350.748 181.978 349.828 182.039 348.693 182.162C347.589 182.254 346.654 182.361 345.887 182.484V179.816C347.88 179.387 350.042 179.172 352.373 179.172C354.52 179.172 356.114 179.433 357.157 179.954C358.23 180.475 358.966 181.365 359.365 182.622C359.764 183.879 359.963 185.719 359.963 188.142V203H357.065L356.881 199.78H356.651C356.191 201.221 355.44 202.187 354.397 202.678C353.385 203.138 352.189 203.368 350.809 203.368ZM351.867 200.562C352.94 200.562 353.814 200.439 354.489 200.194C355.164 199.918 355.67 199.351 356.007 198.492C356.467 197.265 356.697 195.625 356.697 193.57V192.052H351.453C350.472 192.052 349.736 192.159 349.245 192.374C348.785 192.558 348.448 192.957 348.233 193.57C348.049 194.153 347.957 195.073 347.957 196.33C347.957 197.526 348.049 198.415 348.233 198.998C348.448 199.581 348.831 199.995 349.383 200.24C349.935 200.455 350.763 200.562 351.867 200.562ZM365.612 203V168.822H368.878V203H365.612ZM389.223 192.328H377.171C377.171 194.812 377.278 196.606 377.493 197.71C377.738 198.783 378.229 199.535 378.965 199.964C379.732 200.363 381.004 200.562 382.783 200.562C384.807 200.562 386.739 200.393 388.579 200.056V202.724C387.874 202.908 386.908 203.061 385.681 203.184C384.454 203.307 383.274 203.368 382.139 203.368C379.655 203.368 377.846 203.015 376.711 202.31C375.576 201.574 374.825 200.393 374.457 198.768C374.089 197.143 373.905 194.659 373.905 191.316C373.905 187.973 374.058 185.505 374.365 183.91C374.672 182.285 375.377 181.089 376.481 180.322C377.616 179.555 379.425 179.172 381.909 179.172C384.24 179.172 385.911 179.54 386.923 180.276C387.935 181.012 388.564 182.162 388.809 183.726C389.085 185.29 389.223 187.805 389.223 191.27V192.328ZM381.863 181.932C380.422 181.932 379.379 182.116 378.735 182.484C378.091 182.852 377.662 183.573 377.447 184.646C377.263 185.689 377.171 187.437 377.171 189.89H386.095V189.338C386.095 187.099 385.972 185.474 385.727 184.462C385.482 183.419 385.068 182.745 384.485 182.438C383.933 182.101 383.059 181.932 381.863 181.932Z" fill="white"/>
<path d="M246.628 728L242.672 715.258H242.028H236.094V728H232.644V696.352H242.304C244.481 696.352 246.106 696.751 247.18 697.548C248.253 698.345 248.943 699.403 249.25 700.722C249.587 702.041 249.756 703.743 249.756 705.828C249.756 708.128 249.51 710.029 249.02 711.532C248.56 713.004 247.548 714.047 245.984 714.66L250.262 728H246.628ZM241.43 712.268C242.871 712.268 243.944 712.038 244.65 711.578C245.355 711.118 245.8 710.459 245.984 709.6C246.198 708.711 246.306 707.453 246.306 705.828C246.306 704.172 246.198 702.915 245.984 702.056C245.8 701.197 245.37 700.538 244.696 700.078C244.021 699.618 242.948 699.388 241.476 699.388H236.094V712.268H241.43ZM269.589 717.328H257.537C257.537 719.812 257.645 721.606 257.859 722.71C258.105 723.783 258.595 724.535 259.331 724.964C260.098 725.363 261.371 725.562 263.149 725.562C265.173 725.562 267.105 725.393 268.945 725.056V727.724C268.24 727.908 267.274 728.061 266.047 728.184C264.821 728.307 263.64 728.368 262.505 728.368C260.021 728.368 258.212 728.015 257.077 727.31C255.943 726.574 255.191 725.393 254.823 723.768C254.455 722.143 254.271 719.659 254.271 716.316C254.271 712.973 254.425 710.505 254.731 708.91C255.038 707.285 255.743 706.089 256.847 705.322C257.982 704.555 259.791 704.172 262.275 704.172C264.606 704.172 266.277 704.54 267.289 705.276C268.301 706.012 268.93 707.162 269.175 708.726C269.451 710.29 269.589 712.805 269.589 716.27V717.328ZM262.229 706.932C260.788 706.932 259.745 707.116 259.101 707.484C258.457 707.852 258.028 708.573 257.813 709.646C257.629 710.689 257.537 712.437 257.537 714.89H266.461V714.338C266.461 712.099 266.339 710.474 266.093 709.462C265.848 708.419 265.434 707.745 264.851 707.438C264.299 707.101 263.425 706.932 262.229 706.932ZM276.109 707.346H272.705V704.54H276.109V700.584C276.109 698.529 276.339 697.027 276.799 696.076C277.29 695.125 278.041 694.512 279.053 694.236C280.096 693.96 281.66 693.822 283.745 693.822V696.398C282.488 696.398 281.552 696.49 280.939 696.674C280.356 696.827 279.942 697.165 279.697 697.686C279.482 698.177 279.375 698.943 279.375 699.986V704.54H283.745V707.346H279.375V728H276.109V707.346ZM299.581 724.734H299.351C298.983 725.899 298.339 726.804 297.419 727.448C296.529 728.061 295.241 728.368 293.555 728.368C291.837 728.368 290.534 728.061 289.645 727.448C288.786 726.835 288.203 725.915 287.897 724.688C287.621 723.431 287.483 721.652 287.483 719.352V704.54H290.749V718.248C290.749 720.487 290.841 722.081 291.025 723.032C291.239 723.983 291.623 724.627 292.175 724.964C292.727 725.271 293.631 725.424 294.889 725.424C296.269 725.424 297.281 725.102 297.925 724.458C298.569 723.783 298.967 722.879 299.121 721.744C299.305 720.579 299.397 718.907 299.397 716.73V704.54H302.663V728H299.765L299.581 724.734ZM314.168 728.368C313.126 728.368 312.006 728.307 310.81 728.184C309.614 728.092 308.633 727.969 307.866 727.816V725.102C309.829 725.439 311.853 725.608 313.938 725.608C315.104 725.608 315.978 725.455 316.56 725.148C317.143 724.841 317.526 724.412 317.71 723.86C317.894 723.308 317.986 722.557 317.986 721.606C317.986 720.471 317.925 719.674 317.802 719.214C317.68 718.723 317.465 718.401 317.158 718.248C316.882 718.064 316.392 717.926 315.686 717.834L311.086 717.144C309.614 716.929 308.618 716.377 308.096 715.488C307.575 714.568 307.314 713.081 307.314 711.026C307.314 709.186 307.606 707.775 308.188 706.794C308.771 705.782 309.568 705.092 310.58 704.724C311.623 704.356 312.957 704.172 314.582 704.172C315.533 704.172 316.545 704.233 317.618 704.356C318.692 704.479 319.55 704.632 320.194 704.816V707.484C319.489 707.331 318.615 707.208 317.572 707.116C316.56 706.993 315.564 706.932 314.582 706.932C313.141 706.932 312.098 707.193 311.454 707.714C310.81 708.235 310.488 709.263 310.488 710.796C310.488 711.808 310.55 712.559 310.672 713.05C310.795 713.51 310.994 713.832 311.27 714.016C311.577 714.2 312.068 714.338 312.742 714.43L317.204 715.028C318.186 715.151 318.952 715.411 319.504 715.81C320.087 716.178 320.516 716.807 320.792 717.696C321.068 718.585 321.206 719.858 321.206 721.514C321.206 724.09 320.654 725.884 319.55 726.896C318.446 727.877 316.652 728.368 314.168 728.368ZM340.386 717.328H328.334C328.334 719.812 328.442 721.606 328.656 722.71C328.902 723.783 329.392 724.535 330.128 724.964C330.895 725.363 332.168 725.562 333.946 725.562C335.97 725.562 337.902 725.393 339.742 725.056V727.724C339.037 727.908 338.071 728.061 336.844 728.184C335.618 728.307 334.437 728.368 333.302 728.368C330.818 728.368 329.009 728.015 327.874 727.31C326.74 726.574 325.988 725.393 325.62 723.768C325.252 722.143 325.068 719.659 325.068 716.316C325.068 712.973 325.222 710.505 325.528 708.91C325.835 707.285 326.54 706.089 327.644 705.322C328.779 704.555 330.588 704.172 333.072 704.172C335.403 704.172 337.074 704.54 338.086 705.276C339.098 706.012 339.727 707.162 339.972 708.726C340.248 710.29 340.386 712.805 340.386 716.27V717.328ZM333.026 706.932C331.585 706.932 330.542 707.116 329.898 707.484C329.254 707.852 328.825 708.573 328.61 709.646C328.426 710.689 328.334 712.437 328.334 714.89H337.258V714.338C337.258 712.099 337.136 710.474 336.89 709.462C336.645 708.419 336.231 707.745 335.648 707.438C335.096 707.101 334.222 706.932 333.026 706.932ZM355.756 728V707.346H352.352V704.54H355.756V697.732H359.022V704.54H363.07V707.346H359.022V728H355.756ZM373.905 728.368C371.421 728.368 369.627 728.046 368.523 727.402C367.45 726.758 366.744 725.639 366.407 724.044C366.1 722.449 365.947 719.858 365.947 716.27C365.947 712.682 366.1 710.091 366.407 708.496C366.744 706.901 367.45 705.782 368.523 705.138C369.627 704.494 371.421 704.172 373.905 704.172C376.389 704.172 378.168 704.494 379.241 705.138C380.345 705.782 381.05 706.901 381.357 708.496C381.664 710.091 381.817 712.682 381.817 716.27C381.817 719.858 381.664 722.449 381.357 724.044C381.05 725.639 380.345 726.758 379.241 727.402C378.168 728.046 376.389 728.368 373.905 728.368ZM373.905 725.562C375.438 725.562 376.512 725.347 377.125 724.918C377.769 724.489 378.168 723.691 378.321 722.526C378.474 721.361 378.551 719.275 378.551 716.27C378.551 713.265 378.474 711.179 378.321 710.014C378.168 708.849 377.769 708.051 377.125 707.622C376.512 707.193 375.438 706.978 373.905 706.978C372.341 706.978 371.252 707.193 370.639 707.622C370.026 708.051 369.627 708.864 369.443 710.06C369.29 711.225 369.213 713.295 369.213 716.27C369.213 719.245 369.29 721.33 369.443 722.526C369.627 723.691 370.026 724.489 370.639 724.918C371.252 725.347 372.341 725.562 373.905 725.562ZM273.402 800.368C271.255 800.368 269.706 799.877 268.756 798.896C267.805 797.915 267.33 796.136 267.33 793.56C267.33 791.781 267.498 790.401 267.836 789.42C268.204 788.408 268.802 787.687 269.63 787.258C270.488 786.829 271.684 786.614 273.218 786.614C274.107 786.614 276.131 786.691 279.29 786.844V785.188C279.29 783.256 279.152 781.876 278.876 781.048C278.63 780.189 278.155 779.637 277.45 779.392C276.775 779.116 275.64 778.978 274.046 778.978C273.34 778.978 272.42 779.039 271.286 779.162C270.182 779.254 269.246 779.361 268.48 779.484V776.816C270.473 776.387 272.635 776.172 274.966 776.172C277.112 776.172 278.707 776.433 279.75 776.954C280.823 777.475 281.559 778.365 281.958 779.622C282.356 780.879 282.556 782.719 282.556 785.142V800H279.658L279.474 796.78H279.244C278.784 798.221 278.032 799.187 276.99 799.678C275.978 800.138 274.782 800.368 273.402 800.368ZM274.46 797.562C275.533 797.562 276.407 797.439 277.082 797.194C277.756 796.918 278.262 796.351 278.6 795.492C279.06 794.265 279.29 792.625 279.29 790.57V789.052H274.046C273.064 789.052 272.328 789.159 271.838 789.374C271.378 789.558 271.04 789.957 270.826 790.57C270.642 791.153 270.55 792.073 270.55 793.33C270.55 794.526 270.642 795.415 270.826 795.998C271.04 796.581 271.424 796.995 271.976 797.24C272.528 797.455 273.356 797.562 274.46 797.562ZM300.119 786.292C300.119 784.084 300.011 782.505 299.797 781.554C299.613 780.573 299.245 779.929 298.693 779.622C298.141 779.285 297.236 779.116 295.979 779.116C294.568 779.116 293.541 779.453 292.897 780.128C292.253 780.803 291.854 781.707 291.701 782.842C291.547 783.977 291.471 785.633 291.471 787.81V800H288.205V776.54H291.057L291.241 779.806H291.517C291.885 778.641 292.513 777.751 293.403 777.138C294.323 776.494 295.626 776.172 297.313 776.172C299.03 776.172 300.318 776.479 301.177 777.092C302.066 777.705 302.649 778.641 302.925 779.898C303.231 781.125 303.385 782.888 303.385 785.188V800H300.119V786.292ZM314.752 800.368C313.71 800.368 312.59 800.307 311.394 800.184C310.198 800.092 309.217 799.969 308.45 799.816V797.102C310.413 797.439 312.437 797.608 314.522 797.608C315.688 797.608 316.562 797.455 317.144 797.148C317.727 796.841 318.11 796.412 318.294 795.86C318.478 795.308 318.57 794.557 318.57 793.606C318.57 792.471 318.509 791.674 318.386 791.214C318.264 790.723 318.049 790.401 317.742 790.248C317.466 790.064 316.976 789.926 316.27 789.834L311.67 789.144C310.198 788.929 309.202 788.377 308.68 787.488C308.159 786.568 307.898 785.081 307.898 783.026C307.898 781.186 308.19 779.775 308.772 778.794C309.355 777.782 310.152 777.092 311.164 776.724C312.207 776.356 313.541 776.172 315.166 776.172C316.117 776.172 317.129 776.233 318.202 776.356C319.276 776.479 320.134 776.632 320.778 776.816V779.484C320.073 779.331 319.199 779.208 318.156 779.116C317.144 778.993 316.148 778.932 315.166 778.932C313.725 778.932 312.682 779.193 312.038 779.714C311.394 780.235 311.072 781.263 311.072 782.796C311.072 783.808 311.134 784.559 311.256 785.05C311.379 785.51 311.578 785.832 311.854 786.016C312.161 786.2 312.652 786.338 313.326 786.43L317.788 787.028C318.77 787.151 319.536 787.411 320.088 787.81C320.671 788.178 321.1 788.807 321.376 789.696C321.652 790.585 321.79 791.858 321.79 793.514C321.79 796.09 321.238 797.884 320.134 798.896C319.03 799.877 317.236 800.368 314.752 800.368ZM341.43 800L337.704 782.198H337.428L333.702 800H329.746L324.456 776.54H327.814L331.724 795.63H332L335.91 776.54H339.314L343.316 795.63H343.592L347.456 776.54H350.676L345.386 800H341.43ZM368.687 789.328H356.635C356.635 791.812 356.742 793.606 356.957 794.71C357.202 795.783 357.693 796.535 358.429 796.964C359.196 797.363 360.468 797.562 362.247 797.562C364.271 797.562 366.203 797.393 368.043 797.056V799.724C367.338 799.908 366.372 800.061 365.145 800.184C363.918 800.307 362.738 800.368 361.603 800.368C359.119 800.368 357.31 800.015 356.175 799.31C355.04 798.574 354.289 797.393 353.921 795.768C353.553 794.143 353.369 791.659 353.369 788.316C353.369 784.973 353.522 782.505 353.829 780.91C354.136 779.285 354.841 778.089 355.945 777.322C357.08 776.555 358.889 776.172 361.373 776.172C363.704 776.172 365.375 776.54 366.387 777.276C367.399 778.012 368.028 779.162 368.273 780.726C368.549 782.29 368.687 784.805 368.687 788.27V789.328ZM361.327 778.932C359.886 778.932 358.843 779.116 358.199 779.484C357.555 779.852 357.126 780.573 356.911 781.646C356.727 782.689 356.635 784.437 356.635 786.89H365.559V786.338C365.559 784.099 365.436 782.474 365.191 781.462C364.946 780.419 364.532 779.745 363.949 779.438C363.397 779.101 362.523 778.932 361.327 778.932ZM373.781 776.54H376.633L376.817 780.91H377.093C377.491 779.101 378.181 777.859 379.163 777.184C380.175 776.509 381.509 776.172 383.165 776.172V779.484C381.57 779.484 380.328 779.821 379.439 780.496C378.549 781.171 377.921 782.183 377.553 783.532C377.215 784.851 377.047 786.629 377.047 788.868V800H373.781V776.54Z" fill="white"/>
<path d="M400.369 914.368C397.579 914.368 395.601 913.969 394.435 913.172C393.27 912.344 392.519 910.887 392.181 908.802C391.844 906.686 391.675 903.144 391.675 898.176C391.675 893.208 391.844 889.681 392.181 887.596C392.519 885.48 393.27 884.023 394.435 883.226C395.601 882.398 397.579 881.984 400.369 881.984C403.221 881.984 405.23 882.398 406.395 883.226C407.561 884.023 408.297 885.449 408.603 887.504C408.91 889.528 409.063 893.085 409.063 898.176C409.063 903.144 408.895 906.686 408.557 908.802C408.22 910.887 407.469 912.344 406.303 913.172C405.138 913.969 403.16 914.368 400.369 914.368ZM400.369 911.332C402.117 911.332 403.313 911.102 403.957 910.642C404.632 910.182 405.077 909.109 405.291 907.422C405.506 905.705 405.613 902.623 405.613 898.176C405.613 893.729 405.506 890.663 405.291 888.976C405.077 887.259 404.632 886.17 403.957 885.71C403.313 885.25 402.117 885.02 400.369 885.02C398.591 885.02 397.364 885.25 396.689 885.71C396.045 886.17 395.616 887.243 395.401 888.93C395.217 890.617 395.125 893.699 395.125 898.176C395.125 902.653 395.217 905.735 395.401 907.422C395.616 909.109 396.045 910.182 396.689 910.642C397.364 911.102 398.591 911.332 400.369 911.332ZM418.787 899.694C417.284 899.694 416.195 899.464 415.521 899.004C414.846 898.544 414.386 897.716 414.141 896.52C413.926 895.324 413.819 893.438 413.819 890.862C413.819 888.286 413.926 886.4 414.141 885.204C414.386 884.008 414.846 883.18 415.521 882.72C416.195 882.229 417.284 881.984 418.787 881.984C420.289 881.984 421.378 882.229 422.053 882.72C422.727 883.18 423.172 884.008 423.387 885.204C423.601 886.4 423.709 888.286 423.709 890.862C423.709 893.469 423.601 895.37 423.387 896.566C423.172 897.731 422.727 898.544 422.053 899.004C421.378 899.464 420.289 899.694 418.787 899.694ZM417.269 914L432.633 882.352H435.025L419.661 914H417.269ZM418.787 897.624C419.615 897.624 420.182 897.501 420.489 897.256C420.826 897.011 421.041 896.443 421.133 895.554C421.255 894.665 421.317 893.101 421.317 890.862C421.317 888.623 421.255 887.059 421.133 886.17C421.041 885.281 420.826 884.713 420.489 884.468C420.182 884.223 419.615 884.1 418.787 884.1C417.959 884.1 417.376 884.223 417.039 884.468C416.701 884.713 416.471 885.281 416.349 886.17C416.257 887.059 416.211 888.623 416.211 890.862C416.211 893.101 416.257 894.665 416.349 895.554C416.471 896.443 416.701 897.011 417.039 897.256C417.376 897.501 417.959 897.624 418.787 897.624ZM433.553 914.368C432.05 914.368 430.961 914.138 430.287 913.678C429.612 913.218 429.167 912.405 428.953 911.24C428.738 910.044 428.631 908.143 428.631 905.536C428.631 902.96 428.738 901.074 428.953 899.878C429.167 898.682 429.612 897.854 430.287 897.394C430.961 896.903 432.05 896.658 433.553 896.658C435.055 896.658 436.144 896.903 436.819 897.394C437.493 897.854 437.938 898.682 438.153 899.878C438.398 901.074 438.521 902.96 438.521 905.536C438.521 908.112 438.398 909.998 438.153 911.194C437.938 912.39 437.493 913.218 436.819 913.678C436.144 914.138 435.055 914.368 433.553 914.368ZM433.553 912.298C434.381 912.298 434.963 912.175 435.301 911.93C435.638 911.685 435.853 911.117 435.945 910.228C436.067 909.339 436.129 907.775 436.129 905.536C436.129 903.297 436.067 901.733 435.945 900.844C435.853 899.955 435.638 899.387 435.301 899.142C434.963 898.897 434.381 898.774 433.553 898.774C432.725 898.774 432.142 898.897 431.805 899.142C431.498 899.387 431.283 899.955 431.161 900.844C431.069 901.733 431.023 903.297 431.023 905.536C431.023 907.775 431.069 909.339 431.161 910.228C431.283 911.117 431.498 911.685 431.805 911.93C432.142 912.175 432.725 912.298 433.553 912.298Z" fill="white"/>
<path d="M699.838 914.368C698.826 914.368 697.676 914.291 696.388 914.138C695.1 914.015 693.934 913.847 692.892 913.632V910.826C695.652 911.163 697.86 911.332 699.516 911.332C700.896 911.332 701.984 911.194 702.782 910.918C703.579 910.642 704.177 910.09 704.576 909.262C705.005 908.434 705.22 907.192 705.22 905.536C705.22 903.297 704.898 901.733 704.254 900.844C703.61 899.924 702.506 899.464 700.942 899.464H696.802V896.474H700.942C702.199 896.474 703.18 896.075 703.886 895.278C704.591 894.45 704.944 892.947 704.944 890.77C704.944 889.114 704.76 887.887 704.392 887.09C704.024 886.262 703.441 885.71 702.644 885.434C701.846 885.158 700.696 885.02 699.194 885.02C698.304 885.02 697.277 885.081 696.112 885.204C694.977 885.296 693.95 885.419 693.03 885.572V882.72C694.011 882.505 695.146 882.337 696.434 882.214C697.722 882.061 698.872 881.984 699.884 881.984C702.03 881.984 703.717 882.275 704.944 882.858C706.201 883.41 707.09 884.299 707.612 885.526C708.164 886.722 708.44 888.317 708.44 890.31C708.44 892.549 708.087 894.251 707.382 895.416C706.707 896.581 705.695 897.348 704.346 897.716V897.9C705.787 898.237 706.86 898.989 707.566 900.154C708.302 901.289 708.67 903.083 708.67 905.536C708.67 907.56 708.424 909.201 707.934 910.458C707.474 911.715 706.6 912.681 705.312 913.356C704.024 914.031 702.199 914.368 699.838 914.368ZM722.095 914.368C719.304 914.368 717.326 913.969 716.161 913.172C714.996 912.344 714.244 910.887 713.907 908.802C713.57 906.686 713.401 903.144 713.401 898.176C713.401 893.208 713.57 889.681 713.907 887.596C714.244 885.48 714.996 884.023 716.161 883.226C717.326 882.398 719.304 881.984 722.095 881.984C724.947 881.984 726.956 882.398 728.121 883.226C729.286 884.023 730.022 885.449 730.329 887.504C730.636 889.528 730.789 893.085 730.789 898.176C730.789 903.144 730.62 906.686 730.283 908.802C729.946 910.887 729.194 912.344 728.029 913.172C726.864 913.969 724.886 914.368 722.095 914.368ZM722.095 911.332C723.843 911.332 725.039 911.102 725.683 910.642C726.358 910.182 726.802 909.109 727.017 907.422C727.232 905.705 727.339 902.623 727.339 898.176C727.339 893.729 727.232 890.663 727.017 888.976C726.802 887.259 726.358 886.17 725.683 885.71C725.039 885.25 723.843 885.02 722.095 885.02C720.316 885.02 719.09 885.25 718.415 885.71C717.771 886.17 717.342 887.243 717.127 888.93C716.943 890.617 716.851 893.699 716.851 898.176C716.851 902.653 716.943 905.735 717.127 907.422C717.342 909.109 717.771 910.182 718.415 910.642C719.09 911.102 720.316 911.332 722.095 911.332ZM740.512 899.694C739.009 899.694 737.921 899.464 737.246 899.004C736.571 898.544 736.111 897.716 735.866 896.52C735.651 895.324 735.544 893.438 735.544 890.862C735.544 888.286 735.651 886.4 735.866 885.204C736.111 884.008 736.571 883.18 737.246 882.72C737.921 882.229 739.009 881.984 740.512 881.984C742.015 881.984 743.103 882.229 743.778 882.72C744.453 883.18 744.897 884.008 745.112 885.204C745.327 886.4 745.434 888.286 745.434 890.862C745.434 893.469 745.327 895.37 745.112 896.566C744.897 897.731 744.453 898.544 743.778 899.004C743.103 899.464 742.015 899.694 740.512 899.694ZM738.994 914L754.358 882.352H756.75L741.386 914H738.994ZM740.512 897.624C741.34 897.624 741.907 897.501 742.214 897.256C742.551 897.011 742.766 896.443 742.858 895.554C742.981 894.665 743.042 893.101 743.042 890.862C743.042 888.623 742.981 887.059 742.858 886.17C742.766 885.281 742.551 884.713 742.214 884.468C741.907 884.223 741.34 884.1 740.512 884.1C739.684 884.1 739.101 884.223 738.764 884.468C738.427 884.713 738.197 885.281 738.074 886.17C737.982 887.059 737.936 888.623 737.936 890.862C737.936 893.101 737.982 894.665 738.074 895.554C738.197 896.443 738.427 897.011 738.764 897.256C739.101 897.501 739.684 897.624 740.512 897.624ZM755.278 914.368C753.775 914.368 752.687 914.138 752.012 913.678C751.337 913.218 750.893 912.405 750.678 911.24C750.463 910.044 750.356 908.143 750.356 905.536C750.356 902.96 750.463 901.074 750.678 899.878C750.893 898.682 751.337 897.854 752.012 897.394C752.687 896.903 753.775 896.658 755.278 896.658C756.781 896.658 757.869 896.903 758.544 897.394C759.219 897.854 759.663 898.682 759.878 899.878C760.123 901.074 760.246 902.96 760.246 905.536C760.246 908.112 760.123 909.998 759.878 911.194C759.663 912.39 759.219 913.218 758.544 913.678C757.869 914.138 756.781 914.368 755.278 914.368ZM755.278 912.298C756.106 912.298 756.689 912.175 757.026 911.93C757.363 911.685 757.578 911.117 757.67 910.228C757.793 909.339 757.854 907.775 757.854 905.536C757.854 903.297 757.793 901.733 757.67 900.844C757.578 899.955 757.363 899.387 757.026 899.142C756.689 898.897 756.106 898.774 755.278 898.774C754.45 898.774 753.867 898.897 753.53 899.142C753.223 899.387 753.009 899.955 752.886 900.844C752.794 901.733 752.748 903.297 752.748 905.536C752.748 907.775 752.794 909.339 752.886 910.228C753.009 911.117 753.223 911.685 753.53 911.93C753.867 912.175 754.45 912.298 755.278 912.298Z" fill="white"/>
<path d="M994.799 914.368C993.081 914.368 991.686 914.23 990.613 913.954C989.539 913.678 988.665 913.172 987.991 912.436C987.316 911.669 986.779 910.565 986.381 909.124C986.135 908.296 985.967 907.054 985.875 905.398C985.783 903.742 985.737 901.442 985.737 898.498C985.737 895.799 985.783 893.591 985.875 891.874C985.997 890.157 986.212 888.777 986.519 887.734C987.101 885.618 988.052 884.131 989.371 883.272C990.72 882.413 992.729 881.984 995.397 881.984C996.317 881.984 997.39 882.061 998.617 882.214C999.843 882.367 1000.95 882.551 1001.93 882.766V885.572C999.782 885.204 997.804 885.02 995.995 885.02C993.909 885.02 992.391 885.342 991.441 885.986C990.521 886.599 989.907 887.734 989.601 889.39C989.325 891.046 989.187 893.745 989.187 897.486H989.417C989.815 896.811 990.459 896.259 991.349 895.83C992.238 895.401 993.603 895.186 995.443 895.186C997.436 895.186 998.969 895.401 1000.04 895.83C1001.12 896.229 1001.9 897.057 1002.39 898.314C1002.91 899.571 1003.17 901.473 1003.17 904.018C1003.17 906.778 1002.96 908.879 1002.53 910.32C1002.1 911.761 1001.28 912.804 1000.09 913.448C998.923 914.061 997.16 914.368 994.799 914.368ZM994.523 911.332C996.056 911.332 997.175 911.194 997.881 910.918C998.586 910.611 999.077 910.029 999.353 909.17C999.659 908.281 999.813 906.855 999.813 904.892C999.813 902.745 999.675 901.227 999.399 900.338C999.153 899.418 998.678 898.835 997.973 898.59C997.298 898.314 996.148 898.176 994.523 898.176C992.928 898.176 991.763 898.345 991.027 898.682C990.321 899.019 989.846 899.556 989.601 900.292C989.386 900.997 989.279 902.101 989.279 903.604C989.279 905.873 989.432 907.56 989.739 908.664C990.045 909.737 990.551 910.458 991.257 910.826C991.993 911.163 993.081 911.332 994.523 911.332ZM1016.31 914.368C1013.52 914.368 1011.54 913.969 1010.37 913.172C1009.21 912.344 1008.46 910.887 1008.12 908.802C1007.78 906.686 1007.61 903.144 1007.61 898.176C1007.61 893.208 1007.78 889.681 1008.12 887.596C1008.46 885.48 1009.21 884.023 1010.37 883.226C1011.54 882.398 1013.52 881.984 1016.31 881.984C1019.16 881.984 1021.17 882.398 1022.33 883.226C1023.5 884.023 1024.24 885.449 1024.54 887.504C1024.85 889.528 1025 893.085 1025 898.176C1025 903.144 1024.83 906.686 1024.5 908.802C1024.16 910.887 1023.41 912.344 1022.24 913.172C1021.08 913.969 1019.1 914.368 1016.31 914.368ZM1016.31 911.332C1018.06 911.332 1019.25 911.102 1019.9 910.642C1020.57 910.182 1021.02 909.109 1021.23 907.422C1021.44 905.705 1021.55 902.623 1021.55 898.176C1021.55 893.729 1021.44 890.663 1021.23 888.976C1021.02 887.259 1020.57 886.17 1019.9 885.71C1019.25 885.25 1018.06 885.02 1016.31 885.02C1014.53 885.02 1013.3 885.25 1012.63 885.71C1011.98 886.17 1011.55 887.243 1011.34 888.93C1011.16 890.617 1011.06 893.699 1011.06 898.176C1011.06 902.653 1011.16 905.735 1011.34 907.422C1011.55 909.109 1011.98 910.182 1012.63 910.642C1013.3 911.102 1014.53 911.332 1016.31 911.332ZM1034.73 899.694C1033.22 899.694 1032.13 899.464 1031.46 899.004C1030.78 898.544 1030.32 897.716 1030.08 896.52C1029.86 895.324 1029.76 893.438 1029.76 890.862C1029.76 888.286 1029.86 886.4 1030.08 885.204C1030.32 884.008 1030.78 883.18 1031.46 882.72C1032.13 882.229 1033.22 881.984 1034.73 881.984C1036.23 881.984 1037.32 882.229 1037.99 882.72C1038.67 883.18 1039.11 884.008 1039.33 885.204C1039.54 886.4 1039.65 888.286 1039.65 890.862C1039.65 893.469 1039.54 895.37 1039.33 896.566C1039.11 897.731 1038.67 898.544 1037.99 899.004C1037.32 899.464 1036.23 899.694 1034.73 899.694ZM1033.21 914L1048.57 882.352H1050.96L1035.6 914H1033.21ZM1034.73 897.624C1035.55 897.624 1036.12 897.501 1036.43 897.256C1036.76 897.011 1036.98 896.443 1037.07 895.554C1037.19 894.665 1037.26 893.101 1037.26 890.862C1037.26 888.623 1037.19 887.059 1037.07 886.17C1036.98 885.281 1036.76 884.713 1036.43 884.468C1036.12 884.223 1035.55 884.1 1034.73 884.1C1033.9 884.1 1033.31 884.223 1032.98 884.468C1032.64 884.713 1032.41 885.281 1032.29 886.17C1032.2 887.059 1032.15 888.623 1032.15 890.862C1032.15 893.101 1032.2 894.665 1032.29 895.554C1032.41 896.443 1032.64 897.011 1032.98 897.256C1033.31 897.501 1033.9 897.624 1034.73 897.624ZM1049.49 914.368C1047.99 914.368 1046.9 914.138 1046.23 913.678C1045.55 913.218 1045.11 912.405 1044.89 911.24C1044.68 910.044 1044.57 908.143 1044.57 905.536C1044.57 902.96 1044.68 901.074 1044.89 899.878C1045.11 898.682 1045.55 897.854 1046.23 897.394C1046.9 896.903 1047.99 896.658 1049.49 896.658C1050.99 896.658 1052.08 896.903 1052.76 897.394C1053.43 897.854 1053.88 898.682 1054.09 899.878C1054.34 901.074 1054.46 902.96 1054.46 905.536C1054.46 908.112 1054.34 909.998 1054.09 911.194C1053.88 912.39 1053.43 913.218 1052.76 913.678C1052.08 914.138 1050.99 914.368 1049.49 914.368ZM1049.49 912.298C1050.32 912.298 1050.9 912.175 1051.24 911.93C1051.58 911.685 1051.79 911.117 1051.88 910.228C1052.01 909.339 1052.07 907.775 1052.07 905.536C1052.07 903.297 1052.01 901.733 1051.88 900.844C1051.79 899.955 1051.58 899.387 1051.24 899.142C1050.9 898.897 1050.32 898.774 1049.49 898.774C1048.66 898.774 1048.08 898.897 1047.74 899.142C1047.44 899.387 1047.22 899.955 1047.1 900.844C1047.01 901.733 1046.96 903.297 1046.96 905.536C1046.96 907.775 1047.01 909.339 1047.1 910.228C1047.22 911.117 1047.44 911.685 1047.74 911.93C1048.08 912.175 1048.66 912.298 1049.49 912.298Z" fill="white"/>
<path d="M1285.1 914.368C1284.18 914.368 1283.09 914.291 1281.83 914.138C1280.6 913.985 1279.52 913.801 1278.56 913.586V910.78C1280.71 911.148 1282.69 911.332 1284.5 911.332C1286.58 911.332 1288.09 911.025 1289.01 910.412C1289.96 909.768 1290.57 908.618 1290.85 906.962C1291.15 905.306 1291.31 902.607 1291.31 898.866H1291.08C1290.68 899.541 1290.03 900.093 1289.14 900.522C1288.26 900.951 1286.89 901.166 1285.05 901.166C1283.06 901.166 1281.52 900.967 1280.45 900.568C1279.38 900.139 1278.58 899.295 1278.06 898.038C1277.57 896.781 1277.32 894.879 1277.32 892.334C1277.32 889.574 1277.54 887.473 1277.97 886.032C1278.4 884.591 1279.21 883.563 1280.4 882.95C1281.6 882.306 1283.36 881.984 1285.69 881.984C1287.44 881.984 1288.85 882.122 1289.93 882.398C1291.03 882.674 1291.9 883.165 1292.55 883.87C1293.22 884.575 1293.74 885.603 1294.11 886.952C1294.36 887.964 1294.53 889.313 1294.62 891C1294.71 892.687 1294.76 894.971 1294.76 897.854C1294.76 900.89 1294.7 903.328 1294.57 905.168C1294.45 906.977 1294.19 908.403 1293.79 909.446C1293.12 911.255 1292.1 912.528 1290.75 913.264C1289.44 914 1287.55 914.368 1285.1 914.368ZM1285.97 898.176C1287.57 898.176 1288.72 898.007 1289.42 897.67C1290.16 897.333 1290.63 896.811 1290.85 896.106C1291.09 895.37 1291.21 894.251 1291.21 892.748C1291.21 890.479 1291.06 888.807 1290.75 887.734C1290.45 886.63 1289.93 885.909 1289.19 885.572C1288.49 885.204 1287.41 885.02 1285.97 885.02C1284.44 885.02 1283.32 885.173 1282.61 885.48C1281.91 885.756 1281.42 886.339 1281.14 887.228C1280.86 888.087 1280.73 889.497 1280.73 891.46C1280.73 893.607 1280.85 895.14 1281.09 896.06C1281.37 896.949 1281.85 897.532 1282.52 897.808C1283.2 898.053 1284.35 898.176 1285.97 898.176ZM1308.31 914.368C1305.52 914.368 1303.54 913.969 1302.37 913.172C1301.21 912.344 1300.46 910.887 1300.12 908.802C1299.78 906.686 1299.61 903.144 1299.61 898.176C1299.61 893.208 1299.78 889.681 1300.12 887.596C1300.46 885.48 1301.21 884.023 1302.37 883.226C1303.54 882.398 1305.52 881.984 1308.31 881.984C1311.16 881.984 1313.17 882.398 1314.33 883.226C1315.5 884.023 1316.24 885.449 1316.54 887.504C1316.85 889.528 1317 893.085 1317 898.176C1317 903.144 1316.83 906.686 1316.5 908.802C1316.16 910.887 1315.41 912.344 1314.24 913.172C1313.08 913.969 1311.1 914.368 1308.31 914.368ZM1308.31 911.332C1310.06 911.332 1311.25 911.102 1311.9 910.642C1312.57 910.182 1313.02 909.109 1313.23 907.422C1313.44 905.705 1313.55 902.623 1313.55 898.176C1313.55 893.729 1313.44 890.663 1313.23 888.976C1313.02 887.259 1312.57 886.17 1311.9 885.71C1311.25 885.25 1310.06 885.02 1308.31 885.02C1306.53 885.02 1305.3 885.25 1304.63 885.71C1303.98 886.17 1303.55 887.243 1303.34 888.93C1303.16 890.617 1303.06 893.699 1303.06 898.176C1303.06 902.653 1303.16 905.735 1303.34 907.422C1303.55 909.109 1303.98 910.182 1304.63 910.642C1305.3 911.102 1306.53 911.332 1308.31 911.332ZM1326.73 899.694C1325.22 899.694 1324.13 899.464 1323.46 899.004C1322.78 898.544 1322.32 897.716 1322.08 896.52C1321.86 895.324 1321.76 893.438 1321.76 890.862C1321.76 888.286 1321.86 886.4 1322.08 885.204C1322.32 884.008 1322.78 883.18 1323.46 882.72C1324.13 882.229 1325.22 881.984 1326.73 881.984C1328.23 881.984 1329.32 882.229 1329.99 882.72C1330.67 883.18 1331.11 884.008 1331.33 885.204C1331.54 886.4 1331.65 888.286 1331.65 890.862C1331.65 893.469 1331.54 895.37 1331.33 896.566C1331.11 897.731 1330.67 898.544 1329.99 899.004C1329.32 899.464 1328.23 899.694 1326.73 899.694ZM1325.21 914L1340.57 882.352H1342.96L1327.6 914H1325.21ZM1326.73 897.624C1327.55 897.624 1328.12 897.501 1328.43 897.256C1328.76 897.011 1328.98 896.443 1329.07 895.554C1329.19 894.665 1329.26 893.101 1329.26 890.862C1329.26 888.623 1329.19 887.059 1329.07 886.17C1328.98 885.281 1328.76 884.713 1328.43 884.468C1328.12 884.223 1327.55 884.1 1326.73 884.1C1325.9 884.1 1325.31 884.223 1324.98 884.468C1324.64 884.713 1324.41 885.281 1324.29 886.17C1324.2 887.059 1324.15 888.623 1324.15 890.862C1324.15 893.101 1324.2 894.665 1324.29 895.554C1324.41 896.443 1324.64 897.011 1324.98 897.256C1325.31 897.501 1325.9 897.624 1326.73 897.624ZM1341.49 914.368C1339.99 914.368 1338.9 914.138 1338.23 913.678C1337.55 913.218 1337.11 912.405 1336.89 911.24C1336.68 910.044 1336.57 908.143 1336.57 905.536C1336.57 902.96 1336.68 901.074 1336.89 899.878C1337.11 898.682 1337.55 897.854 1338.23 897.394C1338.9 896.903 1339.99 896.658 1341.49 896.658C1342.99 896.658 1344.08 896.903 1344.76 897.394C1345.43 897.854 1345.88 898.682 1346.09 899.878C1346.34 901.074 1346.46 902.96 1346.46 905.536C1346.46 908.112 1346.34 909.998 1346.09 911.194C1345.88 912.39 1345.43 913.218 1344.76 913.678C1344.08 914.138 1342.99 914.368 1341.49 914.368ZM1341.49 912.298C1342.32 912.298 1342.9 912.175 1343.24 911.93C1343.58 911.685 1343.79 911.117 1343.88 910.228C1344.01 909.339 1344.07 907.775 1344.07 905.536C1344.07 903.297 1344.01 901.733 1343.88 900.844C1343.79 899.955 1343.58 899.387 1343.24 899.142C1342.9 898.897 1342.32 898.774 1341.49 898.774C1340.66 898.774 1340.08 898.897 1339.74 899.142C1339.44 899.387 1339.22 899.955 1339.1 900.844C1339.01 901.733 1338.96 903.297 1338.96 905.536C1338.96 907.775 1339.01 909.339 1339.1 910.228C1339.22 911.117 1339.44 911.685 1339.74 911.93C1340.08 912.175 1340.66 912.298 1341.49 912.298Z" fill="white"/>
<path d="M489.63 914V886.538L485.214 888.746V885.526L490.596 882.352H493.08V914H489.63ZM507.681 914.368C504.89 914.368 502.912 913.969 501.747 913.172C500.581 912.344 499.83 910.887 499.493 908.802C499.155 906.686 498.987 903.144 498.987 898.176C498.987 893.208 499.155 889.681 499.493 887.596C499.83 885.48 500.581 884.023 501.747 883.226C502.912 882.398 504.89 881.984 507.681 881.984C510.533 881.984 512.541 882.398 513.707 883.226C514.872 884.023 515.608 885.449 515.915 887.504C516.221 889.528 516.375 893.085 516.375 898.176C516.375 903.144 516.206 906.686 515.869 908.802C515.531 910.887 514.78 912.344 513.615 913.172C512.449 913.969 510.471 914.368 507.681 914.368ZM507.681 911.332C509.429 911.332 510.625 911.102 511.269 910.642C511.943 910.182 512.388 909.109 512.603 907.422C512.817 905.705 512.925 902.623 512.925 898.176C512.925 893.729 512.817 890.663 512.603 888.976C512.388 887.259 511.943 886.17 511.269 885.71C510.625 885.25 509.429 885.02 507.681 885.02C505.902 885.02 504.675 885.25 504.001 885.71C503.357 886.17 502.927 887.243 502.713 888.93C502.529 890.617 502.437 893.699 502.437 898.176C502.437 902.653 502.529 905.735 502.713 907.422C502.927 909.109 503.357 910.182 504.001 910.642C504.675 911.102 505.902 911.332 507.681 911.332ZM526.098 899.694C524.595 899.694 523.507 899.464 522.832 899.004C522.157 898.544 521.697 897.716 521.452 896.52C521.237 895.324 521.13 893.438 521.13 890.862C521.13 888.286 521.237 886.4 521.452 885.204C521.697 884.008 522.157 883.18 522.832 882.72C523.507 882.229 524.595 881.984 526.098 881.984C527.601 881.984 528.689 882.229 529.364 882.72C530.039 883.18 530.483 884.008 530.698 885.204C530.913 886.4 531.02 888.286 531.02 890.862C531.02 893.469 530.913 895.37 530.698 896.566C530.483 897.731 530.039 898.544 529.364 899.004C528.689 899.464 527.601 899.694 526.098 899.694ZM524.58 914L539.944 882.352H542.336L526.972 914H524.58ZM526.098 897.624C526.926 897.624 527.493 897.501 527.8 897.256C528.137 897.011 528.352 896.443 528.444 895.554C528.567 894.665 528.628 893.101 528.628 890.862C528.628 888.623 528.567 887.059 528.444 886.17C528.352 885.281 528.137 884.713 527.8 884.468C527.493 884.223 526.926 884.1 526.098 884.1C525.27 884.1 524.687 884.223 524.35 884.468C524.013 884.713 523.783 885.281 523.66 886.17C523.568 887.059 523.522 888.623 523.522 890.862C523.522 893.101 523.568 894.665 523.66 895.554C523.783 896.443 524.013 897.011 524.35 897.256C524.687 897.501 525.27 897.624 526.098 897.624ZM540.864 914.368C539.361 914.368 538.273 914.138 537.598 913.678C536.923 913.218 536.479 912.405 536.264 911.24C536.049 910.044 535.942 908.143 535.942 905.536C535.942 902.96 536.049 901.074 536.264 899.878C536.479 898.682 536.923 897.854 537.598 897.394C538.273 896.903 539.361 896.658 540.864 896.658C542.367 896.658 543.455 896.903 544.13 897.394C544.805 897.854 545.249 898.682 545.464 899.878C545.709 901.074 545.832 902.96 545.832 905.536C545.832 908.112 545.709 909.998 545.464 911.194C545.249 912.39 544.805 913.218 544.13 913.678C543.455 914.138 542.367 914.368 540.864 914.368ZM540.864 912.298C541.692 912.298 542.275 912.175 542.612 911.93C542.949 911.685 543.164 911.117 543.256 910.228C543.379 909.339 543.44 907.775 543.44 905.536C543.44 903.297 543.379 901.733 543.256 900.844C543.164 899.955 542.949 899.387 542.612 899.142C542.275 898.897 541.692 898.774 540.864 898.774C540.036 898.774 539.453 898.897 539.116 899.142C538.809 899.387 538.595 899.955 538.472 900.844C538.38 901.733 538.334 903.297 538.334 905.536C538.334 907.775 538.38 909.339 538.472 910.228C538.595 911.117 538.809 911.685 539.116 911.93C539.453 912.175 540.036 912.298 540.864 912.298Z" fill="white"/>
<path d="M804.681 914V906.502H792.951V903.788L801.323 882.352H804.957L796.585 903.466H804.727L805.371 891.736H808.131V903.466H811.443V906.502H808.131V914H804.681ZM824.128 914.368C821.337 914.368 819.359 913.969 818.194 913.172C817.029 912.344 816.277 910.887 815.94 908.802C815.603 906.686 815.434 903.144 815.434 898.176C815.434 893.208 815.603 889.681 815.94 887.596C816.277 885.48 817.029 884.023 818.194 883.226C819.359 882.398 821.337 881.984 824.128 881.984C826.98 881.984 828.989 882.398 830.154 883.226C831.319 884.023 832.055 885.449 832.362 887.504C832.669 889.528 832.822 893.085 832.822 898.176C832.822 903.144 832.653 906.686 832.316 908.802C831.979 910.887 831.227 912.344 830.062 913.172C828.897 913.969 826.919 914.368 824.128 914.368ZM824.128 911.332C825.876 911.332 827.072 911.102 827.716 910.642C828.391 910.182 828.835 909.109 829.05 907.422C829.265 905.705 829.372 902.623 829.372 898.176C829.372 893.729 829.265 890.663 829.05 888.976C828.835 887.259 828.391 886.17 827.716 885.71C827.072 885.25 825.876 885.02 824.128 885.02C822.349 885.02 821.123 885.25 820.448 885.71C819.804 886.17 819.375 887.243 819.16 888.93C818.976 890.617 818.884 893.699 818.884 898.176C818.884 902.653 818.976 905.735 819.16 907.422C819.375 909.109 819.804 910.182 820.448 910.642C821.123 911.102 822.349 911.332 824.128 911.332ZM842.545 899.694C841.043 899.694 839.954 899.464 839.279 899.004C838.605 898.544 838.145 897.716 837.899 896.52C837.685 895.324 837.577 893.438 837.577 890.862C837.577 888.286 837.685 886.4 837.899 885.204C838.145 884.008 838.605 883.18 839.279 882.72C839.954 882.229 841.043 881.984 842.545 881.984C844.048 881.984 845.137 882.229 845.811 882.72C846.486 883.18 846.931 884.008 847.145 885.204C847.36 886.4 847.467 888.286 847.467 890.862C847.467 893.469 847.36 895.37 847.145 896.566C846.931 897.731 846.486 898.544 845.811 899.004C845.137 899.464 844.048 899.694 842.545 899.694ZM841.027 914L856.391 882.352H858.783L843.419 914H841.027ZM842.545 897.624C843.373 897.624 843.941 897.501 844.247 897.256C844.585 897.011 844.799 896.443 844.891 895.554C845.014 894.665 845.075 893.101 845.075 890.862C845.075 888.623 845.014 887.059 844.891 886.17C844.799 885.281 844.585 884.713 844.247 884.468C843.941 884.223 843.373 884.1 842.545 884.1C841.717 884.1 841.135 884.223 840.797 884.468C840.46 884.713 840.23 885.281 840.107 886.17C840.015 887.059 839.969 888.623 839.969 890.862C839.969 893.101 840.015 894.665 840.107 895.554C840.23 896.443 840.46 897.011 840.797 897.256C841.135 897.501 841.717 897.624 842.545 897.624ZM857.311 914.368C855.809 914.368 854.72 914.138 854.045 913.678C853.371 913.218 852.926 912.405 852.711 911.24C852.497 910.044 852.389 908.143 852.389 905.536C852.389 902.96 852.497 901.074 852.711 899.878C852.926 898.682 853.371 897.854 854.045 897.394C854.72 896.903 855.809 896.658 857.311 896.658C858.814 896.658 859.903 896.903 860.577 897.394C861.252 897.854 861.697 898.682 861.911 899.878C862.157 901.074 862.279 902.96 862.279 905.536C862.279 908.112 862.157 909.998 861.911 911.194C861.697 912.39 861.252 913.218 860.577 913.678C859.903 914.138 858.814 914.368 857.311 914.368ZM857.311 912.298C858.139 912.298 858.722 912.175 859.059 911.93C859.397 911.685 859.611 911.117 859.703 910.228C859.826 909.339 859.887 907.775 859.887 905.536C859.887 903.297 859.826 901.733 859.703 900.844C859.611 899.955 859.397 899.387 859.059 899.142C858.722 898.897 858.139 898.774 857.311 898.774C856.483 898.774 855.901 898.897 855.563 899.142C855.257 899.387 855.042 899.955 854.919 900.844C854.827 901.733 854.781 903.297 854.781 905.536C854.781 907.775 854.827 909.339 854.919 910.228C855.042 911.117 855.257 911.685 855.563 911.93C855.901 912.175 856.483 912.298 857.311 912.298Z" fill="white"/>
<path d="M1082.01 914L1091.48 885.388H1079.11V882.352H1095.12V885.066L1085.69 914H1082.01ZM1107.65 914.368C1104.86 914.368 1102.88 913.969 1101.71 913.172C1100.55 912.344 1099.8 910.887 1099.46 908.802C1099.12 906.686 1098.95 903.144 1098.95 898.176C1098.95 893.208 1099.12 889.681 1099.46 887.596C1099.8 885.48 1100.55 884.023 1101.71 883.226C1102.88 882.398 1104.86 881.984 1107.65 881.984C1110.5 881.984 1112.51 882.398 1113.67 883.226C1114.84 884.023 1115.57 885.449 1115.88 887.504C1116.19 889.528 1116.34 893.085 1116.34 898.176C1116.34 903.144 1116.17 906.686 1115.83 908.802C1115.5 910.887 1114.75 912.344 1113.58 913.172C1112.41 913.969 1110.44 914.368 1107.65 914.368ZM1107.65 911.332C1109.39 911.332 1110.59 911.102 1111.23 910.642C1111.91 910.182 1112.35 909.109 1112.57 907.422C1112.78 905.705 1112.89 902.623 1112.89 898.176C1112.89 893.729 1112.78 890.663 1112.57 888.976C1112.35 887.259 1111.91 886.17 1111.23 885.71C1110.59 885.25 1109.39 885.02 1107.65 885.02C1105.87 885.02 1104.64 885.25 1103.97 885.71C1103.32 886.17 1102.89 887.243 1102.68 888.93C1102.49 890.617 1102.4 893.699 1102.4 898.176C1102.4 902.653 1102.49 905.735 1102.68 907.422C1102.89 909.109 1103.32 910.182 1103.97 910.642C1104.64 911.102 1105.87 911.332 1107.65 911.332ZM1126.06 899.694C1124.56 899.694 1123.47 899.464 1122.8 899.004C1122.12 898.544 1121.66 897.716 1121.42 896.52C1121.2 895.324 1121.09 893.438 1121.09 890.862C1121.09 888.286 1121.2 886.4 1121.42 885.204C1121.66 884.008 1122.12 883.18 1122.8 882.72C1123.47 882.229 1124.56 881.984 1126.06 881.984C1127.57 881.984 1128.65 882.229 1129.33 882.72C1130 883.18 1130.45 884.008 1130.66 885.204C1130.88 886.4 1130.98 888.286 1130.98 890.862C1130.98 893.469 1130.88 895.37 1130.66 896.566C1130.45 897.731 1130 898.544 1129.33 899.004C1128.65 899.464 1127.57 899.694 1126.06 899.694ZM1124.54 914L1139.91 882.352H1142.3L1126.94 914H1124.54ZM1126.06 897.624C1126.89 897.624 1127.46 897.501 1127.76 897.256C1128.1 897.011 1128.32 896.443 1128.41 895.554C1128.53 894.665 1128.59 893.101 1128.59 890.862C1128.59 888.623 1128.53 887.059 1128.41 886.17C1128.32 885.281 1128.1 884.713 1127.76 884.468C1127.46 884.223 1126.89 884.1 1126.06 884.1C1125.23 884.1 1124.65 884.223 1124.31 884.468C1123.98 884.713 1123.75 885.281 1123.62 886.17C1123.53 887.059 1123.49 888.623 1123.49 890.862C1123.49 893.101 1123.53 894.665 1123.62 895.554C1123.75 896.443 1123.98 897.011 1124.31 897.256C1124.65 897.501 1125.23 897.624 1126.06 897.624ZM1140.83 914.368C1139.33 914.368 1138.24 914.138 1137.56 913.678C1136.89 913.218 1136.44 912.405 1136.23 911.24C1136.01 910.044 1135.91 908.143 1135.91 905.536C1135.91 902.96 1136.01 901.074 1136.23 899.878C1136.44 898.682 1136.89 897.854 1137.56 897.394C1138.24 896.903 1139.33 896.658 1140.83 896.658C1142.33 896.658 1143.42 896.903 1144.09 897.394C1144.77 897.854 1145.21 898.682 1145.43 899.878C1145.67 901.074 1145.8 902.96 1145.8 905.536C1145.8 908.112 1145.67 909.998 1145.43 911.194C1145.21 912.39 1144.77 913.218 1144.09 913.678C1143.42 914.138 1142.33 914.368 1140.83 914.368ZM1140.83 912.298C1141.66 912.298 1142.24 912.175 1142.58 911.93C1142.91 911.685 1143.13 911.117 1143.22 910.228C1143.34 909.339 1143.4 907.775 1143.4 905.536C1143.4 903.297 1143.34 901.733 1143.22 900.844C1143.13 899.955 1142.91 899.387 1142.58 899.142C1142.24 898.897 1141.66 898.774 1140.83 898.774C1140 898.774 1139.42 898.897 1139.08 899.142C1138.77 899.387 1138.56 899.955 1138.44 900.844C1138.34 901.733 1138.3 903.297 1138.3 905.536C1138.3 907.775 1138.34 909.339 1138.44 910.228C1138.56 911.117 1138.77 911.685 1139.08 911.93C1139.42 912.175 1140 912.298 1140.83 912.298Z" fill="white"/>
<path d="M1375.49 914V886.538L1371.07 888.746V885.526L1376.46 882.352H1378.94V914H1375.49ZM1393.54 914.368C1390.75 914.368 1388.77 913.969 1387.61 913.172C1386.44 912.344 1385.69 910.887 1385.35 908.802C1385.01 906.686 1384.85 903.144 1384.85 898.176C1384.85 893.208 1385.01 889.681 1385.35 887.596C1385.69 885.48 1386.44 884.023 1387.61 883.226C1388.77 882.398 1390.75 881.984 1393.54 881.984C1396.39 881.984 1398.4 882.398 1399.57 883.226C1400.73 884.023 1401.47 885.449 1401.77 887.504C1402.08 889.528 1402.23 893.085 1402.23 898.176C1402.23 903.144 1402.07 906.686 1401.73 908.802C1401.39 910.887 1400.64 912.344 1399.47 913.172C1398.31 913.969 1396.33 914.368 1393.54 914.368ZM1393.54 911.332C1395.29 911.332 1396.48 911.102 1397.13 910.642C1397.8 910.182 1398.25 909.109 1398.46 907.422C1398.68 905.705 1398.78 902.623 1398.78 898.176C1398.78 893.729 1398.68 890.663 1398.46 888.976C1398.25 887.259 1397.8 886.17 1397.13 885.71C1396.48 885.25 1395.29 885.02 1393.54 885.02C1391.76 885.02 1390.53 885.25 1389.86 885.71C1389.22 886.17 1388.79 887.243 1388.57 888.93C1388.39 890.617 1388.3 893.699 1388.3 898.176C1388.3 902.653 1388.39 905.735 1388.57 907.422C1388.79 909.109 1389.22 910.182 1389.86 910.642C1390.53 911.102 1391.76 911.332 1393.54 911.332ZM1415.82 914.368C1413.03 914.368 1411.05 913.969 1409.89 913.172C1408.72 912.344 1407.97 910.887 1407.63 908.802C1407.3 906.686 1407.13 903.144 1407.13 898.176C1407.13 893.208 1407.3 889.681 1407.63 887.596C1407.97 885.48 1408.72 884.023 1409.89 883.226C1411.05 882.398 1413.03 881.984 1415.82 881.984C1418.67 881.984 1420.68 882.398 1421.85 883.226C1423.01 884.023 1423.75 885.449 1424.06 887.504C1424.36 889.528 1424.52 893.085 1424.52 898.176C1424.52 903.144 1424.35 906.686 1424.01 908.802C1423.67 910.887 1422.92 912.344 1421.76 913.172C1420.59 913.969 1418.61 914.368 1415.82 914.368ZM1415.82 911.332C1417.57 911.332 1418.77 911.102 1419.41 910.642C1420.08 910.182 1420.53 909.109 1420.74 907.422C1420.96 905.705 1421.07 902.623 1421.07 898.176C1421.07 893.729 1420.96 890.663 1420.74 888.976C1420.53 887.259 1420.08 886.17 1419.41 885.71C1418.77 885.25 1417.57 885.02 1415.82 885.02C1414.04 885.02 1412.82 885.25 1412.14 885.71C1411.5 886.17 1411.07 887.243 1410.85 888.93C1410.67 890.617 1410.58 893.699 1410.58 898.176C1410.58 902.653 1410.67 905.735 1410.85 907.422C1411.07 909.109 1411.5 910.182 1412.14 910.642C1412.82 911.102 1414.04 911.332 1415.82 911.332ZM1434.24 899.694C1432.74 899.694 1431.65 899.464 1430.97 899.004C1430.3 898.544 1429.84 897.716 1429.59 896.52C1429.38 895.324 1429.27 893.438 1429.27 890.862C1429.27 888.286 1429.38 886.4 1429.59 885.204C1429.84 884.008 1430.3 883.18 1430.97 882.72C1431.65 882.229 1432.74 881.984 1434.24 881.984C1435.74 881.984 1436.83 882.229 1437.5 882.72C1438.18 883.18 1438.62 884.008 1438.84 885.204C1439.05 886.4 1439.16 888.286 1439.16 890.862C1439.16 893.469 1439.05 895.37 1438.84 896.566C1438.62 897.731 1438.18 898.544 1437.5 899.004C1436.83 899.464 1435.74 899.694 1434.24 899.694ZM1432.72 914L1448.08 882.352H1450.48L1435.11 914H1432.72ZM1434.24 897.624C1435.07 897.624 1435.63 897.501 1435.94 897.256C1436.28 897.011 1436.49 896.443 1436.58 895.554C1436.71 894.665 1436.77 893.101 1436.77 890.862C1436.77 888.623 1436.71 887.059 1436.58 886.17C1436.49 885.281 1436.28 884.713 1435.94 884.468C1435.63 884.223 1435.07 884.1 1434.24 884.1C1433.41 884.1 1432.83 884.223 1432.49 884.468C1432.15 884.713 1431.92 885.281 1431.8 886.17C1431.71 887.059 1431.66 888.623 1431.66 890.862C1431.66 893.101 1431.71 894.665 1431.8 895.554C1431.92 896.443 1432.15 897.011 1432.49 897.256C1432.83 897.501 1433.41 897.624 1434.24 897.624ZM1449 914.368C1447.5 914.368 1446.41 914.138 1445.74 913.678C1445.06 913.218 1444.62 912.405 1444.4 911.24C1444.19 910.044 1444.08 908.143 1444.08 905.536C1444.08 902.96 1444.19 901.074 1444.4 899.878C1444.62 898.682 1445.06 897.854 1445.74 897.394C1446.41 896.903 1447.5 896.658 1449 896.658C1450.51 896.658 1451.6 896.903 1452.27 897.394C1452.95 897.854 1453.39 898.682 1453.6 899.878C1453.85 901.074 1453.97 902.96 1453.97 905.536C1453.97 908.112 1453.85 909.998 1453.6 911.194C1453.39 912.39 1452.95 913.218 1452.27 913.678C1451.6 914.138 1450.51 914.368 1449 914.368ZM1449 912.298C1449.83 912.298 1450.42 912.175 1450.75 911.93C1451.09 911.685 1451.3 911.117 1451.4 910.228C1451.52 909.339 1451.58 907.775 1451.58 905.536C1451.58 903.297 1451.52 901.733 1451.4 900.844C1451.3 899.955 1451.09 899.387 1450.75 899.142C1450.42 898.897 1449.83 898.774 1449 898.774C1448.18 898.774 1447.59 898.897 1447.26 899.142C1446.95 899.387 1446.74 899.955 1446.61 900.844C1446.52 901.733 1446.47 903.297 1446.47 905.536C1446.47 907.775 1446.52 909.339 1446.61 910.228C1446.74 911.117 1446.95 911.685 1447.26 911.93C1447.59 912.175 1448.18 912.298 1449 912.298Z" fill="white"/>
<path d="M585.694 910.964H598.16V914H582.336V910.366C582.336 907.698 582.397 905.797 582.52 904.662C582.642 903.497 582.964 902.546 583.486 901.81C584.007 901.043 584.896 900.307 586.154 899.602C587.227 898.927 589.22 897.731 592.134 896.014C593.207 895.401 593.897 894.711 594.204 893.944C594.541 893.177 594.71 891.997 594.71 890.402C594.71 888.869 594.556 887.734 594.25 886.998C593.974 886.231 593.468 885.71 592.732 885.434C592.026 885.158 590.953 885.02 589.512 885.02C587.794 885.02 585.556 885.189 582.796 885.526V882.72C583.716 882.505 584.881 882.337 586.292 882.214C587.733 882.061 589.098 881.984 590.386 881.984C592.103 881.984 593.498 882.168 594.572 882.536C595.676 882.873 596.55 883.625 597.194 884.79C597.838 885.955 598.16 887.688 598.16 889.988C598.16 891.736 598.022 893.147 597.746 894.22C597.5 895.263 597.086 896.121 596.504 896.796C595.952 897.44 595.17 898.053 594.158 898.636L587.58 902.454C586.844 902.883 586.353 903.374 586.108 903.926C585.924 904.325 585.801 904.877 585.74 905.582C585.709 906.257 585.694 907.284 585.694 908.664V910.964ZM611.387 914.368C608.596 914.368 606.618 913.969 605.453 913.172C604.288 912.344 603.536 910.887 603.199 908.802C602.862 906.686 602.693 903.144 602.693 898.176C602.693 893.208 602.862 889.681 603.199 887.596C603.536 885.48 604.288 884.023 605.453 883.226C606.618 882.398 608.596 881.984 611.387 881.984C614.239 881.984 616.248 882.398 617.413 883.226C618.578 884.023 619.314 885.449 619.621 887.504C619.928 889.528 620.081 893.085 620.081 898.176C620.081 903.144 619.912 906.686 619.575 908.802C619.238 910.887 618.486 912.344 617.321 913.172C616.156 913.969 614.178 914.368 611.387 914.368ZM611.387 911.332C613.135 911.332 614.331 911.102 614.975 910.642C615.65 910.182 616.094 909.109 616.309 907.422C616.524 905.705 616.631 902.623 616.631 898.176C616.631 893.729 616.524 890.663 616.309 888.976C616.094 887.259 615.65 886.17 614.975 885.71C614.331 885.25 613.135 885.02 611.387 885.02C609.608 885.02 608.382 885.25 607.707 885.71C607.063 886.17 606.634 887.243 606.419 888.93C606.235 890.617 606.143 893.699 606.143 898.176C606.143 902.653 606.235 905.735 606.419 907.422C606.634 909.109 607.063 910.182 607.707 910.642C608.382 911.102 609.608 911.332 611.387 911.332ZM629.804 899.694C628.301 899.694 627.213 899.464 626.538 899.004C625.863 898.544 625.403 897.716 625.158 896.52C624.943 895.324 624.836 893.438 624.836 890.862C624.836 888.286 624.943 886.4 625.158 885.204C625.403 884.008 625.863 883.18 626.538 882.72C627.213 882.229 628.301 881.984 629.804 881.984C631.307 881.984 632.395 882.229 633.07 882.72C633.745 883.18 634.189 884.008 634.404 885.204C634.619 886.4 634.726 888.286 634.726 890.862C634.726 893.469 634.619 895.37 634.404 896.566C634.189 897.731 633.745 898.544 633.07 899.004C632.395 899.464 631.307 899.694 629.804 899.694ZM628.286 914L643.65 882.352H646.042L630.678 914H628.286ZM629.804 897.624C630.632 897.624 631.199 897.501 631.506 897.256C631.843 897.011 632.058 896.443 632.15 895.554C632.273 894.665 632.334 893.101 632.334 890.862C632.334 888.623 632.273 887.059 632.15 886.17C632.058 885.281 631.843 884.713 631.506 884.468C631.199 884.223 630.632 884.1 629.804 884.1C628.976 884.1 628.393 884.223 628.056 884.468C627.719 884.713 627.489 885.281 627.366 886.17C627.274 887.059 627.228 888.623 627.228 890.862C627.228 893.101 627.274 894.665 627.366 895.554C627.489 896.443 627.719 897.011 628.056 897.256C628.393 897.501 628.976 897.624 629.804 897.624ZM644.57 914.368C643.067 914.368 641.979 914.138 641.304 913.678C640.629 913.218 640.185 912.405 639.97 911.24C639.755 910.044 639.648 908.143 639.648 905.536C639.648 902.96 639.755 901.074 639.97 899.878C640.185 898.682 640.629 897.854 641.304 897.394C641.979 896.903 643.067 896.658 644.57 896.658C646.073 896.658 647.161 896.903 647.836 897.394C648.511 897.854 648.955 898.682 649.17 899.878C649.415 901.074 649.538 902.96 649.538 905.536C649.538 908.112 649.415 909.998 649.17 911.194C648.955 912.39 648.511 913.218 647.836 913.678C647.161 914.138 646.073 914.368 644.57 914.368ZM644.57 912.298C645.398 912.298 645.981 912.175 646.318 911.93C646.655 911.685 646.87 911.117 646.962 910.228C647.085 909.339 647.146 907.775 647.146 905.536C647.146 903.297 647.085 901.733 646.962 900.844C646.87 899.955 646.655 899.387 646.318 899.142C645.981 898.897 645.398 898.774 644.57 898.774C643.742 898.774 643.159 898.897 642.822 899.142C642.515 899.387 642.301 899.955 642.178 900.844C642.086 901.733 642.04 903.297 642.04 905.536C642.04 907.775 642.086 909.339 642.178 910.228C642.301 911.117 642.515 911.685 642.822 911.93C643.159 912.175 643.742 912.298 644.57 912.298Z" fill="white"/>
<path d="M894.614 910.826C897.374 911.163 899.551 911.332 901.146 911.332C902.741 911.332 903.952 911.133 904.78 910.734C905.608 910.335 906.175 909.676 906.482 908.756C906.789 907.836 906.942 906.487 906.942 904.708C906.942 902.807 906.773 901.411 906.436 900.522C906.099 899.633 905.501 899.035 904.642 898.728C903.814 898.421 902.511 898.268 900.732 898.268C899.045 898.268 897.083 898.483 894.844 898.912V882.352H908.736V885.388H898.11V895.692C899.429 895.416 900.962 895.278 902.71 895.278C904.857 895.278 906.482 895.615 907.586 896.29C908.69 896.934 909.426 897.9 909.794 899.188C910.193 900.445 910.392 902.147 910.392 904.294C910.392 906.839 910.147 908.833 909.656 910.274C909.196 911.685 908.322 912.727 907.034 913.402C905.777 914.046 903.952 914.368 901.56 914.368C900.548 914.368 899.383 914.291 898.064 914.138C896.776 914.015 895.626 913.847 894.614 913.632V910.826ZM923.477 914.368C920.686 914.368 918.708 913.969 917.543 913.172C916.377 912.344 915.626 910.887 915.289 908.802C914.951 906.686 914.783 903.144 914.783 898.176C914.783 893.208 914.951 889.681 915.289 887.596C915.626 885.48 916.377 884.023 917.543 883.226C918.708 882.398 920.686 881.984 923.477 881.984C926.329 881.984 928.337 882.398 929.503 883.226C930.668 884.023 931.404 885.449 931.711 887.504C932.017 889.528 932.171 893.085 932.171 898.176C932.171 903.144 932.002 906.686 931.665 908.802C931.327 910.887 930.576 912.344 929.411 913.172C928.245 913.969 926.267 914.368 923.477 914.368ZM923.477 911.332C925.225 911.332 926.421 911.102 927.065 910.642C927.739 910.182 928.184 909.109 928.399 907.422C928.613 905.705 928.721 902.623 928.721 898.176C928.721 893.729 928.613 890.663 928.399 888.976C928.184 887.259 927.739 886.17 927.065 885.71C926.421 885.25 925.225 885.02 923.477 885.02C921.698 885.02 920.471 885.25 919.797 885.71C919.153 886.17 918.723 887.243 918.509 888.93C918.325 890.617 918.233 893.699 918.233 898.176C918.233 902.653 918.325 905.735 918.509 907.422C918.723 909.109 919.153 910.182 919.797 910.642C920.471 911.102 921.698 911.332 923.477 911.332ZM941.894 899.694C940.391 899.694 939.303 899.464 938.628 899.004C937.953 898.544 937.493 897.716 937.248 896.52C937.033 895.324 936.926 893.438 936.926 890.862C936.926 888.286 937.033 886.4 937.248 885.204C937.493 884.008 937.953 883.18 938.628 882.72C939.303 882.229 940.391 881.984 941.894 881.984C943.397 881.984 944.485 882.229 945.16 882.72C945.835 883.18 946.279 884.008 946.494 885.204C946.709 886.4 946.816 888.286 946.816 890.862C946.816 893.469 946.709 895.37 946.494 896.566C946.279 897.731 945.835 898.544 945.16 899.004C944.485 899.464 943.397 899.694 941.894 899.694ZM940.376 914L955.74 882.352H958.132L942.768 914H940.376ZM941.894 897.624C942.722 897.624 943.289 897.501 943.596 897.256C943.933 897.011 944.148 896.443 944.24 895.554C944.363 894.665 944.424 893.101 944.424 890.862C944.424 888.623 944.363 887.059 944.24 886.17C944.148 885.281 943.933 884.713 943.596 884.468C943.289 884.223 942.722 884.1 941.894 884.1C941.066 884.1 940.483 884.223 940.146 884.468C939.809 884.713 939.579 885.281 939.456 886.17C939.364 887.059 939.318 888.623 939.318 890.862C939.318 893.101 939.364 894.665 939.456 895.554C939.579 896.443 939.809 897.011 940.146 897.256C940.483 897.501 941.066 897.624 941.894 897.624ZM956.66 914.368C955.157 914.368 954.069 914.138 953.394 913.678C952.719 913.218 952.275 912.405 952.06 911.24C951.845 910.044 951.738 908.143 951.738 905.536C951.738 902.96 951.845 901.074 952.06 899.878C952.275 898.682 952.719 897.854 953.394 897.394C954.069 896.903 955.157 896.658 956.66 896.658C958.163 896.658 959.251 896.903 959.926 897.394C960.601 897.854 961.045 898.682 961.26 899.878C961.505 901.074 961.628 902.96 961.628 905.536C961.628 908.112 961.505 909.998 961.26 911.194C961.045 912.39 960.601 913.218 959.926 913.678C959.251 914.138 958.163 914.368 956.66 914.368ZM956.66 912.298C957.488 912.298 958.071 912.175 958.408 911.93C958.745 911.685 958.96 911.117 959.052 910.228C959.175 909.339 959.236 907.775 959.236 905.536C959.236 903.297 959.175 901.733 959.052 900.844C958.96 899.955 958.745 899.387 958.408 899.142C958.071 898.897 957.488 898.774 956.66 898.774C955.832 898.774 955.249 898.897 954.912 899.142C954.605 899.387 954.391 899.955 954.268 900.844C954.176 901.733 954.13 903.297 954.13 905.536C954.13 907.775 954.176 909.339 954.268 910.228C954.391 911.117 954.605 911.685 954.912 911.93C955.249 912.175 955.832 912.298 956.66 912.298Z" fill="white"/>
<path d="M1187.23 914.368C1184.81 914.368 1182.94 914.061 1181.62 913.448C1180.33 912.804 1179.44 911.853 1178.95 910.596C1178.49 909.339 1178.26 907.652 1178.26 905.536C1178.26 903.788 1178.42 902.408 1178.72 901.396C1179.03 900.384 1179.47 899.633 1180.06 899.142C1180.67 898.651 1181.48 898.253 1182.49 897.946V897.762C1181.08 897.425 1180.06 896.673 1179.41 895.508C1178.77 894.312 1178.45 892.579 1178.45 890.31C1178.45 888.286 1178.71 886.676 1179.23 885.48C1179.75 884.284 1180.64 883.41 1181.9 882.858C1183.18 882.275 1184.96 881.984 1187.23 881.984C1189.5 881.984 1191.26 882.275 1192.52 882.858C1193.78 883.41 1194.67 884.284 1195.19 885.48C1195.71 886.676 1195.97 888.286 1195.97 890.31C1195.97 892.579 1195.65 894.312 1195.01 895.508C1194.36 896.673 1193.35 897.425 1191.97 897.762V897.946C1192.98 898.253 1193.78 898.651 1194.36 899.142C1194.98 899.633 1195.44 900.384 1195.74 901.396C1196.05 902.408 1196.2 903.788 1196.2 905.536C1196.2 907.652 1195.96 909.339 1195.47 910.596C1195.01 911.853 1194.12 912.804 1192.8 913.448C1191.51 914.061 1189.65 914.368 1187.23 914.368ZM1187.23 896.52C1188.7 896.52 1189.81 896.367 1190.54 896.06C1191.28 895.723 1191.79 895.155 1192.06 894.358C1192.37 893.561 1192.52 892.365 1192.52 890.77C1192.52 889.145 1192.38 887.933 1192.11 887.136C1191.83 886.339 1191.33 885.787 1190.59 885.48C1189.85 885.143 1188.73 884.974 1187.23 884.974C1185.73 884.974 1184.61 885.143 1183.87 885.48C1183.14 885.787 1182.63 886.339 1182.36 887.136C1182.08 887.933 1181.94 889.145 1181.94 890.77C1181.94 892.365 1182.08 893.561 1182.36 894.358C1182.66 895.155 1183.18 895.723 1183.92 896.06C1184.66 896.367 1185.76 896.52 1187.23 896.52ZM1187.23 911.378C1188.73 911.378 1189.85 911.24 1190.59 910.964C1191.36 910.657 1191.91 910.09 1192.25 909.262C1192.58 908.434 1192.75 907.177 1192.75 905.49C1192.75 903.711 1192.6 902.408 1192.29 901.58C1191.99 900.752 1191.45 900.2 1190.68 899.924C1189.95 899.617 1188.8 899.464 1187.23 899.464C1185.67 899.464 1184.5 899.617 1183.74 899.924C1183 900.2 1182.48 900.752 1182.17 901.58C1181.87 902.408 1181.71 903.711 1181.71 905.49C1181.71 907.177 1181.88 908.434 1182.22 909.262C1182.56 910.09 1183.09 910.657 1183.83 910.964C1184.59 911.24 1185.73 911.378 1187.23 911.378ZM1209.64 914.368C1206.85 914.368 1204.88 913.969 1203.71 913.172C1202.55 912.344 1201.79 910.887 1201.46 908.802C1201.12 906.686 1200.95 903.144 1200.95 898.176C1200.95 893.208 1201.12 889.681 1201.46 887.596C1201.79 885.48 1202.55 884.023 1203.71 883.226C1204.88 882.398 1206.85 881.984 1209.64 881.984C1212.5 881.984 1214.51 882.398 1215.67 883.226C1216.84 884.023 1217.57 885.449 1217.88 887.504C1218.19 889.528 1218.34 893.085 1218.34 898.176C1218.34 903.144 1218.17 906.686 1217.83 908.802C1217.5 910.887 1216.74 912.344 1215.58 913.172C1214.41 913.969 1212.44 914.368 1209.64 914.368ZM1209.64 911.332C1211.39 911.332 1212.59 911.102 1213.23 910.642C1213.91 910.182 1214.35 909.109 1214.57 907.422C1214.78 905.705 1214.89 902.623 1214.89 898.176C1214.89 893.729 1214.78 890.663 1214.57 888.976C1214.35 887.259 1213.91 886.17 1213.23 885.71C1212.59 885.25 1211.39 885.02 1209.64 885.02C1207.87 885.02 1206.64 885.25 1205.96 885.71C1205.32 886.17 1204.89 887.243 1204.68 888.93C1204.49 890.617 1204.4 893.699 1204.4 898.176C1204.4 902.653 1204.49 905.735 1204.68 907.422C1204.89 909.109 1205.32 910.182 1205.96 910.642C1206.64 911.102 1207.87 911.332 1209.64 911.332ZM1228.06 899.694C1226.56 899.694 1225.47 899.464 1224.8 899.004C1224.12 898.544 1223.66 897.716 1223.42 896.52C1223.2 895.324 1223.09 893.438 1223.09 890.862C1223.09 888.286 1223.2 886.4 1223.42 885.204C1223.66 884.008 1224.12 883.18 1224.8 882.72C1225.47 882.229 1226.56 881.984 1228.06 881.984C1229.56 881.984 1230.65 882.229 1231.33 882.72C1232 883.18 1232.45 884.008 1232.66 885.204C1232.88 886.4 1232.98 888.286 1232.98 890.862C1232.98 893.469 1232.88 895.37 1232.66 896.566C1232.45 897.731 1232 898.544 1231.33 899.004C1230.65 899.464 1229.56 899.694 1228.06 899.694ZM1226.54 914L1241.91 882.352H1244.3L1228.94 914H1226.54ZM1228.06 897.624C1228.89 897.624 1229.46 897.501 1229.76 897.256C1230.1 897.011 1230.32 896.443 1230.41 895.554C1230.53 894.665 1230.59 893.101 1230.59 890.862C1230.59 888.623 1230.53 887.059 1230.41 886.17C1230.32 885.281 1230.1 884.713 1229.76 884.468C1229.46 884.223 1228.89 884.1 1228.06 884.1C1227.23 884.1 1226.65 884.223 1226.31 884.468C1225.98 884.713 1225.75 885.281 1225.62 886.17C1225.53 887.059 1225.49 888.623 1225.49 890.862C1225.49 893.101 1225.53 894.665 1225.62 895.554C1225.75 896.443 1225.98 897.011 1226.31 897.256C1226.65 897.501 1227.23 897.624 1228.06 897.624ZM1242.83 914.368C1241.33 914.368 1240.24 914.138 1239.56 913.678C1238.89 913.218 1238.44 912.405 1238.23 911.24C1238.01 910.044 1237.91 908.143 1237.91 905.536C1237.91 902.96 1238.01 901.074 1238.23 899.878C1238.44 898.682 1238.89 897.854 1239.56 897.394C1240.24 896.903 1241.33 896.658 1242.83 896.658C1244.33 896.658 1245.42 896.903 1246.09 897.394C1246.77 897.854 1247.21 898.682 1247.43 899.878C1247.67 901.074 1247.8 902.96 1247.8 905.536C1247.8 908.112 1247.67 909.998 1247.43 911.194C1247.21 912.39 1246.77 913.218 1246.09 913.678C1245.42 914.138 1244.33 914.368 1242.83 914.368ZM1242.83 912.298C1243.66 912.298 1244.24 912.175 1244.58 911.93C1244.91 911.685 1245.13 911.117 1245.22 910.228C1245.34 909.339 1245.4 907.775 1245.4 905.536C1245.4 903.297 1245.34 901.733 1245.22 900.844C1245.13 899.955 1244.91 899.387 1244.58 899.142C1244.24 898.897 1243.66 898.774 1242.83 898.774C1242 898.774 1241.42 898.897 1241.08 899.142C1240.77 899.387 1240.56 899.955 1240.44 900.844C1240.34 901.733 1240.3 903.297 1240.3 905.536C1240.3 907.775 1240.34 909.339 1240.44 910.228C1240.56 911.117 1240.77 911.685 1241.08 911.93C1241.42 912.175 1242 912.298 1242.83 912.298Z" fill="white"/>
</g>
<defs>
<clipPath id="clip0_1495_2843">
<rect width="1656" height="1016" fill="white"/>
</clipPath>
</defs>
</svg>
