<svg width="469" height="273" viewBox="0 0 469 273" fill="none" xmlns="http://www.w3.org/2000/svg">
<rect width="469" height="273" fill="black"/>
<path d="M323.455 111.551C320.38 109.368 317.947 106.528 316.572 104.734C316.187 104.239 315.979 103.63 315.979 103.003C315.979 102.377 316.187 101.768 316.572 101.273C319.06 98.0243 325.03 91.3359 332 91.3359C335.127 91.3359 338.05 92.6809 340.55 94.4593" stroke="#FFF3C7" stroke-width="3.33333" stroke-linecap="round" stroke-linejoin="round"/>
<path d="M335.549 99.4796C335.087 99.0091 334.535 98.6348 333.927 98.3784C333.319 98.1221 332.666 97.9887 332.006 97.9859C331.346 97.9831 330.692 98.1111 330.081 98.3623C329.471 98.6136 328.916 98.9832 328.45 99.4499C327.983 99.9166 327.613 100.471 327.362 101.081C327.11 101.692 326.982 102.346 326.985 103.006C326.987 103.666 327.121 104.319 327.377 104.927C327.633 105.535 328.007 106.087 328.478 106.55M318.666 116.335L345.333 89.668M328.666 114.175C329.748 114.497 330.87 114.663 331.999 114.668C338.969 114.668 344.939 107.98 347.428 104.731C347.812 104.236 348.021 103.626 348.02 102.999C348.02 102.372 347.811 101.763 347.426 101.268C346.552 100.127 345.613 99.0365 344.616 98.0013" stroke="#FFF3C7" stroke-width="3.33333" stroke-linecap="round" stroke-linejoin="round"/>
<path d="M299.428 101.269C300.218 102.302 300.218 103.697 299.428 104.729C296.94 107.977 290.97 114.665 284 114.665C277.03 114.665 271.06 107.977 268.572 104.729C268.187 104.234 267.979 103.625 267.979 102.999C267.979 102.372 268.187 101.763 268.572 101.269C271.06 98.0204 277.03 91.332 284 91.332C290.97 91.332 296.94 98.0204 299.428 101.269V101.269Z" stroke="#FFF3C7" stroke-width="3.33333" stroke-linecap="round" stroke-linejoin="round"/>
<path d="M284 108C286.761 108 289 105.761 289 103C289 100.239 286.761 98 284 98C281.239 98 279 100.239 279 103C279 105.761 281.239 108 284 108Z" stroke="#FFF3C7" stroke-width="3.33333" stroke-linecap="round" stroke-linejoin="round"/>
<path d="M236.001 86.332C232.704 86.332 229.482 87.3095 226.741 89.1409C224 90.9722 221.864 93.5752 220.603 96.6206C219.341 99.6661 219.011 103.017 219.654 106.25C220.297 109.483 221.885 112.453 224.216 114.784C226.546 117.115 229.516 118.702 232.749 119.345C235.982 119.988 239.333 119.658 242.379 118.397C245.424 117.135 248.027 114.999 249.858 112.258C251.69 109.517 252.667 106.295 252.667 102.999C252.667 100.81 252.236 98.6427 251.399 96.6206C250.561 94.5985 249.333 92.7612 247.786 91.2136C246.238 89.6659 244.401 88.4383 242.379 87.6007C240.357 86.7631 238.189 86.332 236.001 86.332V86.332ZM236.001 116.332C233.364 116.332 230.786 115.55 228.593 114.085C226.4 112.62 224.691 110.537 223.682 108.101C222.673 105.665 222.409 102.984 222.924 100.397C223.438 97.8111 224.708 95.4353 226.573 93.5706C228.437 91.7059 230.813 90.436 233.399 89.9216C235.986 89.4071 238.667 89.6711 241.103 90.6803C243.539 91.6895 245.622 93.3984 247.087 95.5911C248.552 97.7838 249.334 100.362 249.334 102.999C249.334 106.535 247.929 109.926 245.429 112.427C242.928 114.927 239.537 116.332 236.001 116.332V116.332Z" fill="#FFF3C7"/>
<path d="M235.999 93.0001C234.452 93.0001 232.969 93.6147 231.875 94.7087C230.781 95.8026 230.166 97.2863 230.166 98.8334C230.166 99.2755 230.342 99.6994 230.654 100.012C230.967 100.325 231.391 100.5 231.833 100.5C232.275 100.5 232.699 100.325 233.011 100.012C233.324 99.6994 233.499 99.2755 233.499 98.8334C233.499 98.339 233.646 97.8556 233.921 97.4445C234.195 97.0334 234.586 96.713 235.043 96.5237C235.499 96.3345 236.002 96.285 236.487 96.3815C236.972 96.4779 237.417 96.716 237.767 97.0657C238.117 97.4153 238.355 97.8608 238.451 98.3457C238.548 98.8307 238.498 99.3333 238.309 99.7902C238.12 100.247 237.799 100.637 237.388 100.912C236.977 101.187 236.494 101.333 235.999 101.333C235.557 101.333 235.133 101.509 234.821 101.822C234.508 102.134 234.333 102.558 234.333 103V106.333C234.333 106.775 234.508 107.199 234.821 107.512C235.133 107.825 235.557 108 235.999 108C236.441 108 236.865 107.825 237.178 107.512C237.49 107.199 237.666 106.775 237.666 106.333V104.4C239.013 104.007 240.172 103.14 240.93 101.959C241.688 100.778 241.994 99.3636 241.791 97.9752C241.588 96.5869 240.89 95.3187 239.826 94.4044C238.761 93.4902 237.402 92.9914 235.999 93.0001V93.0001Z" fill="#FFF3C7"/>
<path d="M236.001 113.001C236.921 113.001 237.667 112.255 237.667 111.335C237.667 110.414 236.921 109.668 236.001 109.668C235.08 109.668 234.334 110.414 234.334 111.335C234.334 112.255 235.08 113.001 236.001 113.001Z" fill="#FFF3C7"/>
<path d="M437.167 119.666C436.277 119.676 435.397 119.48 434.596 119.094C433.794 118.708 433.093 118.141 432.547 117.439C432.001 116.736 431.625 115.917 431.448 115.045C431.272 114.173 431.299 113.272 431.528 112.413L421.095 106.449C420.215 107.256 419.108 107.772 417.925 107.928C416.742 108.085 415.539 107.874 414.479 107.324C413.42 106.775 412.555 105.913 412.001 104.855C411.448 103.797 411.233 102.595 411.386 101.411C411.538 100.227 412.051 99.119 412.854 98.2361C413.658 97.3533 414.713 96.7387 415.877 96.4755C417.041 96.2122 418.258 96.3132 419.363 96.7646C420.468 97.216 421.408 97.9961 422.055 98.9992L431.527 93.5842C431.404 93.1212 431.339 92.6448 431.333 92.1659C431.322 90.8129 431.777 89.4973 432.622 88.4405C433.467 87.3838 434.65 86.6504 435.972 86.3639C437.294 86.0774 438.675 86.2553 439.882 86.8676C441.088 87.48 442.047 88.4893 442.596 89.7257C443.146 90.9622 443.252 92.3501 442.898 93.656C442.544 94.9618 441.75 96.1057 440.652 96.8951C439.553 97.6844 438.215 98.0711 436.865 97.9899C435.514 97.9087 434.233 97.3646 433.237 96.4492L422.987 102.308C422.975 102.741 422.915 103.169 422.805 103.588L433.238 109.549C433.937 108.908 434.781 108.448 435.698 108.207C436.614 107.966 437.576 107.953 438.499 108.168C439.422 108.383 440.279 108.82 440.994 109.441C441.71 110.062 442.264 110.849 442.607 111.732C442.95 112.616 443.072 113.57 442.963 114.511C442.854 115.453 442.517 116.353 441.981 117.135C441.445 117.917 440.726 118.556 439.887 118.997C439.048 119.438 438.114 119.668 437.167 119.666V119.666ZM437.167 111.333C436.504 111.333 435.868 111.596 435.399 112.065C434.93 112.534 434.667 113.17 434.667 113.833C434.667 114.496 434.93 115.131 435.399 115.6C435.868 116.069 436.504 116.333 437.167 116.333C437.83 116.333 438.466 116.069 438.934 115.6C439.403 115.131 439.667 114.496 439.667 113.833C439.667 113.17 439.403 112.534 438.934 112.065C438.466 111.596 437.83 111.333 437.167 111.333ZM417.167 99.6659C416.504 99.6659 415.868 99.9293 415.399 100.398C414.93 100.867 414.667 101.503 414.667 102.166C414.667 102.829 414.93 103.465 415.399 103.934C415.868 104.402 416.504 104.666 417.167 104.666C417.83 104.666 418.466 104.402 418.934 103.934C419.403 103.465 419.667 102.829 419.667 102.166C419.667 101.503 419.403 100.867 418.934 100.398C418.466 99.9293 417.83 99.6659 417.167 99.6659ZM437.167 89.6659C436.838 89.6659 436.513 89.7305 436.21 89.8562C435.907 89.9818 435.631 90.166 435.399 90.3981C435.167 90.6303 434.983 90.9059 434.857 91.2092C434.731 91.5125 434.667 91.8376 434.667 92.1659C434.667 92.4942 434.731 92.8193 434.857 93.1226C434.983 93.4259 435.167 93.7015 435.399 93.9336C435.631 94.1658 435.907 94.3499 436.21 94.4756C436.513 94.6012 436.838 94.6659 437.167 94.6659C437.83 94.6659 438.466 94.4025 438.934 93.9336C439.403 93.4648 439.667 92.8289 439.667 92.1659C439.667 91.5028 439.403 90.867 438.934 90.3981C438.466 89.9293 437.83 89.6659 437.167 89.6659V89.6659Z" fill="#FFF3C7"/>
<path d="M369.166 107.998C370.624 107.994 372.027 107.44 373.095 106.448L383.528 112.41C383.178 113.776 383.332 115.222 383.962 116.484C384.592 117.745 385.654 118.738 386.956 119.28C388.258 119.822 389.711 119.877 391.05 119.435C392.389 118.993 393.524 118.084 394.247 116.874C394.971 115.663 395.234 114.233 394.989 112.844C394.744 111.456 394.007 110.202 392.912 109.312C391.818 108.423 390.441 107.957 389.031 108C387.622 108.044 386.275 108.593 385.238 109.548L374.805 103.587C374.915 103.17 374.975 102.738 374.985 102.307L385.235 96.4482C386.222 97.3462 387.487 97.8774 388.819 97.9528C390.152 98.0281 391.469 97.643 392.551 96.8621C393.633 96.0812 394.414 94.9519 394.762 93.6638C395.11 92.3756 395.004 91.007 394.463 89.7875C393.921 88.5679 392.977 87.5717 391.788 86.9659C390.599 86.3601 389.238 86.1816 387.933 86.4603C386.628 86.7391 385.459 87.4581 384.621 88.4968C383.784 89.5354 383.329 90.8306 383.333 92.1649C383.34 92.6449 383.405 93.1232 383.528 93.5866L374.055 98.9982C373.505 98.1483 372.744 97.456 371.846 96.9892C370.948 96.5224 369.944 96.2972 368.933 96.3358C367.922 96.3744 366.938 96.6754 366.078 97.2093C365.219 97.7431 364.513 98.4914 364.03 99.3807C363.547 100.27 363.303 101.27 363.323 102.281C363.344 103.293 363.627 104.282 364.145 105.152C364.663 106.021 365.398 106.74 366.279 107.24C367.159 107.739 368.154 108 369.166 107.998V107.998Z" fill="#FFF3C7"/>
<path d="M444.667 37.9654V52.9987C444.667 54.832 443.167 56.332 441.334 56.332H414.667C412.834 56.332 411.334 54.832 411.334 52.9987L411.351 32.9987C411.351 31.1654 412.834 29.6654 414.667 29.6654H431.501C431.401 30.1987 431.334 30.7654 431.334 31.332C431.334 31.8987 431.401 32.4654 431.501 32.9987H414.667L428.001 41.332L434.117 37.5154C434.901 38.232 435.817 38.782 436.834 39.1487L428.001 44.6654L414.667 36.332V52.9987H441.334V39.4987C442.567 39.2487 443.701 38.6987 444.667 37.9654ZM434.667 31.332C434.667 34.0987 436.901 36.332 439.667 36.332C442.434 36.332 444.667 34.0987 444.667 31.332C444.667 28.5654 442.434 26.332 439.667 26.332C436.901 26.332 434.667 28.5654 434.667 31.332Z" fill="#FFF3C7"/>
<path d="M204.667 93.0013C204.667 91.168 203.167 89.668 201.334 89.668H174.667C172.834 89.668 171.334 91.168 171.334 93.0013V113.001C171.334 114.835 172.834 116.335 174.667 116.335H201.334C203.167 116.335 204.667 114.835 204.667 113.001V93.0013ZM201.334 93.0013L188.001 101.335L174.667 93.0013H201.334ZM201.334 113.001H174.667V96.3346L188.001 104.668L201.334 96.3346V113.001Z" fill="#FFF3C7"/>
<path d="M152.5 103.733V100.5H150V104.25C150 104.581 150.132 104.899 150.366 105.134L153.75 108.517V110.5H126.25V108.517L129.634 105.134C129.868 104.899 130 104.581 130 104.25V99.25C129.997 97.4935 130.457 95.7672 131.334 94.2454C132.211 92.7236 133.474 91.4603 134.996 90.583C136.518 89.7057 138.244 89.2456 140.001 89.249C141.757 89.2524 143.482 89.7193 145 90.6025V87.8087C143.81 87.2819 142.545 86.9461 141.25 86.8138V84.25H138.75V86.8125C135.668 87.1262 132.812 88.5714 130.734 90.8687C128.656 93.1661 127.504 96.1523 127.5 99.25V103.733L124.116 107.116C123.882 107.351 123.75 107.669 123.75 108V111.75C123.75 112.082 123.882 112.399 124.116 112.634C124.351 112.868 124.668 113 125 113H133.75V114.25C133.75 115.908 134.408 117.497 135.581 118.669C136.753 119.842 138.342 120.5 140 120.5C141.658 120.5 143.247 119.842 144.419 118.669C145.592 117.497 146.25 115.908 146.25 114.25V113H155C155.332 113 155.649 112.868 155.884 112.634C156.118 112.399 156.25 112.082 156.25 111.75V108C156.25 107.669 156.118 107.351 155.884 107.116L152.5 103.733ZM143.75 114.25C143.75 115.245 143.355 116.198 142.652 116.902C141.948 117.605 140.995 118 140 118C139.005 118 138.052 117.605 137.348 116.902C136.645 116.198 136.25 115.245 136.25 114.25V113H143.75V114.25Z" fill="#FFF3C7"/>
<path d="M152.5 98C155.261 98 157.5 95.7614 157.5 93C157.5 90.2386 155.261 88 152.5 88C149.739 88 147.5 90.2386 147.5 93C147.5 95.7614 149.739 98 152.5 98Z" fill="#FFF3C7"/>
<path d="M107.884 107.116L104.5 103.733V99.25C104.496 96.1523 103.344 93.1661 101.266 90.8687C99.1878 88.5714 96.3318 87.1262 93.25 86.8125V84.25H90.75V86.8125C87.6682 87.1262 84.8122 88.5714 82.7342 90.8687C80.6562 93.1661 79.5039 96.1523 79.5 99.25V103.733L76.1162 107.116C75.8818 107.351 75.7501 107.669 75.75 108V111.75C75.75 112.082 75.8817 112.399 76.1161 112.634C76.3505 112.868 76.6685 113 77 113H85.75V114.25C85.75 115.908 86.4085 117.497 87.5806 118.669C88.7527 119.842 90.3424 120.5 92 120.5C93.6576 120.5 95.2473 119.842 96.4194 118.669C97.5915 117.497 98.25 115.908 98.25 114.25V113H107C107.332 113 107.649 112.868 107.884 112.634C108.118 112.399 108.25 112.082 108.25 111.75V108C108.25 107.669 108.118 107.351 107.884 107.116ZM95.75 114.25C95.75 115.245 95.3549 116.198 94.6517 116.902C93.9484 117.605 92.9946 118 92 118C91.0054 118 90.0516 117.605 89.3483 116.902C88.6451 116.198 88.25 115.245 88.25 114.25V113H95.75V114.25Z" fill="#FFF3C7"/>
<path d="M59.8838 107.116L56.5 103.732V99.25C56.4961 96.1523 55.3438 93.1661 53.2658 90.8687C51.1878 88.5714 48.3318 87.1262 45.25 86.8125V84.25H42.75V86.8125C39.6682 87.1262 36.8122 88.5714 34.7342 90.8687C32.6562 93.1661 31.5039 96.1523 31.5 99.25V103.732L28.1162 107.116C27.8818 107.351 27.7501 107.669 27.75 108V111.75C27.75 112.082 27.8817 112.399 28.1161 112.634C28.3505 112.868 28.6685 113 29 113H37.75V113.971C37.7228 115.557 38.2818 117.097 39.3197 118.296C40.3577 119.496 41.8017 120.27 43.375 120.47C44.244 120.556 45.1214 120.46 45.9507 120.186C46.7801 119.913 47.5431 119.469 48.1907 118.883C48.8382 118.297 49.356 117.583 49.7106 116.785C50.0653 115.987 50.249 115.123 50.25 114.25V113H59C59.3315 113 59.6495 112.868 59.8839 112.634C60.1183 112.399 60.25 112.082 60.25 111.75V108C60.2499 107.669 60.1182 107.351 59.8838 107.116ZM47.75 114.25C47.75 115.245 47.3549 116.198 46.6517 116.902C45.9484 117.605 44.9946 118 44 118C43.0054 118 42.0516 117.605 41.3483 116.902C40.6451 116.198 40.25 115.245 40.25 114.25V113H47.75V114.25ZM57.75 110.5H30.25V108.517L33.6337 105.134C33.8682 104.899 33.9999 104.581 34 104.25V99.25C34 96.5978 35.0536 94.0543 36.9289 92.1789C38.8043 90.3036 41.3478 89.25 44 89.25C46.6522 89.25 49.1957 90.3036 51.0711 92.1789C52.9464 94.0543 54 96.5978 54 99.25V104.25C54.0001 104.581 54.1318 104.899 54.3662 105.134L57.75 108.517V110.5Z" fill="#FFF3C7"/>
<path d="M297.334 26.332H270.667C268.829 26.332 267.334 27.822 267.334 29.652V49.6787C267.334 51.5087 268.829 52.9987 270.667 52.9987H275.667V59.6654L286.252 52.9987H297.334C299.172 52.9987 300.667 51.5087 300.667 49.6787V29.652C300.665 28.77 300.312 27.9251 299.687 27.3027C299.062 26.6802 298.216 26.3311 297.334 26.332ZM287.334 44.6654H275.667V41.332H287.334V44.6654ZM292.334 37.9987H275.667V34.6654H292.334V37.9987Z" fill="#FFF3C7"/>
<path d="M383.034 59.6654H376.968C376.587 59.6654 376.219 59.5356 375.923 59.2973C375.626 59.059 375.421 58.7267 375.339 58.3554L374.661 55.2154C373.756 54.8189 372.898 54.323 372.103 53.737L369.041 54.712C368.679 54.8276 368.288 54.8157 367.933 54.6784C367.578 54.541 367.281 54.2865 367.091 53.957L364.051 48.7054C363.863 48.3756 363.792 47.9917 363.851 47.6166C363.909 47.2415 364.093 46.8973 364.373 46.6404L366.748 44.4737C366.64 43.4922 366.64 42.5018 366.748 41.5204L364.373 39.3587C364.093 39.1017 363.908 38.7572 363.85 38.3817C363.792 38.0062 363.862 37.622 364.051 37.292L367.084 32.037C367.274 31.7076 367.571 31.453 367.926 31.3157C368.281 31.1783 368.672 31.1665 369.034 31.282L372.096 32.257C372.503 31.957 372.926 31.677 373.363 31.4237C373.784 31.187 374.218 30.972 374.661 30.7804L375.341 27.6437C375.422 27.2724 375.627 26.9398 375.923 26.7013C376.219 26.4627 376.588 26.3324 376.968 26.332H383.034C383.414 26.3324 383.783 26.4627 384.079 26.7013C384.375 26.9398 384.58 27.2724 384.661 27.6437L385.348 30.782C386.251 31.1808 387.109 31.6765 387.906 32.2604L390.969 31.2854C391.331 31.1702 391.722 31.1823 392.076 31.3196C392.431 31.4569 392.728 31.7112 392.918 32.0404L395.951 37.2954C396.338 37.9737 396.204 38.832 395.629 39.3604L393.254 41.527C393.362 42.5085 393.362 43.4989 393.254 44.4804L395.629 46.647C396.204 47.177 396.338 48.0337 395.951 48.712L392.918 53.967C392.728 54.2965 392.43 54.551 392.076 54.6884C391.721 54.8257 391.33 54.8376 390.968 54.722L387.906 53.747C387.111 54.3326 386.254 54.8279 385.349 55.2237L384.661 58.3554C384.58 58.7264 384.374 59.0585 384.078 59.2968C383.782 59.535 383.414 59.665 383.034 59.6654V59.6654ZM379.994 36.332C378.226 36.332 376.53 37.0344 375.28 38.2847C374.03 39.5349 373.328 41.2306 373.328 42.9987C373.328 44.7668 374.03 46.4625 375.28 47.7127C376.53 48.963 378.226 49.6654 379.994 49.6654C381.762 49.6654 383.458 48.963 384.708 47.7127C385.959 46.4625 386.661 44.7668 386.661 42.9987C386.661 41.2306 385.959 39.5349 384.708 38.2847C383.458 37.0344 381.762 36.332 379.994 36.332V36.332Z" fill="#FFF3C7"/>
<path d="M335.034 59.6654H328.968C328.587 59.6654 328.219 59.5356 327.923 59.2973C327.626 59.059 327.421 58.7267 327.339 58.3554L326.661 55.2154C325.756 54.8189 324.898 54.323 324.103 53.737L321.041 54.712C320.679 54.8276 320.288 54.8157 319.933 54.6784C319.578 54.541 319.281 54.2865 319.091 53.957L316.051 48.7054C315.863 48.3756 315.792 47.9917 315.851 47.6166C315.909 47.2415 316.093 46.8973 316.373 46.6404L318.748 44.4737C318.64 43.4922 318.64 42.5018 318.748 41.5204L316.373 39.3587C316.093 39.1017 315.908 38.7572 315.85 38.3817C315.792 38.0062 315.862 37.622 316.051 37.292L319.084 32.037C319.274 31.7076 319.571 31.453 319.926 31.3157C320.281 31.1783 320.672 31.1665 321.034 31.282L324.096 32.257C324.503 31.957 324.926 31.677 325.363 31.4237C325.784 31.187 326.218 30.972 326.661 30.7804L327.341 27.6437C327.422 27.2724 327.627 26.9398 327.923 26.7013C328.219 26.4627 328.588 26.3324 328.968 26.332H335.034C335.414 26.3324 335.783 26.4627 336.079 26.7013C336.375 26.9398 336.58 27.2724 336.661 27.6437L337.348 30.782C338.252 31.1785 339.109 31.6744 339.904 32.2604L342.968 31.2854C343.33 31.1702 343.72 31.1823 344.075 31.3196C344.429 31.4569 344.726 31.7112 344.916 32.0404L347.949 37.2954C348.336 37.9737 348.203 38.832 347.628 39.3604L345.253 41.527C345.361 42.5085 345.361 43.4989 345.253 44.4804L347.628 46.647C348.203 47.177 348.336 48.0337 347.949 48.712L344.916 53.967C344.726 54.2965 344.429 54.551 344.074 54.6884C343.719 54.8257 343.328 54.8376 342.966 54.722L339.904 53.747C339.11 54.3326 338.252 54.8279 337.348 55.2237L336.661 58.3554C336.58 58.7264 336.374 59.0585 336.078 59.2968C335.782 59.535 335.414 59.665 335.034 59.6654ZM324.701 50.047L326.068 51.047C326.376 51.2737 326.696 51.482 327.029 51.672C327.343 51.8537 327.663 52.017 327.994 52.1654L329.549 52.847L330.311 56.332H333.694L334.456 52.8454L336.011 52.1637C336.689 51.8637 337.334 51.492 337.933 51.0537L339.299 50.0537L342.703 51.137L344.394 48.207L341.756 45.802L341.943 44.1154C342.026 43.377 342.026 42.632 341.943 41.8954L341.756 40.2087L344.396 37.7987L342.703 34.867L339.301 35.9504L337.933 34.9504C337.334 34.5098 336.69 34.1349 336.011 33.832L334.456 33.1504L333.694 29.6654H330.311L329.544 33.152L327.994 33.832C327.315 34.1297 326.67 34.502 326.073 34.942L324.704 35.942L321.304 34.8587L319.609 37.7987L322.248 40.2004L322.061 41.8887C321.978 42.627 321.978 43.372 322.061 44.1087L322.248 45.7954L319.609 48.2004L321.301 51.1304L324.701 50.047V50.047ZM331.994 49.6654C330.226 49.6654 328.53 48.963 327.28 47.7127C326.03 46.4625 325.328 44.7668 325.328 42.9987C325.328 41.2306 326.03 39.5349 327.28 38.2847C328.53 37.0344 330.226 36.332 331.994 36.332C333.762 36.332 335.458 37.0344 336.708 38.2847C337.959 39.5349 338.661 41.2306 338.661 42.9987C338.661 44.7668 337.959 46.4625 336.708 47.7127C335.458 48.963 333.762 49.6654 331.994 49.6654ZM331.994 39.6654C331.342 39.666 330.703 39.8583 330.159 40.2184C329.614 40.5784 329.188 41.0904 328.932 41.6908C328.676 42.2912 328.601 42.9536 328.718 43.5958C328.835 44.238 329.138 44.8317 329.589 45.3033C330.041 45.7749 330.62 46.1036 331.257 46.2487C331.893 46.3937 332.558 46.3487 333.169 46.1193C333.78 45.8899 334.311 45.486 334.694 44.958C335.078 44.4299 335.298 43.8008 335.328 43.1487V43.8154V42.9987C335.328 42.1146 334.976 41.2668 334.351 40.6417C333.726 40.0166 332.878 39.6654 331.994 39.6654Z" fill="#FFF3C7"/>
<path d="M108.973 42.7247L93.8791 27.6388L92.8673 26.6271C92.6368 26.3981 92.3251 26.2695 92.0002 26.2695C91.6752 26.2695 91.3635 26.3981 91.133 26.6271L75.0275 42.7247C74.7913 42.96 74.6046 43.2402 74.4785 43.5488C74.3524 43.8574 74.2893 44.1882 74.2931 44.5216C74.3088 45.8966 75.4533 46.9942 76.8283 46.9942H78.4884V59.7169H105.512V46.9942H107.207C107.875 46.9942 108.504 46.7325 108.977 46.2599C109.209 46.0279 109.394 45.752 109.519 45.4483C109.645 45.1445 109.709 44.8189 109.707 44.4903C109.707 43.8263 109.445 43.1974 108.973 42.7247V42.7247ZM94.1877 56.9044H89.8127V48.9356H94.1877V56.9044ZM102.699 44.1817V56.9044H96.6877V47.9981C96.6877 47.1349 95.9884 46.4356 95.1252 46.4356H88.8752C88.0119 46.4356 87.3127 47.1349 87.3127 47.9981V56.9044H81.3009V44.1817H77.5509L92.0041 29.7403L92.9064 30.6427L106.453 44.1817H102.699Z" fill="#FFF3C7"/>
<path d="M60.9727 42.7256L44.8828 26.6474C44.767 26.5314 44.6294 26.4393 44.4779 26.3764C44.3264 26.3136 44.164 26.2812 44 26.2812C43.836 26.2812 43.6736 26.3136 43.5221 26.3764C43.3706 26.4393 43.233 26.5314 43.1172 26.6474L27.0273 42.7256C26.5586 43.1943 26.293 43.831 26.293 44.4951C26.293 45.874 27.4141 46.9951 28.793 46.9951H30.4883V58.4677C30.4883 59.1591 31.0469 59.7177 31.7383 59.7177H41.5V50.9677H45.875V59.7177H56.2617C56.9531 59.7177 57.5117 59.1591 57.5117 58.4677V46.9951H59.207C59.8711 46.9951 60.5078 46.7334 60.9766 46.2607C61.9492 45.2841 61.9492 43.7021 60.9727 42.7256V42.7256Z" fill="#FFF3C7"/>
<path d="M173 36.75V55.5L181.75 50.03V31.28L173 36.75ZM191.75 54.72V35.97L184.25 31.2825V50.0325L191.75 54.7175V54.72ZM194.25 54.72V35.97L203 30.5V49.25L194.25 54.72V54.72Z" fill="#FFF3C7"/>
<path d="M249.334 26.332H222.667C220.829 26.332 219.334 27.827 219.334 29.6654V49.6654C219.334 51.5037 220.829 52.9987 222.667 52.9987H227.667V59.277L238.129 52.9987H249.334C251.172 52.9987 252.667 51.5037 252.667 49.6654V29.6654C252.667 27.827 251.172 26.332 249.334 26.332ZM249.334 49.6654H237.206L231.001 53.387V49.6654H222.667V29.6654H249.334V49.6654Z" fill="#FFF3C7"/>
<path d="M227.666 34.668H244.333V38.0013H227.666V34.668ZM227.666 41.3346H239.333V44.668H227.666V41.3346Z" fill="#FFF3C7"/>
<path d="M126.25 37.4439V53.2439L133.75 48.5589V32.7564L126.25 37.4439ZM136.25 32.7564V48.5564L143.75 53.2464V37.4439L136.25 32.7564ZM135 50.7264L125.663 56.5614L123.75 55.5014V36.7514L124.338 35.6914L134.338 29.4414H135.662L145 35.2764L154.337 29.4414L156.25 30.5014V49.2514L155.663 50.3114L145.663 56.5614H144.337L135 50.7264ZM146.25 37.4439V53.2439L153.75 48.5589V32.7564L146.25 37.4439Z" fill="#FFF2C4"/>
<rect x="26" y="143" width="105" height="100" fill="#1A0909"/>
<rect x="131" y="143" width="106" height="100" fill="#620000"/>
<rect x="237" y="143" width="105" height="100" fill="#F5DB7C"/>
<rect x="340" y="143" width="105" height="100" fill="#FFF3C7"/>
<path d="M50.443 193.781H48.913V192.761H50.443V190.352H48.913V189.332H50.443V187.075H51.6033V189.332H53.8345V187.075H54.9948V189.332H56.5248V190.352H54.9948V192.761H56.5248V193.781H54.9948V196H53.8345V193.781H51.6033V196H50.443V193.781ZM53.8345 192.774V190.339H51.6033V192.774H53.8345ZM59.6009 188.388L57.5481 189.421V188.286L59.8304 187.075H60.8121V196H59.6009V188.388ZM67.8911 193.654H64.1681L63.3011 196H62.0388L65.4941 187.075H66.0423C66.4078 187.075 66.6671 187.275 66.8201 187.674L70.0203 196H68.7708L67.8911 193.654ZM64.5251 192.634H67.5341L66.0423 188.605H66.0296L64.5251 192.634ZM73.7459 196.102C73.2019 196.102 72.7217 195.979 72.3052 195.732C71.8887 195.486 71.5657 195.141 71.3362 194.699C71.1067 194.249 70.9919 193.735 70.9919 193.157V189.918C70.9919 189.34 71.1067 188.83 71.3362 188.388C71.5657 187.938 71.8887 187.589 72.3052 187.343C72.7217 187.096 73.2019 186.973 73.7459 186.973H75.0974C75.6329 186.973 76.1047 187.096 76.5127 187.343C76.9292 187.589 77.2479 187.938 77.4689 188.388C77.6984 188.83 77.8132 189.34 77.8132 189.918V193.157C77.8132 193.735 77.6984 194.249 77.4689 194.699C77.2479 195.141 76.9334 195.486 76.5254 195.732C76.1174 195.979 75.6414 196.102 75.0974 196.102H73.7459ZM75.0719 195.018C75.5309 195.018 75.9007 194.848 76.1812 194.508C76.4617 194.168 76.6019 193.718 76.6019 193.157V189.918C76.6019 189.357 76.4617 188.907 76.1812 188.567C75.9007 188.227 75.5309 188.057 75.0719 188.057H73.7714C73.3039 188.057 72.9257 188.227 72.6367 188.567C72.3477 188.907 72.2032 189.357 72.2032 189.918V193.157C72.2032 193.718 72.3477 194.168 72.6367 194.508C72.9257 194.848 73.3039 195.018 73.7714 195.018H75.0719ZM81.9222 196.102C81.1402 196.102 80.5154 195.885 80.0479 195.452C79.5889 195.01 79.3594 194.427 79.3594 193.705H80.5579C80.5579 194.104 80.6812 194.423 80.9277 194.661C81.1742 194.899 81.5057 195.018 81.9222 195.018H83.0187C83.4692 195.018 83.8262 194.865 84.0897 194.559C84.3617 194.253 84.4977 193.837 84.4977 193.31V191.933C84.2597 192.205 83.9749 192.417 83.6434 192.57C83.3119 192.723 82.9677 192.8 82.6107 192.8H81.7564C81.2294 192.8 80.7662 192.689 80.3667 192.468C79.9672 192.247 79.6569 191.941 79.4359 191.55C79.2234 191.151 79.1172 190.692 79.1172 190.173V189.663C79.1172 189.136 79.2362 188.669 79.4742 188.261C79.7207 187.853 80.0649 187.538 80.5069 187.317C80.9489 187.088 81.4589 186.973 82.0369 186.973H82.9294C83.4819 186.973 83.9664 187.083 84.3829 187.304C84.8079 187.525 85.1352 187.84 85.3647 188.248C85.5942 188.647 85.7089 189.111 85.7089 189.638V193.31C85.7089 194.168 85.4667 194.848 84.9822 195.35C84.4977 195.851 83.8432 196.102 83.0187 196.102H81.9222ZM82.6362 191.741C83.0782 191.741 83.4734 191.61 83.8219 191.346C84.1704 191.083 84.3957 190.743 84.4977 190.326V189.536C84.4977 189.085 84.3532 188.724 84.0642 188.452C83.7752 188.171 83.3969 188.031 82.9294 188.031H82.0369C81.5269 188.031 81.1147 188.18 80.8002 188.477C80.4857 188.775 80.3284 189.17 80.3284 189.663V190.173C80.3284 190.649 80.4559 191.032 80.7109 191.321C80.9744 191.601 81.3187 191.741 81.7437 191.741H82.6362ZM89.9947 196.102C89.4507 196.102 88.9705 195.979 88.554 195.732C88.1375 195.486 87.8145 195.141 87.585 194.699C87.3555 194.249 87.2407 193.735 87.2407 193.157V189.918C87.2407 189.34 87.3555 188.83 87.585 188.388C87.8145 187.938 88.1375 187.589 88.554 187.343C88.9705 187.096 89.4507 186.973 89.9947 186.973H91.3462C91.8817 186.973 92.3535 187.096 92.7615 187.343C93.178 187.589 93.4967 187.938 93.7177 188.388C93.9472 188.83 94.062 189.34 94.062 189.918V193.157C94.062 193.735 93.9472 194.249 93.7177 194.699C93.4967 195.141 93.1822 195.486 92.7742 195.732C92.3662 195.979 91.8902 196.102 91.3462 196.102H89.9947ZM91.3207 195.018C91.7797 195.018 92.1495 194.848 92.43 194.508C92.7105 194.168 92.8507 193.718 92.8507 193.157V189.918C92.8507 189.357 92.7105 188.907 92.43 188.567C92.1495 188.227 91.7797 188.057 91.3207 188.057H90.0202C89.5527 188.057 89.1745 188.227 88.8855 188.567C88.5965 188.907 88.452 189.357 88.452 189.918V193.157C88.452 193.718 88.5965 194.168 88.8855 194.508C89.1745 194.848 89.5527 195.018 90.0202 195.018H91.3207ZM98.1709 196.102C97.3889 196.102 96.7642 195.885 96.2967 195.452C95.8377 195.01 95.6082 194.427 95.6082 193.705H96.8067C96.8067 194.104 96.9299 194.423 97.1764 194.661C97.4229 194.899 97.7544 195.018 98.1709 195.018H99.2674C99.7179 195.018 100.075 194.865 100.338 194.559C100.61 194.253 100.746 193.837 100.746 193.31V191.933C100.508 192.205 100.224 192.417 99.8922 192.57C99.5607 192.723 99.2164 192.8 98.8594 192.8H98.0052C97.4782 192.8 97.0149 192.689 96.6154 192.468C96.2159 192.247 95.9057 191.941 95.6847 191.55C95.4722 191.151 95.3659 190.692 95.3659 190.173V189.663C95.3659 189.136 95.4849 188.669 95.7229 188.261C95.9694 187.853 96.3137 187.538 96.7557 187.317C97.1977 187.088 97.7077 186.973 98.2857 186.973H99.1782C99.7307 186.973 100.215 187.083 100.632 187.304C101.057 187.525 101.384 187.84 101.613 188.248C101.843 188.647 101.958 189.111 101.958 189.638V193.31C101.958 194.168 101.715 194.848 101.231 195.35C100.746 195.851 100.092 196.102 99.2674 196.102H98.1709ZM98.8849 191.741C99.3269 191.741 99.7222 191.61 100.071 191.346C100.419 191.083 100.644 190.743 100.746 190.326V189.536C100.746 189.085 100.602 188.724 100.313 188.452C100.024 188.171 99.6457 188.031 99.1782 188.031H98.2857C97.7757 188.031 97.3634 188.18 97.0489 188.477C96.7344 188.775 96.5772 189.17 96.5772 189.663V190.173C96.5772 190.649 96.7047 191.032 96.9597 191.321C97.2232 191.601 97.5674 191.741 97.9924 191.741H98.8849Z" fill="#FFF3C7"/>
<path d="M152.986 193.781H151.456V192.761H152.986V190.352H151.456V189.332H152.986V187.075H154.146V189.332H156.378V187.075H157.538V189.332H159.068V190.352H157.538V192.761H159.068V193.781H157.538V196H156.378V193.781H154.146V196H152.986V193.781ZM156.378 192.774V190.339H154.146V192.774H156.378ZM163.33 196.102C162.76 196.102 162.259 195.979 161.825 195.732C161.4 195.486 161.069 195.137 160.831 194.687C160.593 194.228 160.474 193.705 160.474 193.118V189.944C160.474 189.34 160.589 188.817 160.818 188.375C161.056 187.925 161.388 187.581 161.813 187.343C162.238 187.096 162.731 186.973 163.292 186.973H164.388C165.119 186.973 165.71 187.198 166.16 187.649C166.611 188.099 166.836 188.694 166.836 189.434H165.65C165.65 189.017 165.531 188.686 165.293 188.439C165.064 188.184 164.762 188.057 164.388 188.057H163.292C162.799 188.057 162.408 188.227 162.119 188.567C161.83 188.898 161.685 189.357 161.685 189.944V191.333C161.906 191.01 162.195 190.76 162.552 190.581C162.918 190.394 163.287 190.301 163.661 190.301H164.49C165.281 190.301 165.91 190.539 166.377 191.015C166.853 191.482 167.091 192.098 167.091 192.863V193.361C167.091 193.905 166.972 194.385 166.734 194.801C166.505 195.209 166.173 195.528 165.74 195.758C165.315 195.987 164.822 196.102 164.261 196.102H163.33ZM164.261 195.044C164.745 195.044 165.136 194.891 165.434 194.585C165.731 194.279 165.88 193.871 165.88 193.361V192.851C165.88 192.4 165.752 192.039 165.497 191.767C165.242 191.495 164.902 191.359 164.477 191.359H163.636C163.16 191.359 162.748 191.516 162.399 191.831C162.059 192.145 161.842 192.536 161.749 193.004V193.463C161.749 193.939 161.893 194.321 162.182 194.61C162.48 194.899 162.871 195.044 163.355 195.044H164.261ZM168.14 195.018C168.14 194.534 168.225 194.113 168.395 193.756C168.573 193.399 168.862 193.084 169.262 192.812L172.424 190.581C172.619 190.445 172.768 190.288 172.87 190.109C172.98 189.922 173.036 189.731 173.036 189.536V189.128C173.036 188.805 172.925 188.545 172.704 188.35C172.483 188.154 172.186 188.057 171.812 188.057H170.639C170.231 188.057 169.903 188.201 169.657 188.49C169.419 188.771 169.3 189.157 169.3 189.65H168.089C168.089 188.826 168.314 188.176 168.764 187.7C169.223 187.215 169.84 186.973 170.613 186.973H171.812C172.543 186.973 173.129 187.173 173.571 187.572C174.022 187.963 174.247 188.482 174.247 189.128V189.536C174.247 190.309 173.89 190.938 173.176 191.423L170.103 193.539C169.831 193.726 169.636 193.922 169.517 194.126C169.406 194.33 169.351 194.597 169.351 194.929H174.349V196H168.14V195.018ZM178.281 196.102C177.737 196.102 177.257 195.979 176.841 195.732C176.424 195.486 176.101 195.141 175.872 194.699C175.642 194.249 175.527 193.735 175.527 193.157V189.918C175.527 189.34 175.642 188.83 175.872 188.388C176.101 187.938 176.424 187.589 176.841 187.343C177.257 187.096 177.737 186.973 178.281 186.973H179.633C180.168 186.973 180.64 187.096 181.048 187.343C181.465 187.589 181.783 187.938 182.004 188.388C182.234 188.83 182.349 189.34 182.349 189.918V193.157C182.349 193.735 182.234 194.249 182.004 194.699C181.783 195.141 181.469 195.486 181.061 195.732C180.653 195.979 180.177 196.102 179.633 196.102H178.281ZM179.607 195.018C180.066 195.018 180.436 194.848 180.717 194.508C180.997 194.168 181.137 193.718 181.137 193.157V189.918C181.137 189.357 180.997 188.907 180.717 188.567C180.436 188.227 180.066 188.057 179.607 188.057H178.307C177.839 188.057 177.461 188.227 177.172 188.567C176.883 188.907 176.739 189.357 176.739 189.918V193.157C176.739 193.718 176.883 194.168 177.172 194.508C177.461 194.848 177.839 195.018 178.307 195.018H179.607ZM186.636 196.102C186.092 196.102 185.612 195.979 185.195 195.732C184.779 195.486 184.456 195.141 184.226 194.699C183.997 194.249 183.882 193.735 183.882 193.157V189.918C183.882 189.34 183.997 188.83 184.226 188.388C184.456 187.938 184.779 187.589 185.195 187.343C185.612 187.096 186.092 186.973 186.636 186.973H187.988C188.523 186.973 188.995 187.096 189.403 187.343C189.819 187.589 190.138 187.938 190.359 188.388C190.589 188.83 190.703 189.34 190.703 189.918V193.157C190.703 193.735 190.589 194.249 190.359 194.699C190.138 195.141 189.824 195.486 189.416 195.732C189.008 195.979 188.532 196.102 187.988 196.102H186.636ZM187.962 195.018C188.421 195.018 188.791 194.848 189.071 194.508C189.352 194.168 189.492 193.718 189.492 193.157V189.918C189.492 189.357 189.352 188.907 189.071 188.567C188.791 188.227 188.421 188.057 187.962 188.057H186.662C186.194 188.057 185.816 188.227 185.527 188.567C185.238 188.907 185.093 189.357 185.093 189.918V193.157C185.093 193.718 185.238 194.168 185.527 194.508C185.816 194.848 186.194 195.018 186.662 195.018H187.962ZM194.991 196.102C194.447 196.102 193.967 195.979 193.55 195.732C193.134 195.486 192.811 195.141 192.581 194.699C192.352 194.249 192.237 193.735 192.237 193.157V189.918C192.237 189.34 192.352 188.83 192.581 188.388C192.811 187.938 193.134 187.589 193.55 187.343C193.967 187.096 194.447 186.973 194.991 186.973H196.342C196.878 186.973 197.35 187.096 197.758 187.343C198.174 187.589 198.493 187.938 198.714 188.388C198.943 188.83 199.058 189.34 199.058 189.918V193.157C199.058 193.735 198.943 194.249 198.714 194.699C198.493 195.141 198.178 195.486 197.77 195.732C197.362 195.979 196.886 196.102 196.342 196.102H194.991ZM196.317 195.018C196.776 195.018 197.146 194.848 197.426 194.508C197.707 194.168 197.847 193.718 197.847 193.157V189.918C197.847 189.357 197.707 188.907 197.426 188.567C197.146 188.227 196.776 188.057 196.317 188.057H195.016C194.549 188.057 194.171 188.227 193.882 188.567C193.593 188.907 193.448 189.357 193.448 189.918V193.157C193.448 193.718 193.593 194.168 193.882 194.508C194.171 194.848 194.549 195.018 195.016 195.018H196.317ZM203.346 196.102C202.802 196.102 202.321 195.979 201.905 195.732C201.488 195.486 201.165 195.141 200.936 194.699C200.706 194.249 200.592 193.735 200.592 193.157V189.918C200.592 189.34 200.706 188.83 200.936 188.388C201.165 187.938 201.488 187.589 201.905 187.343C202.321 187.096 202.802 186.973 203.346 186.973H204.697C205.233 186.973 205.704 187.096 206.112 187.343C206.529 187.589 206.848 187.938 207.069 188.388C207.298 188.83 207.413 189.34 207.413 189.918V193.157C207.413 193.735 207.298 194.249 207.069 194.699C206.848 195.141 206.533 195.486 206.125 195.732C205.717 195.979 205.241 196.102 204.697 196.102H203.346ZM204.672 195.018C205.131 195.018 205.5 194.848 205.781 194.508C206.061 194.168 206.202 193.718 206.202 193.157V189.918C206.202 189.357 206.061 188.907 205.781 188.567C205.5 188.227 205.131 188.057 204.672 188.057H203.371C202.904 188.057 202.525 188.227 202.236 188.567C201.947 188.907 201.803 189.357 201.803 189.918V193.157C201.803 193.718 201.947 194.168 202.236 194.508C202.525 194.848 202.904 195.018 203.371 195.018H204.672Z" fill="#FFF3C7"/>
<path d="M261.034 193.781H259.504V192.761H261.034V190.352H259.504V189.332H261.034V187.075H262.194V189.332H264.426V187.075H265.586V189.332H267.116V190.352H265.586V192.761H267.116V193.781H265.586V196H264.426V193.781H262.194V196H261.034V193.781ZM264.426 192.774V190.339H262.194V192.774H264.426ZM268.7 187.075H274.833V188.146H269.911V191.117H274.361V192.188H269.911V196H268.7V187.075ZM278.39 196.102C277.616 196.102 277 195.872 276.541 195.413C276.082 194.954 275.852 194.338 275.852 193.565H277.038C277.038 194.007 277.161 194.359 277.408 194.623C277.654 194.886 277.982 195.018 278.39 195.018H279.614C280.064 195.018 280.43 194.886 280.71 194.623C280.991 194.359 281.131 194.011 281.131 193.577V192.825C281.131 192.426 280.986 192.103 280.697 191.856C280.417 191.61 280.043 191.486 279.575 191.486H276.171V187.075H282.011V188.159H277.382V190.415H279.575C280.408 190.415 281.076 190.636 281.577 191.078C282.087 191.512 282.342 192.094 282.342 192.825V193.577C282.342 194.079 282.227 194.521 281.998 194.903C281.777 195.286 281.458 195.583 281.042 195.796C280.634 196 280.158 196.102 279.614 196.102H278.39ZM284.872 196C284.575 196 284.337 195.915 284.158 195.745C283.988 195.575 283.903 195.341 283.903 195.044V187.075H287.792C288.438 187.075 289.003 187.198 289.488 187.445C289.981 187.691 290.359 188.044 290.622 188.503C290.894 188.953 291.03 189.472 291.03 190.058V192.761C291.03 193.824 290.758 194.631 290.214 195.184C289.679 195.728 288.888 196 287.843 196H284.872ZM287.805 194.916C288.468 194.916 288.969 194.733 289.309 194.368C289.649 194.002 289.819 193.458 289.819 192.736V190.084C289.819 189.506 289.628 189.043 289.245 188.694C288.871 188.337 288.374 188.159 287.754 188.159H285.114V194.916H287.805ZM293.575 196C293.286 196 293.053 195.915 292.874 195.745C292.696 195.566 292.606 195.333 292.606 195.044V187.075H296.597C297.371 187.075 297.991 187.262 298.459 187.636C298.935 188.001 299.173 188.49 299.173 189.102V189.765C299.173 190.071 299.1 190.36 298.956 190.632C298.82 190.904 298.624 191.125 298.369 191.295V191.308C298.777 191.427 299.105 191.648 299.351 191.971C299.606 192.285 299.734 192.651 299.734 193.067V193.705C299.734 194.402 299.5 194.959 299.032 195.375C298.573 195.792 297.949 196 297.158 196H293.575ZM296.776 190.989C297.133 190.989 297.417 190.879 297.63 190.658C297.851 190.428 297.961 190.126 297.961 189.752V189.166C297.961 188.86 297.834 188.613 297.579 188.426C297.324 188.239 296.992 188.146 296.584 188.146H293.818V190.989H296.776ZM297.031 194.929C297.49 194.929 297.851 194.814 298.114 194.585C298.386 194.355 298.522 194.049 298.522 193.667V193.067C298.522 192.753 298.408 192.498 298.178 192.302C297.949 192.107 297.647 192.009 297.273 192.009H293.818V194.929H297.031ZM302.142 195.63C302.142 195.205 302.18 194.78 302.257 194.355C302.342 193.93 302.461 193.556 302.614 193.233L305.011 188.159H300.395V187.075H306.426V187.802L303.863 193.322C303.702 193.671 303.574 194.049 303.481 194.457C303.396 194.865 303.353 195.256 303.353 195.63V196H302.142V195.63ZM310.315 196.102C309.72 196.102 309.193 195.966 308.734 195.694C308.275 195.422 307.918 195.039 307.663 194.546C307.416 194.045 307.293 193.467 307.293 192.812V190.262C307.293 189.608 307.42 189.034 307.675 188.541C307.93 188.04 308.287 187.653 308.746 187.381C309.214 187.109 309.754 186.973 310.366 186.973H311.717C312.295 186.973 312.805 187.1 313.247 187.355C313.698 187.602 314.042 187.95 314.28 188.401C314.526 188.851 314.65 189.37 314.65 189.956H313.464C313.464 189.387 313.302 188.928 312.979 188.579C312.665 188.231 312.244 188.057 311.717 188.057H310.366C309.813 188.057 309.363 188.261 309.014 188.669C308.674 189.077 308.504 189.616 308.504 190.288V192.787C308.504 193.458 308.67 193.998 309.001 194.406C309.333 194.814 309.771 195.018 310.315 195.018H311.692C312.236 195.018 312.669 194.827 312.992 194.444C313.324 194.053 313.489 193.543 313.489 192.914H314.675C314.675 193.543 314.552 194.1 314.305 194.585C314.059 195.069 313.71 195.443 313.26 195.707C312.809 195.97 312.287 196.102 311.692 196.102H310.315Z" fill="#372B00"/>
<path d="M365.761 193.781H364.231V192.761H365.761V190.352H364.231V189.332H365.761V187.075H366.921V189.332H369.152V187.075H370.312V189.332H371.842V190.352H370.312V192.761H371.842V193.781H370.312V196H369.152V193.781H366.921V196H365.761V193.781ZM369.152 192.774V190.339H366.921V192.774H369.152ZM373.427 187.075H379.559V188.146H374.638V191.117H379.088V192.188H374.638V196H373.427V187.075ZM380.885 187.075H387.018V188.146H382.096V191.117H386.546V192.188H382.096V196H380.885V187.075ZM388.343 187.075H394.476V188.146H389.554V191.117H394.004V192.188H389.554V196H388.343V187.075ZM400.761 191.41C401.127 191.597 401.411 191.848 401.615 192.162C401.828 192.468 401.934 192.812 401.934 193.195V193.705C401.934 194.181 401.824 194.602 401.603 194.967C401.382 195.324 401.067 195.605 400.659 195.809C400.251 196.004 399.779 196.102 399.244 196.102H398.007C397.208 196.102 396.566 195.86 396.082 195.375C395.606 194.882 395.368 194.223 395.368 193.399H396.554C396.554 193.892 396.685 194.287 396.949 194.585C397.212 194.874 397.565 195.018 398.007 195.018H399.244C399.686 195.018 400.043 194.899 400.315 194.661C400.587 194.423 400.723 194.104 400.723 193.705V193.195C400.723 192.795 400.587 192.489 400.315 192.277C400.051 192.064 399.682 191.958 399.206 191.958H397.765V190.913H399.206C399.631 190.913 399.962 190.806 400.2 190.594C400.438 190.381 400.557 190.084 400.557 189.701V189.191C400.557 188.843 400.438 188.567 400.2 188.363C399.971 188.159 399.66 188.057 399.269 188.057H398.033C397.616 188.057 397.28 188.205 397.025 188.503C396.779 188.792 396.656 189.183 396.656 189.676H395.432C395.432 188.851 395.665 188.197 396.133 187.712C396.609 187.219 397.242 186.973 398.033 186.973H399.269C400.026 186.973 400.629 187.177 401.08 187.585C401.539 187.984 401.768 188.52 401.768 189.191V189.701C401.768 190.058 401.679 190.39 401.501 190.696C401.322 190.993 401.076 191.231 400.761 191.41ZM406.201 196.102C405.606 196.102 405.079 195.966 404.62 195.694C404.161 195.422 403.804 195.039 403.549 194.546C403.302 194.045 403.179 193.467 403.179 192.812V190.262C403.179 189.608 403.306 189.034 403.561 188.541C403.816 188.04 404.173 187.653 404.632 187.381C405.1 187.109 405.64 186.973 406.252 186.973H407.603C408.181 186.973 408.691 187.1 409.133 187.355C409.584 187.602 409.928 187.95 410.166 188.401C410.412 188.851 410.536 189.37 410.536 189.956H409.35C409.35 189.387 409.188 188.928 408.865 188.579C408.551 188.231 408.13 188.057 407.603 188.057H406.252C405.699 188.057 405.249 188.261 404.9 188.669C404.56 189.077 404.39 189.616 404.39 190.288V192.787C404.39 193.458 404.556 193.998 404.887 194.406C405.219 194.814 405.657 195.018 406.201 195.018H407.578C408.122 195.018 408.555 194.827 408.878 194.444C409.21 194.053 409.375 193.543 409.375 192.914H410.561C410.561 193.543 410.438 194.1 410.191 194.585C409.945 195.069 409.596 195.443 409.146 195.707C408.695 195.97 408.173 196.102 407.578 196.102H406.201ZM412.945 195.63C412.945 195.205 412.983 194.78 413.06 194.355C413.145 193.93 413.264 193.556 413.417 193.233L415.814 188.159H411.198V187.075H417.229V187.802L414.666 193.322C414.505 193.671 414.377 194.049 414.284 194.457C414.199 194.865 414.156 195.256 414.156 195.63V196H412.945V195.63Z" fill="#372B00"/>
</svg>
