<svg width="990" height="964" viewBox="0 0 990 964" fill="none" xmlns="http://www.w3.org/2000/svg">
<path d="M403.993 223.589C427.668 294.448 506.171 332.341 579.538 307.828C652.905 283.315 692.864 205.842 669.189 134.984C645.515 64.1251 567.011 26.2319 493.644 50.7447C420.277 75.2574 380.318 152.73 403.993 223.589Z" fill="#9BFFEE" stroke="#2EA28E" stroke-width="10"/>
<path d="M608.851 39.159C616.418 43.5374 623.231 48.8826 630.669 54.7177C633.037 56.5761 635.469 58.4842 638.009 60.4266C648.37 68.3502 660.084 76.4572 675.383 82.6374C697.842 91.7102 727.474 96.4188 771.331 91.2549L534.427 180.979L312.49 248.925C331.2 233.858 344.779 215.609 355.153 197.358C363.159 183.271 369.28 169.143 374.378 156.453C376.098 152.171 377.686 148.096 379.185 144.252C382.186 136.552 384.827 129.774 387.454 124.094C403.146 90.1658 425.769 54.326 482.924 29.08C524.163 15.3642 571.147 17.3452 608.851 39.159Z" fill="#9BFFEE" stroke="#2EA28E" stroke-width="10"/>
<path d="M840.726 64.8996C843.383 72.8537 711.662 124.031 546.518 179.208C381.374 234.385 239.917 278.171 237.26 270.217C235.161 263.936 437.079 185.209 437.079 185.209L440.513 199.344L628.849 136.418C628.849 136.418 623.534 124.367 622.299 122.597C746.533 83.0528 838.545 58.3711 840.726 64.8996Z" fill="#9BFFEE"/>
<path d="M442.397 204.979C459.72 256.827 515.794 284.815 567.641 267.492C619.489 250.169 647.477 194.095 630.154 142.247C612.831 90.3999 556.757 62.4121 504.909 79.735C453.062 97.0579 425.074 153.132 442.397 204.979Z" fill="black"/>
<path d="M462.121 77.9573C408.902 119.13 399.137 195.65 440.311 248.869C481.484 302.088 558.004 311.853 611.222 270.68C664.441 229.506 674.206 152.987 633.033 99.7678C591.86 46.549 515.34 36.7841 462.121 77.9573Z" fill="url(#paint0_radial_102_5109)"/>
<circle cx="536.326" cy="172.707" r="86.3677" transform="rotate(7.27235 536.326 172.707)" fill="url(#paint1_linear_102_5109)"/>
<circle cx="536.325" cy="172.708" r="77.727" transform="rotate(7.27235 536.325 172.708)" fill="black"/>
<path d="M989.244 28.4123C995.319 46.5929 792.624 130.684 536.511 216.235C280.397 301.786 67.8513 356.401 61.7756 338.22C57.2042 324.541 355.737 203.057 355.737 203.057L341.828 222.666C341.828 222.666 186.199 288.092 333.52 242.868C391.669 225.018 726.814 109.606 814 76.5C833.239 69.1948 696.573 99.7495 707.5 96.5C774.756 76.5 984.838 15.231 989.244 28.4123Z" fill="url(#paint2_linear_102_5109)"/>
<rect width="23.2174" height="2.44394" transform="matrix(-1 0 0 1 226.548 790.123)" fill="#0A2B35"/>
<path d="M646.793 354.69L550.636 330.658C530.798 334.4 560.648 355.525 431.73 338.417C302.945 321.327 298.656 350.714 292.445 393.274L292.426 393.406C275.929 506.438 287.408 646.074 287.408 646.074L165.952 665.294L184.892 789.063H233.321L194.668 858.366C194.668 876.419 194.257 917.031 210.483 942.865L266.975 878.581L254.544 963.455C403.587 958.168 543.189 914.379 583.255 890.748L568.666 695.94C607.083 661.017 664.516 645.132 698.731 635.967C698.731 635.967 709.012 688.974 726.225 719.672C740.008 744.252 765.328 764.885 765.328 764.885L819.273 748.81L835.5 707.956C878.289 676.714 857.736 543.939 842.11 481.457C842.11 481.457 857.135 444.208 861.341 426.785C863.078 419.591 861.341 411.765 854.731 401.552C844.292 387.936 838.556 383.015 825.884 373.915C803.217 357.639 761.662 354.69 761.662 354.69C761.662 354.69 762.884 351.208 749.443 346.36C725.833 337.844 680.062 354.69 646.793 354.69Z" fill="#0A5549"/>
<path d="M699.342 636.579C666.349 640.856 598.122 672.423 568.591 696.456H509.326C509.326 696.456 654.961 507.862 658.406 495.441L699.342 636.579Z" fill="url(#paint3_linear_102_5109)"/>
<path d="M750.054 357.97C698.12 312.757 662.072 486.277 662.072 486.277C662.072 486.277 693.583 410.45 717.061 380.576C737.959 353.986 751.205 374.083 750.054 357.97Z" fill="url(#paint4_linear_102_5109)"/>
<path d="M205.487 746.561L122.857 743.573L115.204 673.347L182.515 663.805L205.487 746.561Z" fill="#FFB600"/>
<path d="M266.873 878.502L357.736 655.36L359.542 611.454L450.405 517.626L555.108 440.639L624.91 476.726L555.108 459.885L587.001 866.473C587.001 866.473 532.844 895.945 450.405 920.003C367.966 944.062 280.111 942.859 280.111 942.859L266.873 878.502Z" fill="url(#paint5_linear_102_5109)"/>
<path d="M461.759 332.861C559.433 267.329 614.325 311.579 624.75 341.294C627.757 388.877 632.569 483.442 627.757 481.033C621.743 478.021 567.011 470.793 562.801 476.816C559.433 481.635 571.021 515.365 577.236 531.628C533.451 535.483 417.854 599.891 365.528 631.613L357.71 655.706C351.454 647.514 346.683 533.033 345.079 476.816L393.195 449.11L374.55 438.268L461.759 332.861Z" fill="url(#paint6_linear_102_5109)"/>
<path d="M520.323 566.316L610.901 566.316L621.287 544.321L530.71 545.543L520.323 566.316Z" fill="url(#paint7_linear_102_5109)"/>
<path d="M461.515 333.383C558.986 268.042 473.919 356.604 484.322 386.232C487.323 433.676 402.697 523.16 397.896 520.757C391.894 517.754 386.492 559.794 384.691 571.204C382.891 582.615 383.351 586.472 379.89 596.428C375.089 610.241 381.09 593.425 367.286 631.861C353.482 670.297 353.482 667.894 353.482 667.894C353.482 667.894 346.68 532.969 345.079 476.916L393.094 449.291L374.488 438.481L461.515 333.383Z" fill="url(#paint8_linear_102_5109)"/>
<path d="M488.142 297.656C514.573 286.613 569.636 293.055 593.864 297.656L600.471 334.268C579.447 363.078 539.254 403.3 506.764 435.102C477.33 463.911 412.456 526.732 386.626 568.946C394.796 467.632 457.708 345.872 488.142 297.656Z" fill="#FFB600"/>
<path d="M498.575 293.361C502.789 292.159 524.463 291.759 534.699 291.559L549.148 326.398C544.332 330.602 533.436 338.196 525.668 344.418C515.141 352.848 506.535 358.701 504.595 360.636C501.224 364 481.315 428.312 475.696 465.754C475.696 465.754 444.543 500.769 426.327 521.616C405.857 545.043 384.182 576.278 384.182 576.278C385.446 560.89 388.107 532.081 393.213 510.804C400.266 481.417 412.479 454.942 412.479 454.942C412.479 454.942 458.638 383.261 478.104 357.032L475.094 326.398C478.907 317.988 494.206 294.606 498.575 293.361Z" fill="#0A2B35"/>
<path d="M593.833 297.625C578.142 294.674 546.57 290.962 518.998 291.639C518.998 291.639 518.998 291.639 518.998 291.639C518.998 291.639 518.998 291.64 518.997 291.64C512.896 291.789 506.991 292.154 501.496 292.79C493.302 293.738 486.023 295.288 480.374 297.625C473.884 307.088 470.436 314.839 464.683 328.078C460.271 338.23 452.613 359.725 452.613 359.725L501.496 292.79C501.496 292.79 511.152 291.962 518.997 291.64C518.998 291.64 518.998 291.639 518.998 291.639C538.31 329.039 566.071 374.653 566.071 374.653C566.071 374.653 582.366 358.531 600.471 334.049L593.833 297.625Z" fill="#FFCF00"/>
<path d="M764.098 382.02C764.098 382.02 780.739 410.524 807.646 424.52C834.552 438.516 849.072 446.365 858.066 429.074C864.3 409.008 844.876 391.894 823.682 374.784C796.776 360.788 764.098 382.02 764.098 382.02Z" fill="#0A2B35"/>
<path d="M764.215 382.307V322.107L825.314 356.421V433.307C816.081 430.338 802.379 422.78 788.774 410.601C780.312 403.025 772.255 393.85 764.215 382.307Z" fill="#FFB600"/>
<path d="M819.438 748.576L841.83 479.742C868.458 595.299 870.879 680.32 835.778 707.861L819.438 748.576Z" fill="url(#paint9_linear_102_5109)"/>
<path d="M759.217 723.949L765.077 473.445L738.454 466.113C738.454 466.113 734.31 582.249 738.454 618.34C742.597 654.431 759.217 723.949 759.217 723.949Z" fill="url(#paint10_linear_102_5109)"/>
<path d="M164.73 666.517L287.626 648.373C287.626 648.373 286.927 694.622 287.626 701.343C288.326 708.064 232.877 790.122 232.877 790.122H184.892L164.73 666.517Z" fill="url(#paint11_linear_102_5109)"/>
<circle cx="9.77576" cy="9.77576" r="9.77576" transform="matrix(-1 0 0 1 814.316 446.748)" fill="#0A2B35"/>
<circle cx="9.16478" cy="9.16478" r="9.16478" transform="matrix(-1 0 0 1 345.079 655.705)" fill="#0A2B35"/>
<circle cx="9.77576" cy="9.77576" r="9.77576" transform="matrix(-1 0 0 1 810.65 478.52)" fill="#0A2B35"/>
<path d="M426.232 698.289C444.472 715.553 510.045 763.331 510.045 763.331V799.898C510.045 799.898 429.244 746.746 409.844 722.568L426.232 698.289Z" fill="url(#paint12_linear_102_5109)"/>
<path d="M287.538 724.379L261.876 746.556L269.819 724.379L287.538 699.51V724.379Z" fill="url(#paint13_linear_102_5109)"/>
<path d="M785.801 181.471C780.422 169.479 742.65 90.1357 741.215 81.0214C739.422 69.6285 719.1 106.805 736.433 146.381C750.3 178.041 755.56 190.153 757.951 194.95C744.225 200.005 722.707 214.302 724.721 228.376C720.959 219.803 713.282 204.719 703.914 199.46C703.525 199.242 703.161 199 702.822 198.739C699.894 190.63 698.228 183.414 698.228 183.414C698.228 183.414 696.882 194.16 702.822 198.739C703.99 201.972 705.358 205.348 706.902 208.464C711.131 217 703.816 237.666 706.902 245.032C714.595 263.395 719.697 287.892 719.697 287.892C729.062 299.685 750.42 322.311 760.94 318.473V363.044C772.399 383.161 809.428 418.032 827.757 414.366C845.476 408.257 847.309 392.371 845.476 383.206L830.63 324.782C841.19 285.806 844.975 217.449 819.871 230.041C816.285 213.851 820.114 197.349 799.792 205.144C798.951 193.464 798.353 175.475 785.801 181.471Z" fill="#0A5549"/>
<path d="M785.801 181.532C780.422 169.532 742.65 90.1422 741.215 81.0226C739.422 69.623 719.1 106.822 736.433 146.42C750.3 178.099 755.56 190.218 757.951 195.018C744.225 200.076 722.707 214.381 724.721 228.463C720.959 219.885 713.282 204.793 703.914 199.531C703.376 199.229 702.876 198.899 702.413 198.547C698.861 191.053 696.395 186.469 696.395 186.469C696.395 186.469 696.676 194.193 702.413 198.547C704.586 203.132 707.166 208.806 709.837 215.185C717.53 233.559 719.697 288.014 719.697 288.014C729.062 299.814 750.42 322.453 760.94 318.613C760.94 318.613 755.245 329.093 775.212 343.492C795.18 357.892 815.537 349.602 815.537 349.602C823.529 346.809 826.531 336.774 830.63 324.926C841.19 285.927 844.975 217.53 819.871 230.13C816.285 213.93 820.114 197.418 799.792 205.218C798.951 193.531 798.353 175.532 785.801 181.532Z" fill="url(#paint14_linear_102_5109)"/>
<path d="M719.823 288.403C719.823 288.403 707.782 228.804 700.061 210.296C692.999 193.365 690.896 190.133 690.896 190.133C690.896 190.133 686.006 187.213 687.842 179.136C690.896 165.694 715.112 180.542 721.446 187.078C738.527 204.706 727.377 234.615 727.377 234.615C752.571 227.678 792.163 263.94 776.566 274.818C760.97 285.697 761.214 319.226 761.214 319.226C750.656 323.094 729.221 300.289 719.823 288.403Z" fill="url(#paint15_linear_102_5109)"/>
<path d="M739.328 81.0194C740.785 90.1252 779.153 169.394 784.618 181.375C797.368 175.385 797.975 193.357 798.829 205.026C819.473 197.238 813.401 218.205 817.044 234.38C829.715 228.129 836.666 239.517 838.144 258.565C837.298 273.84 837.157 265.897 834.478 280.561C830.812 290.336 829.59 294.002 824.091 294.002C818.592 294.002 821.338 298.378 816.148 301.945C810.959 305.512 793.36 300.933 787.654 299.391C781.936 297.846 775.51 290.405 775.51 290.405L725.363 237.375C714.192 221.56 740.34 200.632 756.328 194.841C753.9 190.049 748.557 177.948 734.471 146.317C716.863 106.779 737.507 69.6372 739.328 81.0194Z" fill="url(#paint16_linear_102_5109)"/>
<path d="M740.546 81.0167C742.002 90.1108 780.36 169.278 785.823 181.244C798.57 175.261 797.356 193.21 800.031 204.864C822.85 192.611 821.636 233.295 821.636 233.295C821.636 233.295 796.339 244.191 785.823 256.629C776.719 267.398 767.007 280.561 767.007 280.561L726.585 237.172C715.416 221.377 741.557 200.476 757.541 194.693C755.113 189.906 749.772 177.821 735.69 146.231C718.087 106.743 738.725 69.6491 740.546 81.0167Z" fill="url(#paint17_linear_102_5109)"/>
<path d="M740.523 81.0172C741.978 90.1134 780.283 169.299 785.739 181.267C798.468 175.283 802.465 191.753 803.318 203.409C786.705 212.099 782.609 214.038 773.009 219.567C773.009 219.567 750.862 234.515 743.307 248.89C742.108 251.173 742.095 253.677 742.095 253.677L726.581 237.208C715.428 221.409 741.533 200.504 757.496 194.719C755.071 189.932 749.737 177.843 735.673 146.246C718.095 106.75 738.704 69.647 740.523 81.0172Z" fill="url(#paint18_linear_102_5109)"/>
<path d="M740.743 81.0227C742.206 90.1427 780.724 169.536 786.21 181.536L757.81 195.023C755.372 190.223 750.008 178.103 735.867 146.423C718.19 106.823 738.914 69.6227 740.743 81.0227Z" fill="url(#paint19_linear_102_5109)"/>
<path d="M600.362 505.829L616.469 544.537L552.133 545.001L600.362 505.829Z" fill="#FFB600"/>
<path d="M579.589 505.219L596.173 543.874L531.855 545.453L579.589 505.219Z" fill="#FFCF00"/>
<path d="M582.644 894.415L568.591 697.067L509.326 694.012V920.687L582.644 894.415Z" fill="url(#paint20_linear_102_5109)"/>
<path d="M813.868 288.969L816.819 286.547L817.892 288.969L817.356 296.538L818.697 290.786L821.648 295.63L816.819 284.428L821.648 273.227L815.478 283.823L812.795 287.456L800.874 297.666L812.795 288.969L813.868 292.905V288.969Z" fill="#281942"/>
<path d="M717.061 527.211L713.395 557.76L664.516 499.105L717.061 527.211Z" fill="url(#paint21_linear_102_5109)"/>
<path d="M717.061 475.889V507.049L670.626 484.442L717.061 475.889Z" fill="url(#paint22_linear_102_5109)"/>
<path d="M127.516 727.725L112.515 674.725L63.2863 688.52C58.5201 688.685 47.1141 694.438 39.6196 716.139C32.1252 737.839 17.7608 785.349 11.5155 806.392C17.1989 840.95 34.4792 790.181 31.8951 785.224C41.1877 784.787 39.1127 775.883 28.2794 811.323C28.2794 811.323 47.442 834.01 58.3558 836.476C68.2169 840.034 79.0641 825.626 79.0641 825.626C75.4483 831.544 93.0155 806.392 93.0155 806.392C92.0294 801.624 78.5321 795.717 101.015 780.725L110.127 783.212C115.386 778.773 124.721 766.049 119.988 750.662L127.515 744.725L127.516 727.725Z" fill="url(#paint23_linear_102_5109)"/>
<ellipse cx="5.5" cy="5" rx="5.5" ry="5" transform="matrix(-1 0 0 1 125.516 743.725)" fill="#281942"/>
<path d="M130.516 750.51H119.988C124.721 765.897 127.775 782.134 122.516 786.572L110.127 801.801C87.6433 816.794 131.016 841.072 114.071 857.072C97.5044 850.365 78.8998 841.491 82.5155 835.572L79.0641 801.801C73.6405 798.842 55.7863 785.097 50.8558 792.495C45.9252 799.892 36.5155 823.072 36.5155 823.072C39.1928 870.703 47.22 898.46 40.0155 920.572C37.5602 928.108 34.9396 932.749 30.0155 935.572C23.6864 939.201 23.8114 930.245 20.0155 930.072C27.5099 924.154 6.76088 839.777 0.515503 801.801C6.76088 780.759 10.0543 711.983 14.5155 706.072C34.5155 679.572 53.2493 670.737 58.0155 670.572L106.516 659.072L110.127 649.572L135.516 647.572L130.516 750.51Z" fill="url(#paint24_linear_102_5109)"/>
<path d="M74.3144 827.943L74.5155 828.225C74.4666 828.151 74.3989 828.057 74.3144 827.943L70.0253 821.938C68.531 819.561 67.1041 816.816 66.5155 814.225C65.8433 811.266 63.6304 805.161 65.5155 801.391C67.5155 797.391 70.5155 797.391 73.2655 798.558L77.5155 801.391L79.5155 802.725C78.5155 802.058 76.0155 799.725 73.2655 798.558L69.0155 795.725L61.0155 800.725L47.5155 805.725L57.5155 804.725L57.5155 809.225L49.0155 825.225L59.0155 811.225L64.5155 814.225L70.0253 821.938C71.7743 824.721 73.6158 827.001 74.3144 827.943Z" fill="#18181A"/>
<path d="M68.5155 703.225L120.016 750.225H130.516L106.516 683.225L111.516 734.725L90.5155 695.725L106.516 734.725L68.5155 703.225Z" fill="url(#paint25_linear_102_5109)"/>
<defs>
<radialGradient id="paint0_radial_102_5109" cx="0" cy="0" r="1" gradientUnits="userSpaceOnUse" gradientTransform="translate(536.672 174.318) rotate(142.272) scale(121.833)">
<stop/>
<stop offset="0.740697"/>
<stop offset="0.902767" stop-color="#71F0DA" stop-opacity="0.46"/>
</radialGradient>
<linearGradient id="paint1_linear_102_5109" x1="536.326" y1="86.3397" x2="536.326" y2="259.075" gradientUnits="userSpaceOnUse">
<stop stop-color="#D1FFFC"/>
<stop offset="0.5" stop-color="#0B6959"/>
<stop offset="1" stop-color="#D1FFFC"/>
</linearGradient>
<linearGradient id="paint2_linear_102_5109" x1="1003.59" y1="32.4055" x2="86.9979" y2="350.218" gradientUnits="userSpaceOnUse">
<stop offset="0.106666" stop-color="#0B6959"/>
<stop offset="0.505348" stop-color="#69FFE5"/>
<stop offset="0.826666" stop-color="#0B6959"/>
</linearGradient>
<linearGradient id="paint3_linear_102_5109" x1="692.621" y1="774.051" x2="515.435" y2="587.089" gradientUnits="userSpaceOnUse">
<stop offset="0.029888" stop-color="#281942"/>
<stop offset="0.685591" stop-color="#0A5549"/>
<stop offset="1" stop-color="#0A5549"/>
</linearGradient>
<linearGradient id="paint4_linear_102_5109" x1="693.682" y1="585.737" x2="717.672" y2="352.952" gradientUnits="userSpaceOnUse">
<stop stop-color="#281942"/>
<stop offset="1" stop-color="#0A5549"/>
</linearGradient>
<linearGradient id="paint5_linear_102_5109" x1="131.737" y1="579.147" x2="806.536" y2="872.12" gradientUnits="userSpaceOnUse">
<stop offset="0.23046" stop-color="#110B3F"/>
<stop offset="0.359512" stop-color="#633FA7" stop-opacity="0"/>
</linearGradient>
<linearGradient id="paint6_linear_102_5109" x1="334.253" y1="332.861" x2="742.045" y2="753.891" gradientUnits="userSpaceOnUse">
<stop stop-color="#281942"/>
<stop offset="0.0658353" stop-color="#0A5549"/>
<stop offset="0.361311" stop-color="#0A5549"/>
<stop offset="1" stop-color="#281942"/>
</linearGradient>
<linearGradient id="paint7_linear_102_5109" x1="573.497" y1="542.539" x2="571.772" y2="601.471" gradientUnits="userSpaceOnUse">
<stop stop-color="#0A5549"/>
<stop offset="1" stop-color="#281942"/>
</linearGradient>
<linearGradient id="paint8_linear_102_5109" x1="645.575" y1="167.955" x2="7.67853" y2="1477.28" gradientUnits="userSpaceOnUse">
<stop stop-color="#0A5549"/>
<stop stop-color="#0A5549"/>
<stop offset="1" stop-color="#281942"/>
</linearGradient>
<linearGradient id="paint9_linear_102_5109" x1="821.253" y1="1065.91" x2="802.89" y2="489.309" gradientUnits="userSpaceOnUse">
<stop stop-color="#281942"/>
<stop offset="1" stop-color="#281942" stop-opacity="0"/>
</linearGradient>
<linearGradient id="paint10_linear_102_5109" x1="736.612" y1="1002.56" x2="734.838" y2="473.801" gradientUnits="userSpaceOnUse">
<stop stop-color="#301E50"/>
<stop offset="1" stop-color="#301E50" stop-opacity="0"/>
</linearGradient>
<linearGradient id="paint11_linear_102_5109" x1="170.307" y1="684.411" x2="241.714" y2="943.293" gradientUnits="userSpaceOnUse">
<stop stop-color="#0A5549"/>
<stop offset="1" stop-color="#281942"/>
</linearGradient>
<linearGradient id="paint12_linear_102_5109" x1="459.644" y1="952.16" x2="459.644" y2="697.391" gradientUnits="userSpaceOnUse">
<stop stop-color="#281942"/>
<stop offset="0.594383" stop-color="#281942" stop-opacity="0.591966"/>
<stop offset="1" stop-color="#281942" stop-opacity="0"/>
</linearGradient>
<linearGradient id="paint13_linear_102_5109" x1="278.209" y1="711.729" x2="278.209" y2="777.716" gradientUnits="userSpaceOnUse">
<stop stop-color="#0A5549"/>
<stop offset="1" stop-color="#281942"/>
</linearGradient>
<linearGradient id="paint14_linear_102_5109" x1="748.145" y1="374.124" x2="761.394" y2="199.538" gradientUnits="userSpaceOnUse">
<stop stop-color="#281942"/>
<stop offset="0.555113" stop-color="#0A5549"/>
</linearGradient>
<linearGradient id="paint15_linear_102_5109" x1="732.443" y1="197.465" x2="735.825" y2="340.692" gradientUnits="userSpaceOnUse">
<stop offset="0.464561" stop-color="#0A5549"/>
<stop offset="1" stop-color="#281942"/>
</linearGradient>
<linearGradient id="paint16_linear_102_5109" x1="779.447" y1="78.9355" x2="779.447" y2="329.032" gradientUnits="userSpaceOnUse">
<stop offset="0.640418" stop-color="#0A5549"/>
<stop offset="1" stop-color="#281942"/>
</linearGradient>
<linearGradient id="paint17_linear_102_5109" x1="754.26" y1="238.68" x2="777.932" y2="302.325" gradientUnits="userSpaceOnUse">
<stop stop-color="#0A5549"/>
<stop offset="1" stop-color="#281942"/>
</linearGradient>
<linearGradient id="paint18_linear_102_5109" x1="768.766" y1="190.842" x2="807.331" y2="277.984" gradientUnits="userSpaceOnUse">
<stop stop-color="#0A5549"/>
<stop offset="1" stop-color="#281942"/>
</linearGradient>
<linearGradient id="paint19_linear_102_5109" x1="749.029" y1="136.536" x2="737.806" y2="321.357" gradientUnits="userSpaceOnUse">
<stop stop-color="#0A5549"/>
<stop offset="0.608564" stop-color="#281942"/>
</linearGradient>
<linearGradient id="paint20_linear_102_5109" x1="690.788" y1="686.069" x2="509.326" y2="686.069" gradientUnits="userSpaceOnUse">
<stop stop-color="#281942"/>
<stop offset="1" stop-color="#0A5549"/>
</linearGradient>
<linearGradient id="paint21_linear_102_5109" x1="690.177" y1="493.607" x2="739.056" y2="650.019" gradientUnits="userSpaceOnUse">
<stop stop-color="#0A5549"/>
<stop offset="1" stop-color="#281942"/>
</linearGradient>
<linearGradient id="paint22_linear_102_5109" x1="699.953" y1="479.555" x2="739.056" y2="598.697" gradientUnits="userSpaceOnUse">
<stop stop-color="#0A5549"/>
<stop offset="1" stop-color="#281942"/>
</linearGradient>
<linearGradient id="paint23_linear_102_5109" x1="82.5155" y1="673.725" x2="82.0222" y2="883.329" gradientUnits="userSpaceOnUse">
<stop offset="0.268537" stop-color="#0A5549"/>
<stop offset="0.550242" stop-color="#281942"/>
<stop offset="1" stop-color="#0A5549"/>
</linearGradient>
<linearGradient id="paint24_linear_102_5109" x1="75.6125" y1="709.082" x2="82.0257" y2="990.2" gradientUnits="userSpaceOnUse">
<stop stop-color="#0A5549"/>
<stop offset="1" stop-color="#281942"/>
</linearGradient>
<linearGradient id="paint25_linear_102_5109" x1="104.516" y1="694.725" x2="100.016" y2="750.225" gradientUnits="userSpaceOnUse">
<stop stop-color="#5C3A9B" stop-opacity="0.17"/>
<stop offset="1" stop-color="#281942"/>
</linearGradient>
</defs>
</svg>
