<svg width="492" height="354" viewBox="0 0 492 354" fill="none" xmlns="http://www.w3.org/2000/svg">
<path d="M492 0H0V354H492V0Z" fill="url(#paint0_linear_1603_2565)"/>
<path d="M492 0H0V35.4H492V0Z" fill="#71F0DA" fill-opacity="0.4"/>
<path d="M389.262 3.66207H115.295V28.0759H389.262V3.66207Z" fill="white" fill-opacity="0.5"/>
<path d="M6.84918 52.4897H57.0766V89.1103H6.84918V52.4897Z" fill="#D4FFF7" fill-opacity="0.4"/>
<path d="M65.0673 52.4897H151.824V58.5931H65.0673V52.4897Z" fill="#D4FFF7" fill-opacity="0.6"/>
<path d="M65.0673 252.683H151.824V258.786H65.0673V252.683Z" fill="#D4FFF7" fill-opacity="0.6"/>
<path d="M217.79 244.138H344.5V252.683H217.79V244.138Z" fill="#D4FFF7" fill-opacity="0.6"/>
<path d="M217.572 272.097H402.5V280.641H217.572V272.097Z" fill="#D4FFF7" fill-opacity="0.6"/>
<path d="M217.393 311.276H371.5V319.821H217.393V311.276Z" fill="#D4FFF7" fill-opacity="0.6"/>
<path d="M216.961 286.745H306V295.29H216.961V286.745Z" fill="#D4FFF7" fill-opacity="0.6"/>
<path d="M217.36 325.924H306.399V334.469H217.36V325.924Z" fill="#D4FFF7" fill-opacity="0.6"/>
<path d="M65.0673 302.731H151.824V308.834H65.0673V302.731Z" fill="#D4FFF7" fill-opacity="0.6"/>
<path d="M65.0673 102.538H151.824V108.641H65.0673V102.538Z" fill="#D4FFF7" fill-opacity="0.6"/>
<path d="M65.0673 152.586H151.824V158.69H65.0673V152.586Z" fill="#D4FFF7" fill-opacity="0.6"/>
<path d="M65.0673 202.634H151.824V208.738H65.0673V202.634Z" fill="#D4FFF7" fill-opacity="0.6"/>
<path d="M65.0673 67.1379H151.824V73.2414H65.0673V67.1379Z" fill="#D4FFF7" fill-opacity="0.6"/>
<path d="M65.0673 267.331H151.824V273.434H65.0673V267.331Z" fill="#D4FFF7" fill-opacity="0.6"/>
<path d="M65.0673 317.379H151.824V323.483H65.0673V317.379Z" fill="#D4FFF7" fill-opacity="0.6"/>
<path d="M65.0673 117.186H151.824V123.29H65.0673V117.186Z" fill="#D4FFF7" fill-opacity="0.6"/>
<path d="M65.0673 167.234H151.824V173.338H65.0673V167.234Z" fill="#D4FFF7" fill-opacity="0.6"/>
<path d="M65.0673 217.283H151.824V223.386H65.0673V217.283Z" fill="#D4FFF7" fill-opacity="0.6"/>
<path d="M378.988 201.414H465.745V207.517H378.988V201.414Z" fill="#D4FFF7" fill-opacity="0.6"/>
<path d="M424.65 218.503H465.745V224.607H424.65V218.503Z" fill="#D4FFF7" fill-opacity="0.6"/>
<path d="M65.0673 83.0069H128.993V89.1103H65.0673V83.0069Z" fill="#D4FFF7" fill-opacity="0.6"/>
<path d="M65.0673 283.2H128.993V289.303H65.0673V283.2Z" fill="#D4FFF7" fill-opacity="0.6"/>
<path d="M65.0673 333.248H128.993V339.352H65.0673V333.248Z" fill="#D4FFF7" fill-opacity="0.6"/>
<path d="M65.0673 133.055H128.993V139.159H65.0673V133.055Z" fill="#D4FFF7" fill-opacity="0.6"/>
<path d="M65.0673 183.103H128.993V189.207H65.0673V183.103Z" fill="#D4FFF7" fill-opacity="0.6"/>
<path d="M65.0673 233.152H128.993V239.255H65.0673V233.152Z" fill="#D4FFF7" fill-opacity="0.6"/>
<path d="M6.84918 152.586H57.0766V189.207H6.84918V152.586Z" fill="#D4FFF7" fill-opacity="0.4"/>
<path d="M6.84918 102.538H57.0766V139.159H6.84918V102.538Z" fill="#D4FFF7" fill-opacity="0.4"/>
<path d="M6.84918 202.634H57.0766V239.255H6.84918V202.634Z" fill="#D4FFF7" fill-opacity="0.4"/>
<path d="M6.84918 252.683H57.0766V289.303H6.84918V252.683Z" fill="#D4FFF7" fill-opacity="0.4"/>
<path d="M6.84918 302.731H57.0766V339.352H6.84918V302.731Z" fill="#D4FFF7" fill-opacity="0.4"/>
<path d="M465.745 52.4897H180.362V190.428H465.745V52.4897Z" fill="#258474" fill-opacity="0.4"/>
<path d="M180.362 212.4C180.362 218.468 184.962 223.386 190.636 223.386C196.31 223.386 200.91 218.468 200.91 212.4C200.91 206.332 196.31 201.414 190.636 201.414C184.962 201.414 180.362 206.332 180.362 212.4Z" fill="white" fill-opacity="0.6"/>
<path d="M208.9 212.4C208.9 218.468 213.5 223.386 219.174 223.386C224.848 223.386 229.448 218.468 229.448 212.4C229.448 206.332 224.848 201.414 219.174 201.414C213.5 201.414 208.9 206.332 208.9 212.4Z" fill="white" fill-opacity="0.6"/>
<path d="M180.452 250.345C180.452 256.412 185.052 261.331 190.726 261.331C196.4 261.331 201 256.412 201 250.345C201 244.277 196.4 239.359 190.726 239.359C185.052 239.359 180.452 244.277 180.452 250.345Z" fill="white" fill-opacity="0.6"/>
<path d="M180.452 284.303C180.452 290.371 185.052 295.29 190.726 295.29C196.4 295.29 201 290.371 201 284.303C201 278.236 196.4 273.317 190.726 273.317C185.052 273.317 180.452 278.236 180.452 284.303Z" fill="white" fill-opacity="0.6"/>
<path d="M180.452 323.483C180.452 329.55 185.052 334.469 190.726 334.469C196.4 334.469 201 329.55 201 323.483C201 317.415 196.4 312.497 190.726 312.497C185.052 312.497 180.452 317.415 180.452 323.483Z" fill="white" fill-opacity="0.6"/>
<path fill-rule="evenodd" clip-rule="evenodd" d="M353 86C351.443 107.206 345.916 122.557 336.421 132.053C334.737 133.737 332.893 135.276 330.889 136.671L330.889 144.93L319.837 155.983L313.092 144.18L294.834 125.92L283 119.158L294.053 108.105L302.356 108.105C303.738 106.1 305.269 104.258 306.947 102.579C316.443 93.0835 331.794 87.5572 353 86ZM306.544 142.94L311.754 148.15L303.939 155.965L298.728 150.755L306.544 142.94ZM298.728 135.124L303.939 140.335L290.913 153.36L285.703 148.15L298.728 135.124ZM290.913 127.309L296.123 132.519L288.308 140.335L283.098 135.124L290.913 127.309ZM325.368 108.105C322.316 108.105 319.842 110.579 319.842 113.632C319.842 116.684 322.316 119.158 325.368 119.158C328.421 119.158 330.895 116.684 330.895 113.632C330.895 110.579 328.421 108.105 325.368 108.105Z" fill="white" fill-opacity="0.7"/>
<defs>
<linearGradient id="paint0_linear_1603_2565" x1="246" y1="-374.969" x2="246" y2="354" gradientUnits="userSpaceOnUse">
<stop stop-color="#71F0DA"/>
<stop offset="1" stop-color="#418A7D" stop-opacity="0"/>
</linearGradient>
</defs>
</svg>
