<svg width="100" height="241" viewBox="0 0 100 241" fill="none" xmlns="http://www.w3.org/2000/svg">
<path d="M42.4523 100.747C28.3898 97.8183 25.2648 46.2644 52.4235 50.0981C79.5821 53.9318 74.744 106.606 60.3694 103.345C62.5873 116.228 68.7452 169.453 68.7452 169.453C68.7452 169.453 32.4718 154.59 28.4804 153.797C28.421 153.969 28.3898 154.059 28.3898 154.059C28.0025 153.792 28.0524 153.714 28.4601 153.793L42.4523 100.747Z" fill="white" fill-opacity="0.55"/>
<path d="M0 0L100 39.5391V240.529L50 220.76L0 200.99V0Z" fill="url(#paint0_linear_1092_2445)" fill-opacity="0.3"/>
<path d="M0 141.682L100 181.221V241L0 201.461V141.682Z" fill="#4E9D8F" fill-opacity="0.4"/>
<path d="M45.8333 182.633C45.8333 189.912 39.3042 195.812 31.25 195.812C23.1958 195.812 16.6667 189.912 16.6667 182.633C16.6667 175.354 23.1958 169.453 31.25 169.453C39.3042 169.453 45.8333 175.354 45.8333 182.633Z" fill="#D9D9D9" fill-opacity="0.6"/>
<path d="M86.4583 199.578C86.4583 206.857 79.9291 212.758 71.875 212.758C63.8208 212.758 57.2916 206.857 57.2916 199.578C57.2916 192.299 63.8208 186.398 71.875 186.398C79.9291 186.398 86.4583 192.299 86.4583 199.578Z" fill="#D9D9D9" fill-opacity="0.6"/>
<defs>
<linearGradient id="paint0_linear_1092_2445" x1="-185.938" y1="74.349" x2="-185.938" y2="637.636" gradientUnits="userSpaceOnUse">
<stop stop-color="#71F0DA"/>
<stop offset="0.18" stop-color="#418A7D" stop-opacity="0"/>
</linearGradient>
</defs>
</svg>
