<svg width="487" height="291" viewBox="0 0 487 291" fill="none" xmlns="http://www.w3.org/2000/svg">
<path d="M319.364 69.6933H321.812V218.861H319.364V69.6933Z" fill="#D9D9D9"/>
<path d="M172.53 69.6933H174.977V218.861H172.53V69.6933Z" fill="#D9D9D9"/>
<path d="M321.812 216.416V218.861H172.53V216.416H321.812Z" fill="#D9D9D9"/>
<path d="M321.812 70.916V73.3613L172.53 73.3613V70.916H321.812Z" fill="#D9D9D9"/>
<path d="M1.22362 0H487V291H1.22362V0Z" fill="url(#paint0_linear_1106_2267)"/>
<path d="M9.78894 41.5714H102.784V273.882H9.78894V41.5714Z" fill="#71F0DA" fill-opacity="0.3"/>
<path d="M12.2362 123.492H92.995V133.273H12.2362V123.492Z" fill="#71F0DA" fill-opacity="0.7"/>
<path d="M12.2362 198.076H92.995V207.857H12.2362V198.076Z" fill="#71F0DA" fill-opacity="0.7"/>
<path d="M12.2362 86.8109H92.995V95.3697H12.2362V86.8109Z" fill="#71F0DA" fill-opacity="0.7"/>
<path d="M12.2362 161.395H92.995V171.176H12.2362V161.395Z" fill="#71F0DA" fill-opacity="0.7"/>
<path d="M12.2362 234.756H92.995V244.538H12.2362V234.756Z" fill="#71F0DA" fill-opacity="0.7"/>
<path d="M12.2362 61.1345H92.995V70.916H12.2362V61.1345Z" fill="#71F0DA" fill-opacity="0.7"/>
<path d="M12.2362 135.718H92.995V145.5H12.2362V135.718Z" fill="#71F0DA" fill-opacity="0.7"/>
<path d="M12.2362 211.525H92.995V220.084H12.2362V211.525Z" fill="#71F0DA" fill-opacity="0.7"/>
<path d="M12.2362 99.0378H92.995V108.819H12.2362V99.0378Z" fill="#71F0DA" fill-opacity="0.7"/>
<path d="M12.2362 172.399H92.995V182.181H12.2362V172.399Z" fill="#71F0DA" fill-opacity="0.7"/>
<path d="M12.2362 248.206H92.995V257.987H12.2362V248.206Z" fill="#71F0DA" fill-opacity="0.7"/>
<path d="M12.2362 73.3613H92.995V83.1429H12.2362V73.3613Z" fill="#71F0DA" fill-opacity="0.7"/>
<path d="M12.2362 149.168H92.995V157.727H12.2362V149.168Z" fill="#71F0DA" fill-opacity="0.7"/>
<path d="M12.2362 223.752H92.995V232.311H12.2362V223.752Z" fill="#71F0DA" fill-opacity="0.7"/>
<path d="M385.44 41.5714H478.435V273.882H385.44V41.5714Z" fill="#71F0DA" fill-opacity="0.3"/>
<path d="M0 1.22269H484.553V30.5672H0V1.22269Z" fill="#71F0DA" fill-opacity="0.3"/>
<path d="M102.784 8.55882H385.44V25.6765H102.784V8.55882Z" fill="white" fill-opacity="0.6"/>
<path d="M327.706 226.077L321.284 219.659C320.986 220.164 320.864 220.782 321.008 221.426L322.14 226.516C322.201 226.79 322.303 227.038 322.436 227.259C322.409 229.176 323.128 231.102 324.592 232.565C326.524 234.495 329.262 235.129 331.723 234.466L333.579 236.389L338.63 231.522L336.806 229.631C337.629 227.086 337.029 224.181 335.006 222.159C333.587 220.741 331.732 220.022 329.872 220.004C329.626 219.837 329.341 219.711 329.022 219.64L323.928 218.508C323.235 218.354 322.573 218.506 322.049 218.853L328.487 225.287C329.388 224.732 330.584 224.845 331.364 225.625C332.277 226.537 332.277 228.016 331.364 228.927C330.452 229.839 328.972 229.839 328.059 228.927C327.286 228.154 327.168 226.974 327.706 226.077Z" fill="#71F0DA" fill-opacity="0.3"/>
<path d="M176.201 218.25C176.201 219.263 175.105 220.084 173.754 220.084C172.402 220.084 171.307 219.263 171.307 218.25C171.307 217.237 172.402 216.416 173.754 216.416C175.105 216.416 176.201 217.237 176.201 218.25Z" fill="#C5FFF7"/>
<path d="M177.425 71.5273C177.425 73.2155 176.055 74.584 174.366 74.584C172.676 74.584 171.307 73.2155 171.307 71.5273C171.307 69.8391 172.676 68.4706 174.366 68.4706C176.055 68.4706 177.425 69.8391 177.425 71.5273Z" fill="#C5FFF7"/>
<path d="M323.035 70.916C323.035 72.2665 321.94 73.3613 320.588 73.3613C319.236 73.3613 318.141 72.2665 318.141 70.916C318.141 69.5654 319.236 68.4706 320.588 68.4706C321.94 68.4706 323.035 69.5654 323.035 70.916Z" fill="#C5FFF7"/>
<path d="M323.035 218.25C323.035 219.263 321.94 220.084 320.588 220.084C319.236 220.084 318.141 219.263 318.141 218.25C318.141 217.237 319.236 216.416 320.588 216.416C321.94 216.416 323.035 217.237 323.035 218.25Z" fill="#C5FFF7"/>
<path d="M245.396 80.5759C245.764 79.4532 247.354 79.4532 247.722 80.5759L262.903 126.879C263.068 127.381 263.537 127.721 264.066 127.721H313.173C314.361 127.721 314.852 129.242 313.889 129.936L274.178 158.527C273.745 158.838 273.564 159.394 273.73 159.9L288.903 206.174C289.271 207.299 287.985 208.239 287.024 207.547L247.274 178.927C246.847 178.62 246.271 178.62 245.844 178.927L206.094 207.547C205.133 208.239 203.847 207.299 204.215 206.174L219.388 159.9C219.554 159.394 219.373 158.838 218.94 158.527L179.229 129.936C178.266 129.242 178.757 127.721 179.945 127.721H229.052C229.581 127.721 230.05 127.381 230.215 126.879L245.396 80.5759Z" fill="white" fill-opacity="0.8"/>
<path d="M390.5 45.2395H474.764V77.0294H390.5V45.2395Z" fill="#71F0DA" fill-opacity="0.3"/>
<path d="M390.5 89.4748H474.764V166.286H390.5V89.4748Z" fill="#71F0DA" fill-opacity="0.3"/>
<path d="M390.5 181.176H474.764V212.966H390.5V181.176Z" fill="#71F0DA" fill-opacity="0.3"/>
<defs>
<linearGradient id="paint0_linear_1106_2267" x1="243.02" y1="-196.712" x2="243.02" y2="499.199" gradientUnits="userSpaceOnUse">
<stop stop-color="#4D9B8D"/>
<stop offset="0.653983" stop-color="#1A3530" stop-opacity="0"/>
</linearGradient>
</defs>
</svg>
