<svg width="284" height="456" viewBox="0 0 284 456" fill="none" xmlns="http://www.w3.org/2000/svg">
<path d="M284 0L0 181.03V456L284 274.97V0Z" fill="url(#paint0_linear_1092_2503)"/>
<path d="M251.738 19.5708L192.103 57.2446V332.215L251.738 294.541V19.5708Z" fill="#71F0DA" fill-opacity="0.4"/>
<path d="M73.3219 133.571L0.488831 179.562V454.532L73.3219 408.541V133.571Z" fill="#71F0DA" fill-opacity="0.4"/>
<path d="M247.828 35.2275L196.991 67.5193V77.3047L218.01 63.8498L247.828 45.0129V35.2275Z" fill="white" fill-opacity="0.5"/>
<path d="M152.998 100.79L102.162 133.082V142.867L123.181 129.412L152.998 110.575V100.79Z" fill="white" fill-opacity="0.5"/>
<path d="M152.998 134.06L102.162 166.352V176.137L123.181 162.682L152.998 143.845V134.06Z" fill="white" fill-opacity="0.5"/>
<path d="M152.998 169.288L102.162 201.579V211.365L123.181 197.91L152.998 179.073V169.288Z" fill="white" fill-opacity="0.5"/>
<path d="M152.998 203.536L102.162 235.828V245.614L123.181 232.159L152.998 213.322V203.536Z" fill="white" fill-opacity="0.5"/>
<path d="M152.998 233.871L102.162 266.163V275.948L123.181 262.494L152.998 243.657V233.871Z" fill="white" fill-opacity="0.5"/>
<path d="M152.998 268.12L102.162 300.412V310.197L123.181 296.742L152.998 277.906V268.12Z" fill="white" fill-opacity="0.5"/>
<path d="M152.998 304.326L102.162 336.618V346.403L123.181 332.948L152.998 314.112V304.326Z" fill="white" fill-opacity="0.5"/>
<path d="M56.2134 157.545L5.37695 189.837V199.622L26.3959 186.167L56.2134 167.33V157.545Z" fill="white" fill-opacity="0.5"/>
<path d="M247.828 116.446L196.991 148.738V158.524L218.01 145.069L247.828 126.232V116.446Z" fill="white" fill-opacity="0.5"/>
<path d="M56.2134 238.764L5.37695 271.056V280.841L26.3959 267.386L56.2134 248.549V238.764Z" fill="white" fill-opacity="0.5"/>
<path d="M247.828 198.644L196.991 230.936V240.721L218.01 227.266L247.828 208.429V198.644Z" fill="white" fill-opacity="0.5"/>
<path d="M56.2134 320.961L5.37695 353.253V363.039L26.3959 349.584L56.2134 330.747V320.961Z" fill="white" fill-opacity="0.5"/>
<path d="M247.828 240.721L196.991 273.013V282.798L218.01 269.343L247.828 250.506V240.721Z" fill="white" fill-opacity="0.5"/>
<path d="M56.2134 363.039L5.37695 395.33V405.116L26.3959 391.661L56.2134 372.824V363.039Z" fill="white" fill-opacity="0.5"/>
<path d="M247.828 76.3262L196.991 108.618V118.403L218.01 104.949L247.828 86.1116V76.3262Z" fill="white" fill-opacity="0.5"/>
<path d="M56.2134 198.644L5.37695 230.936V240.721L26.3959 227.266L56.2134 208.429V198.644Z" fill="white" fill-opacity="0.5"/>
<path d="M247.828 157.545L196.991 189.837V199.622L218.01 186.167L247.828 167.33V157.545Z" fill="white" fill-opacity="0.5"/>
<path d="M56.2134 279.863L5.37695 312.155V321.94L26.3959 308.485L56.2134 289.648V279.863Z" fill="white" fill-opacity="0.5"/>
<path d="M247.828 55.7768L196.991 88.0687V97.8541L218.01 84.3991L247.828 65.5622V55.7768Z" fill="white" fill-opacity="0.5"/>
<path d="M56.2134 178.094L5.37695 210.386V220.172L26.3959 206.717L56.2134 187.88V178.094Z" fill="white" fill-opacity="0.5"/>
<path d="M247.828 136.996L196.991 169.288V179.073L218.01 165.618L247.828 146.781V136.996Z" fill="white" fill-opacity="0.5"/>
<path d="M56.2134 259.313L5.37695 291.605V301.391L26.3959 287.936L56.2134 269.099V259.313Z" fill="white" fill-opacity="0.5"/>
<path d="M247.828 219.193L196.991 251.485V261.27L218.01 247.815L247.828 228.979V219.193Z" fill="white" fill-opacity="0.5"/>
<path d="M56.2134 341.511L5.37695 373.803V383.588L26.3959 370.133L56.2134 351.296V341.511Z" fill="white" fill-opacity="0.5"/>
<path d="M247.828 261.27L196.991 293.562V303.348L218.01 289.893L247.828 271.056V261.27Z" fill="white" fill-opacity="0.5"/>
<path d="M56.2134 383.588L5.37695 415.88V425.665L26.3959 412.21L56.2134 393.373V383.588Z" fill="white" fill-opacity="0.5"/>
<path d="M247.828 96.8755L196.991 129.167V138.953L218.01 125.498L247.828 106.661V96.8755Z" fill="white" fill-opacity="0.5"/>
<path d="M56.2134 219.193L5.37695 251.485V261.27L26.3959 247.815L56.2134 228.979V219.193Z" fill="white" fill-opacity="0.5"/>
<path d="M247.828 178.094L196.991 210.386V220.172L218.01 206.717L247.828 187.88V178.094Z" fill="white" fill-opacity="0.5"/>
<path d="M56.2134 300.412L5.37695 332.704V342.489L26.3959 329.034L56.2134 310.197V300.412Z" fill="white" fill-opacity="0.5"/>
<path d="M257.604 39.1416C257.604 44.546 261.981 48.927 267.38 48.927C272.78 48.927 277.157 44.546 277.157 39.1416C277.157 33.7373 272.78 29.3562 267.38 29.3562C261.981 29.3562 257.604 33.7373 257.604 39.1416Z" fill="#D9D9D9"/>
<path d="M162.775 97.8541C162.775 103.258 167.152 107.639 172.551 107.639C177.95 107.639 182.327 103.258 182.327 97.8541C182.327 92.4497 177.95 88.0687 172.551 88.0687C167.152 88.0687 162.775 92.4497 162.775 97.8541Z" fill="#D9D9D9"/>
<path d="M162.775 200.601C162.775 206.005 167.152 210.386 172.551 210.386C177.95 210.386 182.327 206.005 182.327 200.601C182.327 195.197 177.95 190.815 172.551 190.815C167.152 190.815 162.775 195.197 162.775 200.601Z" fill="#D9D9D9"/>
<path d="M162.775 132.103C162.775 137.507 167.152 141.888 172.551 141.888C177.95 141.888 182.327 137.507 182.327 132.103C182.327 126.699 177.95 122.318 172.551 122.318C167.152 122.318 162.775 126.699 162.775 132.103Z" fill="#D9D9D9"/>
<path d="M162.775 234.85C162.775 240.254 167.152 244.635 172.551 244.635C177.95 244.635 182.327 240.254 182.327 234.85C182.327 229.445 177.95 225.064 172.551 225.064C167.152 225.064 162.775 229.445 162.775 234.85Z" fill="#D9D9D9"/>
<path d="M162.775 166.352C162.775 171.756 167.152 176.137 172.551 176.137C177.95 176.137 182.327 171.756 182.327 166.352C182.327 160.948 177.95 156.567 172.551 156.567C167.152 156.567 162.775 160.948 162.775 166.352Z" fill="#D9D9D9"/>
<path d="M162.775 269.099C162.775 274.503 167.152 278.884 172.551 278.884C177.95 278.884 182.327 274.503 182.327 269.099C182.327 263.694 177.95 259.313 172.551 259.313C167.152 259.313 162.775 263.694 162.775 269.099Z" fill="#D9D9D9"/>
<path d="M162.775 303.348C162.775 308.752 167.152 313.133 172.551 313.133C177.95 313.133 182.327 308.752 182.327 303.348C182.327 297.943 177.95 293.562 172.551 293.562C167.152 293.562 162.775 297.943 162.775 303.348Z" fill="#D9D9D9"/>
<path d="M257.604 141.888C257.604 147.293 261.981 151.674 267.38 151.674C272.78 151.674 277.157 147.293 277.157 141.888C277.157 136.484 272.78 132.103 267.38 132.103C261.981 132.103 257.604 136.484 257.604 141.888Z" fill="#D9D9D9"/>
<path d="M257.604 73.3906C257.604 78.7949 261.981 83.176 267.38 83.176C272.78 83.176 277.157 78.7949 277.157 73.3906C277.157 67.9862 272.78 63.6052 267.38 63.6052C261.981 63.6052 257.604 67.9862 257.604 73.3906Z" fill="#D9D9D9"/>
<path d="M257.604 176.137C257.604 181.542 261.981 185.923 267.38 185.923C272.78 185.923 277.157 181.542 277.157 176.137C277.157 170.733 272.78 166.352 267.38 166.352C261.981 166.352 257.604 170.733 257.604 176.137Z" fill="#D9D9D9"/>
<path d="M257.604 107.639C257.604 113.044 261.981 117.425 267.38 117.425C272.78 117.425 277.157 113.044 277.157 107.639C277.157 102.235 272.78 97.8541 267.38 97.8541C261.981 97.8541 257.604 102.235 257.604 107.639Z" fill="#D9D9D9"/>
<path d="M257.604 210.386C257.604 215.791 261.981 220.172 267.38 220.172C272.78 220.172 277.157 215.791 277.157 210.386C277.157 204.982 272.78 200.601 267.38 200.601C261.981 200.601 257.604 204.982 257.604 210.386Z" fill="#D9D9D9"/>
<path d="M257.604 244.635C257.604 250.04 261.981 254.421 267.38 254.421C272.78 254.421 277.157 250.04 277.157 244.635C277.157 239.231 272.78 234.85 267.38 234.85C261.981 234.85 257.604 239.231 257.604 244.635Z" fill="#D9D9D9"/>
<defs>
<linearGradient id="paint0_linear_1092_2503" x1="-17.1084" y1="-28.8669" x2="329.845" y2="390.119" gradientUnits="userSpaceOnUse">
<stop stop-color="#1F584E"/>
<stop offset="0.632878" stop-color="#43BEA8" stop-opacity="0"/>
</linearGradient>
</defs>
</svg>
