<svg width="449" height="520" viewBox="0 0 449 520" fill="none" xmlns="http://www.w3.org/2000/svg">
<path d="M309.001 519.5C331.001 495.9 342.167 459.333 345.001 444L309.001 438V519.5Z" fill="white"/>
<path d="M280.501 497.5C286.501 492.3 291.667 470 293.501 459.5L296.001 426.5C287.167 439 270.101 463.6 272.501 462C274.901 460.4 278.834 485 280.501 497.5Z" fill="white"/>
<path d="M258.5 490C262.1 486.8 264.334 471.666 265 464.5C265 436.1 249 446 241 454.5L258.5 490Z" fill="white"/>
<path d="M231 486.5L237 464.5C221 412.5 219 454.5 221 464.5C222.6 472.5 228.334 482.5 231 486.5Z" fill="white"/>
<path d="M210 490L216 464.5C203.5 423.5 195 459.5 194.5 464.5C194.1 468.5 204.667 483.166 210 490Z" fill="white"/>
<path d="M183.5 494.5L188.5 464.5C177.5 421.5 166.5 441 168 462C169.2 478.8 178.833 490.666 183.5 494.5Z" fill="white"/>
<path d="M163.999 512.5C156.399 504.9 157.833 474 159.499 459.5C158.068 412 114.5 403.5 128 454.5C141.5 505.5 173.499 522 163.999 512.5Z" fill="white"/>
<path d="M90.5 144.5V289C0.900269 285.401 -4.83338 340.167 3.49977 368C6.66643 387.333 36.5998 431.3 131 452.5C225.4 473.7 314.333 457 347 446C378 433 441.6 396 448 352C454.4 308 397.333 291.667 368 289C368.4 115.001 373.166 82.5003 375.5 88C377.333 76.1668 381.1 50.8004 381.5 44C381.9 37.1996 377.666 32.4998 375.5 31C353.5 6.6 281 0.833648 247.5 1.00047C243.166 0.500473 224.7 -0.199527 185.5 1.00047C146.3 2.20047 111.5 12.8338 99 18.0005C89.6667 23.0005 72.5 36.9005 78.5 52.5005C84.5 68.1005 89 120.334 90.5 144.5Z" fill="#474747"/>
<path d="M233 334C131.8 332.4 97.1667 304.333 92.5 290.5V324.5C100.167 347 139 390.9 233 386.5C327 382.1 361.167 343.333 366.5 324.5V281.5C364.167 299.667 334.2 335.6 233 334Z" fill="#949494"/>
<rect x="253.998" y="358.087" width="29" height="27" transform="rotate(-9.86609 253.998 358.087)" fill="black"/>
<rect x="173.762" y="355" width="29" height="27" transform="rotate(10.1576 173.762 355)" fill="black"/>
<path d="M273.997 342.5C243.597 350.5 241.5 376.333 244 386L261.997 384C266.397 347.2 276.333 366.333 281 380.5C292.833 378.167 317.6 371.3 318 368.5C318.5 365 311.997 332.5 273.997 342.5Z" fill="white"/>
<path d="M180.53 341.953C210.93 349.953 213.5 377.334 211 387.001L192.997 385.501C188.597 348.7 177.167 367.834 172.5 382.001C160.667 379.667 137.9 371.8 137.5 369C137 365.5 142.53 331.953 180.53 341.953Z" fill="white"/>
<ellipse cx="229.5" cy="42" rx="127.5" ry="34" fill="#373737"/>
</svg>
