<svg width="258" height="248" viewBox="0 0 258 248" fill="none" xmlns="http://www.w3.org/2000/svg">
<path d="M220.735 126.36C222.056 130.392 224.047 134.4 226.672 138.083C229.431 141.956 232.261 145.781 234.347 150.159C236.659 155.014 238.413 160.006 238.889 165.326C239.197 168.771 239.055 172.146 237.974 175.201C237.303 177.098 236.388 178.927 235.27 180.488C233.395 183.106 230.717 184.227 227.523 183.956C224.814 183.727 222.119 183.061 219.559 181.725C218.259 181.047 217.025 180.009 215.922 178.918C215.249 178.253 214.76 177.224 214.406 176.279C213.719 174.447 213.996 172.821 215.195 171.614C216.304 170.496 218.205 170.358 219.632 171.613C221.111 172.914 222.607 173.041 224.221 173.195C225.674 173.333 226.446 172.717 226.811 171.234C227.687 167.68 227.577 164.082 226.167 160.4C225.019 157.4 223.414 154.681 221.569 152.109C219.692 149.493 217.741 146.932 215.974 144.231C211.46 137.333 208.465 129.849 207.536 121.657C207.095 117.771 207.274 113.98 208.465 110.501C210.178 105.499 213.126 101.861 217.998 100.737C222.867 99.6142 228.012 102.964 229.742 108.325C230.114 109.478 230.299 110.805 230.183 111.951C229.981 113.937 228.318 114.517 226.735 113.311C226.181 112.89 225.704 112.323 225.19 111.825C223.517 110.204 221.971 110.232 220.719 111.941C219.767 113.24 219.375 114.845 219.272 116.584C219.082 119.773 219.651 122.929 220.737 126.361L220.735 126.36Z" fill="#FF87EB"/>
<path d="M186.887 125.637C187.972 136.892 189.043 148.006 190.159 159.583C191.048 159.067 191.639 158.684 192.262 158.371C193.698 157.648 195.102 156.828 196.61 156.295C198.134 155.756 199.541 156.453 200.397 157.841C201.306 159.319 201.379 161.161 200.197 162.358C198.921 163.651 197.42 164.699 195.908 165.66C194.6 166.493 193.149 167.078 191.74 167.727C191.174 167.988 190.883 168.351 190.911 169.125C191.183 176.618 191.429 184.109 191.687 191.602C191.689 191.663 191.75 191.729 191.904 192.028C192.859 191.531 193.847 191.063 194.791 190.515C197.365 189.017 199.887 187.416 202.504 186.005C203.405 185.519 204.504 185.244 205.547 185.271C207.739 185.327 209.368 188.127 208.459 190.379C208.005 191.506 207.153 192.532 206.228 193.193C204.25 194.606 202.114 195.766 200.029 197.004C197.142 198.72 194.306 200.542 191.332 202.08C187.43 204.098 183.373 201.675 182.12 196.623C181.646 194.713 181.403 192.72 181.312 190.786C180.994 184.076 180.824 177.379 180.532 170.671C180.105 160.861 179.526 151.037 179.201 141.237C179.051 136.71 179.364 132.229 179.434 127.721C179.51 122.834 181.905 120.101 185.617 118.583C187.742 117.714 189.864 116.83 192.033 116.08C193.016 115.741 194.098 115.568 195.16 115.582C196.453 115.599 197.568 116.338 198.171 117.811C198.729 119.178 198.576 120.493 197.722 121.362C196.896 122.203 195.92 122.978 194.854 123.376C192.883 124.113 190.799 124.554 188.761 125.118C188.173 125.281 187.586 125.442 186.886 125.636L186.887 125.637Z" fill="#FF87EB"/>
<path d="M154.058 132.931C153.98 131.619 153.729 130.039 153.834 128.525C153.978 126.438 155.223 125.177 156.921 124.969C158.521 124.773 160.06 125.662 161.037 127.508C162.361 130.013 162.617 132.658 161.921 135.194C161.08 138.261 157.497 138.635 155.573 135.919C155.004 135.115 154.656 134.13 154.059 132.931L154.058 132.931Z" fill="#FF87EB"/>
<path d="M164.594 164.682C165.141 168.807 165.857 172.937 166.197 177.055C166.733 183.572 167.004 190.079 167.417 196.592C167.517 198.177 167.827 199.778 167.877 201.357C167.943 203.434 168.062 205.565 167.766 207.547C167.399 210.005 165.661 211.308 163.671 211.168C161.566 211.02 159.737 209.401 159.076 206.779C158.629 205.006 158.439 203.172 158.249 201.364C157.123 190.69 156.924 180.086 156.818 169.491C156.803 167.982 156.931 166.486 157.069 165.004C157.134 164.307 157.318 163.62 157.556 162.991C158.18 161.334 159.473 160.461 160.923 160.714C162.529 160.993 163.502 162.181 164.096 163.845C164.195 164.123 164.275 164.409 164.363 164.691C164.44 164.688 164.516 164.686 164.593 164.683L164.594 164.682Z" fill="#FF87EB"/>
<path d="M128.309 153.488C129.933 153.038 131.235 152.641 132.56 152.325C133.516 152.098 133.769 151.43 133.746 150.357C133.668 146.761 133.561 143.156 133.644 139.585C133.73 135.943 133.986 132.327 134.258 128.721C134.336 127.682 134.582 126.613 135.004 125.736C136.001 123.661 138.422 123.685 139.728 125.864C140.456 127.078 140.996 128.578 141.195 129.969C141.854 134.587 142.326 139.215 142.857 143.839C143.038 145.417 143.179 146.996 143.369 148.887C144.295 148.631 145.046 148.439 145.787 148.216C151.144 146.602 156.487 144.946 161.862 143.388C163.166 143.009 164.557 142.829 165.938 142.785C166.788 142.758 167.753 142.981 168.566 143.405C171.164 144.76 171.999 148.407 170.124 150.463C169.291 151.376 168.161 152.064 167.024 152.484C163.765 153.689 160.458 154.774 157.127 155.776C153.435 156.887 149.694 157.845 145.98 158.887C144.258 159.37 144.271 159.389 144.429 161.462C145.15 170.925 146.014 180.398 146.537 189.849C146.924 196.841 146.875 203.805 146.991 210.778C147.009 211.851 146.944 212.931 146.788 213.965C146.435 216.304 144.983 217.603 143.087 217.4C141.321 217.211 139.711 215.626 139.279 213.316C138.674 210.079 138.206 206.825 137.761 203.576C135.989 190.63 134.943 177.701 134.326 164.783C134.292 164.078 134.199 163.369 134.118 162.5C132.454 162.96 130.935 163.379 129.307 163.83C129.364 164.812 129.391 165.663 129.466 166.515C130.367 176.872 130.61 187.152 130.016 197.335C129.899 199.322 129.716 201.298 129.503 203.262C129.42 204.025 129.253 204.793 128.981 205.472C128.381 206.973 127.291 207.754 125.725 207.58C124.148 207.404 122.957 206.357 122.417 204.691C121.923 203.166 121.642 201.551 121.447 199.972C120.229 190.069 119.173 180.166 118.665 170.275C118.621 169.419 118.545 168.562 118.458 167.347C117.499 167.612 116.698 167.831 115.898 168.055C113.864 168.624 111.853 169.281 109.785 169.724C108.97 169.899 107.992 169.79 107.152 169.478C104.764 168.593 103.733 165.573 105.106 163.499C105.592 162.765 106.297 162.12 107.05 161.754C110.064 160.293 113.112 158.899 116.196 157.598C118.228 156.74 117.952 156.976 117.843 154.587C117.589 149.035 117.266 143.478 117.014 137.927C116.946 136.417 116.974 134.907 117.072 133.422C117.132 132.514 117.291 131.581 117.608 130.783C118.688 128.064 121.707 127.83 123.551 130.414C124.325 131.498 124.936 132.903 125.197 134.213C126.055 138.522 126.74 142.853 127.447 147.179C127.776 149.184 128.001 151.196 128.311 153.488L128.309 153.488Z" fill="#FF87EB"/>
<path d="M96.7655 144.571C97.2068 145.97 97.0404 147.605 96.4171 149.093C95.8664 150.409 94.8056 150.894 93.4443 150.636C91.1499 150.202 88.9487 147.225 89.0072 144.65C89.0573 142.455 90.4122 140.82 92.2656 140.719C94.1082 140.619 95.9375 142.079 96.7655 144.571Z" fill="#FF87EB"/>
<path d="M101.236 166.333C103.649 175.819 105.664 184.619 105.862 193.555C105.902 195.35 105.875 197.142 105.762 198.91C105.704 199.814 105.51 200.741 105.167 201.518C104.021 204.112 100.955 204.008 99.4249 201.288C98.8266 200.224 98.3752 198.972 98.1589 197.777C96.8955 190.798 95.6125 183.816 94.5557 176.822C93.8265 171.996 93.4346 167.15 92.9356 162.313C92.8397 161.384 92.8563 160.43 92.9764 159.535C93.177 158.04 93.8654 156.942 95.2963 156.79C96.6269 156.648 97.7013 157.43 98.4408 158.737C98.9792 159.687 99.4183 160.722 99.7807 161.758C100.39 163.499 100.901 165.269 101.236 166.333Z" fill="#FF87EB"/>
<path d="M73.66 140.304C74.1985 142.694 74.7272 145.057 75.2632 147.419C78.1024 159.929 79.7729 172.534 81.6611 185.121C82.2904 189.315 82.8644 193.514 83.4145 197.712C83.5562 198.79 83.6032 199.894 83.5355 200.952C83.3891 203.222 82.0851 204.723 80.3422 204.802C78.5251 204.885 76.7561 203.689 76.0517 201.414C75.0495 198.178 74.0591 194.881 73.5459 191.58C71.7589 180.083 70.1772 168.575 68.5221 157.071C68.0641 153.887 67.6339 150.702 67.1647 147.519C67.0941 147.042 66.878 146.572 66.7076 146.029C64.0583 147.702 61.5096 149.385 58.8944 150.944C55.9304 152.711 52.8196 154.162 49.2686 154.317C48.0204 154.371 46.7072 154.319 45.4636 153.969C43.4582 153.405 42.0513 151.891 41.5544 149.542C41.0766 147.282 41.8109 145.619 43.3146 144.443C43.8031 144.061 44.3592 143.718 44.9471 143.557C51.1692 141.848 56.4533 138.245 61.7184 134.622C71.186 128.107 79.3995 120.029 86.0542 110.03C86.6689 109.107 87.318 108.211 87.9984 107.351C89.7072 105.194 92.0051 104.647 94.6512 105.226C96.7321 105.682 97.9106 107.515 97.5283 109.767C97.368 110.713 97.042 111.671 96.565 112.427C94.3281 115.971 92.1468 119.579 89.6951 122.918C85.3481 128.838 80.4032 134.096 75.1036 138.929C74.6387 139.352 74.1903 139.798 73.6594 140.304L73.66 140.304Z" fill="#FF87EB"/>
<path d="M164.728 56.5012C170.326 55.9012 175.822 55.3128 181.387 54.7161C181.546 53.811 181.693 53.0764 181.803 52.3327C183.179 42.9743 184.542 33.6124 185.932 24.2568C186.146 22.8147 186.423 21.3803 186.765 19.9766C187.338 17.6285 188.491 16.4178 189.995 16.4391C191.577 16.4621 192.836 17.7723 193.326 20.2433C193.664 21.9449 193.927 23.7241 193.895 25.452C193.787 31.4022 193.83 37.3909 193.281 43.2821C191.867 58.4346 190.262 73.56 188.527 88.6578C187.923 93.9064 186.743 99.0518 185.763 104.226C185.521 105.507 185.134 106.782 184.626 107.941C183.777 109.878 182.119 110.747 180.499 110.324C178.858 109.895 177.594 108.306 177.497 106.098C177.376 103.371 177.46 100.634 177.49 97.9024C177.624 85.8174 178.9 73.8914 180.467 62.0063C180.53 61.5323 180.528 61.0443 180.57 60.3433C175.012 61.2445 169.555 62.1286 163.962 63.0353C163.806 64.2381 163.612 65.4614 163.492 66.6973C162.294 79.0448 159.521 90.9448 156.762 102.848C156.547 103.778 156.227 104.707 155.801 105.52C154.851 107.329 153.139 108.046 151.511 107.46C149.959 106.901 148.941 105.261 148.864 103.136C148.844 102.579 148.875 102.013 148.946 101.464C151.704 80.2646 154.402 59.0516 157.271 37.8758C158.308 30.2259 159.745 22.6605 161.037 15.0669C161.233 13.9132 161.556 12.7705 161.959 11.6999C162.448 10.4053 163.324 9.6136 164.609 9.72364C165.886 9.83335 166.753 10.7437 167.068 12.1185C167.39 13.5238 167.641 15.0304 167.571 16.4599C167.209 23.7967 166.806 31.131 166.276 38.4494C165.872 44.0251 165.256 49.5738 164.743 55.1362C164.706 55.5327 164.733 55.9389 164.728 56.5026L164.728 56.5012Z" fill="#FF87EB"/>
<path d="M133.555 55.1259C131.402 54.6284 129.445 54.1892 127.493 53.7202C126.684 53.526 125.862 53.3552 125.089 53.0222C123.422 52.3047 122.508 50.7076 122.594 48.8537C122.677 47.0895 123.633 45.5129 125.304 45.2616C129.304 44.6603 133.294 43.6458 137.386 44.3904C138.08 44.5164 138.776 44.7433 139.437 45.0376C142.2 46.2674 143.756 49.0243 143.337 52.4722C142.85 56.4823 142.178 60.4616 141.465 64.4207C139.886 73.1873 137.767 81.7512 134.428 89.7747C133.241 92.6286 131.779 95.3313 130.295 97.9832C129.124 100.074 127.563 101.772 125.72 103.052C121.866 105.73 117.517 105.22 114.076 101.676C111.863 99.3968 110.389 96.5027 109.278 93.3423C107.569 88.4783 106.653 83.3921 106.189 78.1902C105.517 70.66 105.812 63.1852 106.693 55.7427C107.879 45.7223 109.913 35.9897 113.239 26.7094C115.714 19.8039 118.933 13.4629 123.312 8.04702C126.017 4.70195 129.075 2.00112 132.972 0.865844C137.748 -0.526297 142.623 2.32704 144.301 7.59531C144.518 8.27703 144.637 9.14351 144.487 9.81693C143.977 12.0965 141.775 12.8424 140.155 11.3764C140.013 11.2486 139.884 11.1003 139.758 10.9511C137.349 8.12396 135.89 7.95201 133.139 10.2177C130.605 12.3046 128.653 15.0519 127.012 18.1245C123.375 24.9339 120.976 32.3947 119.286 40.2112C117.232 49.7074 115.956 59.3679 115.786 69.2285C115.679 75.4243 116.046 81.5983 117.746 87.5617C118.235 89.2779 118.959 90.9348 119.752 92.4945C120.364 93.7003 120.863 93.7122 121.771 92.806C122.39 92.1871 122.989 91.487 123.443 90.6958C124.428 88.9787 125.428 87.2516 126.222 85.4024C130.258 75.9978 132.198 65.8153 133.555 55.1259Z" fill="#FF87EB"/>
<path d="M84.7611 81.8483C85.1092 80.776 85.5973 79.7385 85.7805 78.6245C86.4404 74.601 87.2934 70.5832 87.5359 66.506C88.1598 56.0042 88.4975 45.472 88.9472 34.9515C89.1017 31.3293 89.2324 27.705 89.4119 24.0849C89.4563 23.1853 89.5973 22.2837 89.7802 21.4098C90.2021 19.3948 91.1049 18.3717 92.4313 18.2969C93.8168 18.2187 94.8578 19.2216 95.4535 21.3067C95.7191 22.2361 95.9359 23.1949 96.073 24.1583C96.3382 26.0232 96.6442 27.8956 96.7359 29.7734C97.3969 43.3282 97.7355 56.8744 96.3365 70.3549C95.8759 74.7908 95.2808 79.2064 93.8767 83.3488C93.165 85.448 92.2804 87.5621 91.0978 89.3095C88.1506 93.6636 83.4992 94.0028 79.7975 90.3867C77.9237 88.5568 76.5886 86.2331 75.4599 83.7276C73.4799 79.3308 72.3375 74.6152 71.5093 69.7902C69.6024 58.6792 68.6802 47.4902 69.179 36.2011C69.2437 34.741 69.3852 33.2855 69.546 31.8374C69.6136 31.2249 69.7607 30.6016 69.981 30.0462C70.4899 28.7639 71.3335 27.9373 72.5921 27.9717C73.763 28.0041 74.6904 28.7351 75.1065 29.9918C75.5563 31.3498 75.9241 32.7961 76.0596 34.2327C76.5991 39.9371 76.9648 45.6614 77.5243 51.3633C78.2203 58.4581 79.1053 65.5315 80.8292 72.4228C81.3995 74.7024 82.169 76.9227 82.9337 79.13C83.264 80.0843 83.8121 80.9383 84.2614 81.838C84.4282 81.841 84.5955 81.8439 84.7623 81.8476L84.7611 81.8483Z" fill="#FF87EB"/>
<path d="M44.7785 47.3365C44.7191 47.2012 44.6171 46.9534 44.5031 46.7133C43.8644 45.3695 43.7978 44.0346 44.5972 42.7939C45.3911 41.5612 46.5372 41.2431 47.7901 41.5033C48.4287 41.6359 49.0742 41.8992 49.6551 42.2468C53.9945 44.8416 57.5299 48.4019 59.7286 53.6161C62.3208 59.7636 63.4775 66.3083 64.0488 73.0152C64.4591 77.8355 64.3515 82.6297 63.444 87.3526C62.9709 89.8157 62.2254 92.1405 60.8673 94.1292C58.6363 97.3959 55.7197 98.4048 52.2611 97.3682C49.6075 96.5731 47.5446 94.6411 45.7558 92.2853C42.7833 88.3699 41.2839 83.6619 40.4032 78.6712C39.1501 71.5721 39.3916 64.5054 40.7423 57.5181C41.0928 55.7034 41.6267 53.9075 42.2962 52.2257C42.963 50.549 43.9056 49.0266 44.7785 47.3372L44.7785 47.3365ZM50.1349 52.7216C49.7292 54.154 49.3548 55.2992 49.0795 56.478C48.228 60.1281 48.0795 63.8964 48.0525 67.6612C48.019 72.3572 48.4636 77.0045 49.8299 81.4946C50.4381 83.4927 51.2069 85.4058 52.535 86.9107C53.0119 87.4515 53.6402 87.8104 54.2009 88.2538C57.9608 81.3735 54.9447 58.8575 50.1349 52.7216Z" fill="#FF87EB"/>
<path d="M20.1999 56.2354C19.4799 56.8264 18.9871 57.1799 18.5429 57.6052C15.0423 60.9534 11.5534 64.3192 8.05419 67.6701C7.46472 68.2346 6.88717 68.8413 6.2303 69.2746C5.19204 69.9608 4.09455 70.0237 3.06981 69.1056C2.15497 68.2858 1.71718 66.7189 2.19123 65.2975C2.55083 64.2195 3.05529 63.1283 3.72247 62.3012C5.496 60.1039 7.26415 57.8549 9.2673 55.9727C13.295 52.1888 17.4382 48.5706 21.6063 45.0029C27.0541 40.3392 32.5724 35.7895 38.062 31.1929C38.4437 30.8733 38.8167 30.5274 39.2295 30.2742C40.4945 29.4968 41.859 29.6885 42.8594 30.7381C43.8188 31.7445 44.2359 33.4765 43.6704 34.9735C43.2968 35.9637 42.7667 36.9699 42.0861 37.6683C40.3243 39.476 38.5027 41.2218 36.5909 42.8012C33.3312 45.4947 29.9836 48.04 26.6766 50.6539C26.1502 51.0706 25.6436 51.5219 25.1497 51.9381C27.4915 59.2229 28.6976 66.6783 30.3021 74.0107C32.2987 83.1315 34.1231 92.2959 35.4683 101.578C36.555 109.076 36.8376 116.635 37.2294 124.187C37.2722 125.017 37.2109 125.878 37.0618 126.687C36.8324 127.928 36.189 128.797 35.0915 129.064C33.9275 129.348 32.9356 128.884 32.3203 127.706C31.8601 126.824 31.515 125.806 31.3204 124.797C29.6298 116.031 27.8969 107.272 26.3512 98.473C24.8538 89.945 23.4953 81.3837 22.2073 72.8126C21.4706 67.9083 20.9963 62.955 20.4048 58.024C20.3475 57.5462 20.2949 57.0682 20.1999 56.2354Z" fill="#FF87EB"/>
</svg>
